<?xml version="1.0" encoding="UTF-8"?><svg id="Layer_1" xmlns="http://www.w3.org/2000/svg" viewBox="0 0 70 70"><defs><style>.cls-1{fill:#ab0000;}</style></defs><path class="cls-1" d="M34.48,2.12c1.75.2,3.16,1,4.2,2.42,2.39.21,5.08-.21,7.44.02,2.77.28,5.08,2.96,5.08,5.72v26.82l7.87-13.54c2.19-4.16,8.39-1.36,6.43,3.09l-14.27,24.7c-.76,5.87,2.73,16.07-6.13,16.63-12.12-.12-24.27.21-36.37-.17-2.52-.53-4.34-2.62-4.6-5.17l.04-53.22c.38-2.47,2.52-4.64,5.04-4.86,2.37-.2,5.03.16,7.44,0,.64-1.04,1.67-1.86,2.86-2.18.34-.09,1.01-.24,1.34-.27,4.34-.39,9.24.29,13.63,0ZM20.17,4.21c-3.37.9-3.12,5.58.26,6.24,4.48-.32,9.85.54,14.23.02,3.46-.41,3.84-5.3.5-6.26h-14.99ZM15.83,6.5h-6.75c-1.28,0-3,1.98-3.02,3.28v52.74c.15,1.77,1.5,3.21,3.27,3.41h36.54c1.13.19,3.28-1.78,3.28-2.77v-9.58c-.22-.06-.26.09-.39.19-.21.16-1.68,1.49-1.73,1.61-.27.59.01,3.74-.06,4.7-.11,1.51-.73,2.7-2.29,3.12l-33.67.04c-1.5-.14-2.5-1.14-2.64-2.64V11.83c-.11-.98,1.35-2.63,2.26-2.63h5.59c-.39-.85-.42-1.79-.39-2.7ZM39.37,6.5v1.86c0,.13-.36.57-.26.84h5.47c.08,0,1,.44,1.14.54.58.4,1.24,1.54,1.24,2.23v32.48l1.82-3,.37-.92-.04-31.09c-.19-1.3-1.5-2.63-2.79-2.87-2.06-.37-4.82.16-6.95-.06ZM45.03,57.3c-.31-.01-.43.29-.74.36-.71.16-1.23-.2-1.2-.94.57-3.01,1.11-6.06,1.94-9V12.6c-.05-.76-.07-1.37-.97-1.48-1.21-.14-5.01-.16-6.18,0-.78.11-2.12,1.47-3.21,1.29-4.53-.29-9.55.39-14.02,0-1.5-.13-2.4-1.16-3.08-1.29-.84-.16-5.51-.13-6.43,0-.46.06-.87.47-.84.96v48.24c-.01.38.13.78.51.9l33.39.06c.35.08.83-.6.83-.84v-3.15ZM47.1,48.41c.51.14,2.39,1.52,2.73,1.42l13.94-24.01c.8-1.9-1.31-3.15-2.73-1.83l-13.89,24.05-.05.36ZM45.54,53.95c.09.09.96-.66,1.09-.77.63-.56,1.23-1.18,1.87-1.73-.23-.21-2.08-1.33-2.18-1.22l-.77,3.73Z"/><path class="cls-1" d="M18.49,43.83c.24.29.2.86.36,1.12.12.19.87.44,1.15.65.99.73,2.46,3.59.71,3.94-1.21.24-1.04-1.49-1.61-2.14-1.55-1.8-4.13.45-2.83,2.31.59.85,1.94.6,2.89.97,2.71,1.07,3.18,4.84.74,6.52-.29.2-1.06.46-1.1.51-.19.21,0,1.59-1.11,1.52-1.02-.07-.81-1.31-1-1.52-.05-.05-.92-.36-1.25-.61-.93-.71-2.34-3.37-.79-3.86,1.63-.51.9,1.89,2.23,2.54,1.87.92,3.56-1.39,2.22-2.86-.68-.74-1.52-.51-2.36-.72-3.02-.78-3.7-4.87-1.17-6.66.26-.19.87-.36,1.02-.52.19-.2.16-.6.29-.87.3-.62,1.13-.88,1.6-.31Z"/><path class="cls-1" d="M42.02,51.3c.58.53,2.02,2.28.78,2.82-1.6.69-1.61-2.27-3.73-1.93-2.62.42-4.88,6.08-8.42,6.63-2.87.44-2.88-2.79-2.57-4.75.15-.98.67-4.3,2.2-3.43.92.52.04,2.17-.14,3.05-.09.42-.55,3.18-.1,3.25,2.5-.47,3.72-3.08,5.46-4.7,1.91-1.79,4.27-2.98,6.52-.92Z"/><path class="cls-1" d="M24.15,44.21l18.11-.03c1.21.07,1.38,1.81.13,1.93h-18.14c-1.07-.14-1.13-1.6-.09-1.9Z"/><path class="cls-1" d="M24.15,32.63l18.11-.03c1.09.13,1.34,1.25.44,1.86l-18.46.07c-1.07-.14-1.13-1.6-.09-1.91Z"/><path class="cls-1" d="M36.99,16.53l1.35,4.89c.2-.02.2-.19.25-.33.51-1.37.73-3.16,1.29-4.56h2.06l.26,6.95h-1.42s-.19-5.66-.19-5.66l-1.73,5.47c-.13.09-1.09.1-1.15.05-.2-.17-1.13-4.42-1.3-5.07-.05-.21.13-.38-.26-.31l-.13,5.53h-1.34s.31-6.95.31-6.95h1.99Z"/><path class="cls-1" d="M13.74,27.23l12.83-.03c1.31.04,1.54,1.64.26,1.94h-13c-1.24-.15-1.2-1.55-.1-1.91Z"/><path class="cls-1" d="M13.87,38.81l12.57-.03c1.35-.07,1.79,1.77.39,1.93h-13.13c-1.06-.13-1.1-1.67.17-1.9Z"/><path class="cls-1" d="M30.72,27.23c3.62.26,8.01-.45,11.55-.03,1.28.15,1.34,1.79.13,1.93h-11.83c-1.04-.39-.95-1.7.16-1.9Z"/><path class="cls-1" d="M30.85,38.81c3.28-.55,7.87.34,11.29-.03,1.31-.04,1.59,1.78.26,1.93-3.61.42-8.01-.32-11.71,0-1.2-.14-1.16-1.68.16-1.9Z"/><path class="cls-1" d="M28.55,16.55c.31.2,1.75,6.15,2.2,6.93-.29-.05-1.55.08-1.66-.01-.07-.06-.27-1.56-.52-1.73-.16-.11-1.91-.1-2.07,0-.22.15-.41,1.63-.52,1.73s-1.26-.04-1.53.01l2.07-6.93c.37.05,1.83-.12,2.03,0ZM28.31,20.64c.1-.1-.54-2.34-.65-2.63-.05-.13-.05-.31-.25-.33l-.77,2.77c.03.33,1.39.15,1.67.19Z"/><path class="cls-1" d="M18.4,16.66l-.26,1.15c-4.77-1.55-4.93,5.8,0,4.37l.12,1.15c-2.11.65-4.86-.03-5.23-2.53-.48-3.29,2.4-5.1,5.37-4.14Z"/><path class="cls-1" d="M13.74,32.63c2.01.17,4.72-.33,6.65-.02,1.1.17,1.17,1.56.13,1.92-2.08-.22-4.81.31-6.81,0-1.07-.17-1.05-1.62.02-1.89Z"/><polygon class="cls-1" points="20.98 16.53 20.98 22.19 23.81 22.19 23.81 23.47 19.56 23.47 19.56 16.53 20.98 16.53"/><rect class="cls-1" x="31.78" y="16.53" width="1.54" height="6.95"/></svg>