<?xml version="1.0" encoding="UTF-8"?><svg id="Layer_1" xmlns="http://www.w3.org/2000/svg" viewBox="0 0 70 70"><defs><style>.cls-1{fill:#ab0000;}</style></defs><path class="cls-1" d="M55.35,51.41c-.05.03-.44.95-.5,1.12-.32.84-.59,2.05-.68,2.94-.11,1.14.32,2.57-.78,3.35l-14.77,4.56c-.53-.04-.36-.49-.32-.91l4.3-14.32c.63-1.29,2.2-.81,3.36-.91.58-.05,3.97-.85,4.2-1.16.06-.08-.57-1.52-.2-1.94,5.05-6.53,10.53-12.75,15.71-19.2.83-.83,2.14.1,1.53,1.15l-14.98,18.12c-.15.22-.42.47-.4.77.03.32,3.84,4,4.34,4.57l9.98-8.62c.75-.63,1.86.1,1.57,1.05-.05.18-.81.88-1.01,1.06-2.9,2.73-6.17,5.12-9.06,7.87-.31.23-.73.51-1.12.57-.36.05-1.06-.16-1.18-.09ZM43.83,59.79l8.34-2.71c0-2.48.47-4.9,1.74-7.05.01-.11-.07-.18-.12-.26-.08-.13-2.07-2.13-2.21-2.2-.22-.11-1.37.58-1.74.72-1.79.66-3.71.96-5.61.91l-2.99,10.07c.24.06.31-.14.45-.26.71-.59,4.94-4.7,5.24-5.23.28-.5.07-1.06.75-1.45,1.54-.89,3.05,1.01,1.88,2.27-.44.47-.91.32-1.41.66-.78.53-3.39,3.26-4.07,4.07-.12.15-.31.21-.26.45Z"/><path class="cls-1" d="M51.58,38.46v-19.46c0-.29-.65-.68-.96-.59h-31.17c-.39-.01-.78.13-.91.52l-.05,28c.04,1.88-2.11,1.88-2.08,0,.43-8.82-.55-18.15,0-26.9.1-1.65.55-2.87,2.2-3.49,10.87-.34,21.87-.28,32.74-.03,1.57.53,2.17,1.68,2.29,3.26.4,5.12-.3,10.73,0,15.91-.46,1.01-1.35,1.91-2.08,2.77Z"/><path class="cls-1" d="M14.35,56.69L2.16,20.21c-.54-1.61.37-3.4,1.98-3.91l29.73-9.58c2-.42,3.4.49,4.01,2.4l-2.4-.65c-9.39,2.7-18.78,5.67-28.05,8.79-.57.19-3.07.91-3.28,1.24s-.17.84-.08,1.22l10.28,30.83v6.14Z"/><path class="cls-1" d="M24.14,30.87l21.43-.04c1.55.13,2.24.85,2.38,2.4.11,1.2.15,5.66-.23,6.62s-1.32,1.26-2.29,1.33c-6.76-.41-14.13.53-20.82,0-1.55-.12-2.33-.7-2.5-2.28-.15-1.43-.14-4.23-.01-5.67.12-1.33.65-2.17,2.04-2.36ZM45.89,32.9h-21.72v6.21h21.72v-6.21Z"/><path class="cls-1" d="M36.46,60.96c-.15.65-.5,1.24-.39,1.94h-16.62c-1.22-.07-2.45-.9-2.82-2.09-.34-1.09-.35-4.84-.06-5.96.21-.82,1.49-.82,1.72-.1.5,1.54-.06,3.79.19,5.37.06.35.54.85.83.85h17.13Z"/><path class="cls-1" d="M23.24,44.31l23.11-.04,1.09.33c-1.63.84-3.55.07-5.21.86-.47.22-.96.83-1.44.89-5.57-.36-11.71.46-17.21,0-1.83-.15-1.87-1.8-.35-2.04Z"/><path class="cls-1" d="M40.08,48.55c.08.08-.36,2.15-.83,1.95h-16.16c-1.31-.22-.89-1.95-.27-1.95h17.26Z"/><path class="cls-1" d="M46.53,23.35c-.12-.1-.67-.04-.75.2-.29.88.68,4.42-1.06,4.13-.22-.04-.61-.26-.7-.47-.28-.64.17-3.57-.19-3.82-.19-.13-.56-.16-.67.12-.31.79.15,3.67-.33,3.97-.27.17-1.08.19-1.31-.04-.48-.47-.35-3.79-.09-4.49.38-1.05,1.52-1.46,2.57-1.29.3.05.6.33.78.33.17,0,.54-.26.81-.31,1.72-.29,2.75.68,2.88,2.36.05.66.12,3.05-.32,3.44-.38.34-1.32.23-1.47-.22-.21-.61.2-3.61-.16-3.91Z"/><path class="cls-1" d="M38.91,52.68l-.6,1.95-15.23-.02c-1.31-.21-.89-1.93-.27-1.93h16.1Z"/><path class="cls-1" d="M31.93,14.29c.35-2.52,2.15-4.25,4.75-3.27l9.99,3.27h-6.27c-.58,0-3.13-1.11-3.97-1.33-1.5-.38-2.16-.44-2.43,1.33h-2.07Z"/><path class="cls-1" d="M68,22.95c-.69-.55-1.51-.26-2.23-.42-.15-.03-.32-.2-.51-.26-3.17-.97-6.3-2.07-9.46-3.05-.06-.8-.32-1.47-.59-2.21l11.21,3.59c.85.53,1.59,1.29,1.59,2.35Z"/><path class="cls-1" d="M36.2,26.05c-.06-.06-1.62-.06-1.68,0-.04.04.05.82-.03,1.07-.19.65-1.41.66-1.69.06-.19-.42-.14-3.03-.04-3.6.48-2.73,4.98-2.7,5.25.45.05.54.07,2.77-.1,3.14-.2.43-.94.54-1.33.35-.56-.27-.33-1.43-.39-1.49ZM36.2,24.5s.01-.68-.03-.81c-.18-.63-1.33-.67-1.59-.09-.07.16-.12.85-.07.9.06.06,1.62.06,1.68,0Z"/><path class="cls-1" d="M63.31,36.29c.89-.2,1.53.69,1.08,1.47l-7.12,6.84c-1.03.7-1.99-.61-1.23-1.49l6.79-6.53c.14-.13.29-.25.48-.29Z"/><path class="cls-1" d="M23.62,21.69c.88-.15,1.72-.06,2.43.49.47.36.93.85.51,1.42-.9,1.23-1.55-.84-2.74-.29-.63.29-.58,2.42-.03,2.68,1.19.57,1.54-1.19,2.58-.51,1.37.9-.99,2.29-2.12,2.26-3.45-.09-3.49-5.57-.62-6.05Z"/><path class="cls-1" d="M29.22,26.05h2.39c.57,0,1.15,1.37-.19,1.62-.64.12-3.14.17-3.62-.14-.34-.22-.37-.53-.4-.89-.06-.69-.1-3.97.06-4.47.28-.86,1.75-.48,1.75-.06v3.94Z"/><path class="cls-1" d="M14.35,30.19c-.04.07-.63.06-.66.2-.08.54.66,1.69.66,2.06v5.24c-.35-.15-.48-.55-.62-.87-.44-1.01-2-5.56-1.98-6.44.04-1.59,1.37-1.82,2.59-2.26-.07.34.1,1.92,0,2.07Z"/><path class="cls-1" d="M40.3,27.44c-.58.61-1.51.15-1.63-.69-.12-.8-.11-3.31,0-4.11.16-1.12,1.32-1.44,1.79-.4-.12.84.24,4.78-.16,5.2Z"/><path class="cls-1" d="M58.3,53.33l-2.58,7.5,1.04-7.23c.57.08,1.02-.13,1.55-.26Z"/><path class="cls-1" d="M47.96,62.9l5.17-1.68c.04.7-1.63,1.68-2.13,1.68h-3.04Z"/></svg>