<?xml version="1.0" encoding="UTF-8"?><svg id="Layer_1" xmlns="http://www.w3.org/2000/svg" viewBox="0 0 70 70"><defs><style>.cls-1{fill:#ab0000;}</style></defs><path class="cls-1" d="M58.15,40.99h4.19c.78,0,2.32,1.6,2.32,2.47l.02,17.95c.08,1.19-1.46,2.85-2.6,2.85h-10.71c.15,2.03-.2,3.51-2.46,3.72H7.93c-1.21-.09-2.03-.43-2.53-1.59l-.07-55.42c-.18-.66,1.02-2.06,1.54-2.06h5.25V3.81c0-.94,1.7-1.91,2.59-1.8l34.71.02c.56.11,1.12.17,1.55.58,1.86,2.26,4.83,4.33,6.59,6.58.1.13.6.94.6,1v30.8ZM48.98,4.14H14.12v4.79h29.2c.07,0,.62.37.74.46,2.34,1.82,4.5,4.92,6.85,6.85.17.16.46.83.46,1v23.75h4.79V11.19h-5.92c-.45,0-1.26-.99-1.26-1.4v-5.65ZM54.56,9.2c.06-.23-.1-.27-.2-.4-.48-.63-2.36-2.51-2.99-2.99-.13-.1-.17-.26-.4-.2v3.59h3.59ZM42.19,10.93H7.34v54.94h42.04v-1.6h-11.11c-.09,0-1.04-.34-1.18-.42-1.04-.6-1.47-1.84-1.55-2.97-.41-5.43.31-11.4.02-16.88.13-.95.45-1.89,1.27-2.45.14-.09,1.09-.55,1.17-.55h11.37v-23.01h-6.05c-.38,0-1.13-.88-1.13-1.26v-5.79ZM47.78,15.98l-3.59-3.59v3.59h3.59ZM38.3,43.01c-.59.14-.72.84-.77,1.36.35,5.3-.44,11.14,0,16.37.07.85.29,1.52,1.26,1.53,7.76-.09,15.56.16,23.3-.13.42-.14.61-.57.59-1l-.08-17.63c-.25-.3-.49-.6-.92-.54l-23.39.04Z"/><path class="cls-1" d="M12.76,22.66l30.7-.04c1.9,0,2.07,2.01.13,2.14H13.12c-1.6.08-2.03-1.82-.36-2.1Z"/><path class="cls-1" d="M12.49,37.43l31.24-.03c1.45-.11,1.76,1.83.26,2H12.59c-1.11-.14-1.17-1.65-.1-1.97Z"/><path class="cls-1" d="M44.68,31.77c-.18.18-.69.31-.95.31l-31.34-.07c-.98-.45-.87-1.74.2-1.94h31.27c.93-.09,1.48,1.03.82,1.7Z"/><path class="cls-1" d="M12.49,15.34l21.26-.03c1.36.04,1.59,1.69.27,2H12.59c-1.11-.15-1.17-1.66-.1-1.97Z"/><path class="cls-1" d="M12.35,52.19l17.67-.03c1.29.13,1.13,1.92-.13,2H12.72c-1.13-.12-1.39-1.45-.37-1.97Z"/><path class="cls-1" d="M12.76,44.75l17-.03c1.35-.04,1.64,1.84.27,2H12.59c-1.33-.15-1.09-1.88.17-1.97Z"/><path class="cls-1" d="M12.49,59.51l17.4-.03c1.13.13,1.39,1.29.46,1.93l-17.63.07c-1.25-.15-1.41-1.57-.24-1.97Z"/><path class="cls-1" d="M42.72,52.43c-.12.16.29.5.4.6,1.12,1.04,2.45,1.89,3.52,3,.68.97-.46,2-1.38,1.38-1.31-1.27-2.95-2.34-4.26-3.58-.74-.7-1.34-1.11-.46-2.06.77-.84,3.42-3,4.41-3.7,1.39-.99,2.43.25,1.64,1.24-1.31,1-2.49,2.24-3.86,3.13Z"/><path class="cls-1" d="M54.13,47.67c.34-.08.68-.04.96.18,1.3,1.28,2.95,2.34,4.26,3.58.83.79,1.23,1.16.27,2.13s-3.08,2.71-4.2,3.52c-.45.33-.78.68-1.36.44-.64-.27-.73-.97-.42-1.55l3.97-3.34-4.05-3.53c-.2-.56-.07-1.3.56-1.43Z"/><path class="cls-1" d="M51.34,46.2c.81-.17,1.4.56,1.2,1.34-1.18,3.3-1.6,7.4-2.83,10.61-.56,1.46-2.09.91-2-.27,1.13-3.38,1.64-7.29,2.83-10.61.15-.42.3-.97.8-1.07Z"/></svg>