<?xml version="1.0" encoding="UTF-8"?>
<svg xmlns="http://www.w3.org/2000/svg" version="1.1" viewBox="0 0 200 200">
  <!-- Generator: Adobe Illustrator 29.1.0, SVG Export Plug-In . SVG Version: 2.1.0 Build 142)  -->
  <defs>
    <style>
      .st0 {
        fill: #fff;
      }

      .st1 {
        fill: #ab0000;
      }
    </style>
  </defs>
  <g id="Layer_14">
    <path class="st1" d="M1.6,118.7v-47.4c0-5.8,3.2-9,9-9,13.7,0,27.4,0,41.1,0,1.7,0,2-.4,1.6-2-6.7-27.9,12.9-55.5,41.4-58.5,26.3-2.8,49.7,15.9,52.9,42.1.7,5.5.4,11.1-1.1,16.5-.4,1.5,0,1.9,1.5,1.9,13.6,0,27.3,0,40.9,0s9.4,3,9.4,9.3v94.3c0,6-3,9-9.1,9-21.2,0-42.4,0-63.6,0-1.5,0-2.5.4-3.4,1.5-5,6.1-10.1,12.1-15.2,18.1-4.2,4.9-9.8,5-14,0-5.1-6-10.2-12-15.2-18.1-1-1.2-1.9-1.6-3.4-1.6-21.3,0-42.6,0-64,0-4.6,0-7.7-2.2-8.6-6.1-.2-.9-.2-1.9-.2-2.8v-47.4ZM143.5,49.5c0-24.1-19.6-43.5-43.5-43.5-24,0-43.5,19.6-43.4,43.6,0,24,19.6,43.4,43.6,43.4,23.9,0,43.4-19.7,43.3-43.5ZM187.7,86.1c0-2.9,0-5.8,0-8.7,0-2.2-.8-3-2.9-3-4.7,0-9.3,0-14,0-1.6,0-2.8.5-2.8,2.2,0,1.8,1.2,2.3,2.9,2.3,3.4,0,6.9,0,10.3,0,1.5,0,2,.3,1.9,1.9-.1,4.5,0,9,0,13.6s.8,3.7,2.3,3.5c2.1-.2,2.2-1.8,2.2-3.5,0-2.7,0-5.5,0-8.3ZM183.2,105.7h0c0,.5,0,.9,0,1.4,0,1.4.8,2.4,2.2,2.4,1.4,0,2.2-.9,2.3-2.3,0-1.1,0-2.3-.1-3.4-.2-1.1-1-1.7-2.2-1.7-1.1,0-1.9.7-2.1,1.8,0,.6,0,1.2-.1,1.8Z"/>
  </g>
  <g id="Layer_13">
    <path class="st1" d="M41.7,42.5c1.4-11,5.5-21.1,12.4-29.9.9-1.2,2.1-1.6,3.3-.6,1.3,1,1,2.3.1,3.6-4.7,6.1-8.1,12.8-10,20.3-.6,2.4-1,4.9-1.4,7.3-.2,1.5-1,2.4-2.5,2.2-1.6-.2-2-1.3-1.9-2.9Z"/>
  </g>
  <g id="Layer_12">
    <path class="st1" d="M32.2,187c-4,0-8,0-11.9,0-1.6,0-2.9-.5-2.9-2.3,0-1.7,1.3-2.2,2.8-2.2,8,0,16,0,24,0,1.6,0,2.9.5,2.9,2.3,0,1.7-1.2,2.2-2.8,2.2-4,0-8.1,0-12.1,0Z"/>
  </g>
  <g id="Layer_11">
    <path class="st1" d="M61.8,9.3c-.2,0-.6-.1-.9-.3-1.2-.9-1.4-2.1-.4-3.3,1.7-2.3,3.8-3,5-1.7,1.1,1,.9,2.3-.4,3.6-.9.8-1.6,1.8-3.2,1.8Z"/>
  </g>
  <g id="Layer_10">
    <path class="st1" d="M56.4,187c-1.4,0-2.8,0-3.1-1.9-.1-.8.1-1.7.9-2.1,1.6-.8,3.3-.7,4.8-.1.8.3,1.1,1.1,1.1,2,0,1.5-1.2,2.2-3.8,2.1Z"/>
  </g>
  <g id="Layer_9">
    <path class="st1" d="M100.1,69.5c-6.6-.2-11.7-4.3-13.3-10.2-.2-.8-.3-1.6-.3-2.4,0-1,.6-1.6,1.6-1.9,1-.2,1.9,0,2.4,1,.3.5.4,1,.5,1.5,1,4.4,4.5,7.4,8.9,7.4,4.3,0,8-3,8.9-7.3,0-.1,0-.3,0-.4.3-1.4,1-2.4,2.6-2.2,1.7.3,2,1.5,1.8,3-.6,5.3-5.4,10.2-10.8,11.1-1,.2-1.9.3-2.4.3Z"/>
  </g>
  <g id="Layer_8">
    <path class="st1" d="M89.5,36.3c0,3.9-3.2,7.2-7.2,7.2-3.9,0-7.2-3.2-7.3-7.1,0-4,3.3-7.3,7.3-7.3,3.9,0,7.1,3.3,7.2,7.2Z"/>
  </g>
  <g id="Layer_7">
    <path class="st1" d="M110.5,36.2c0-3.9,3.3-7.1,7.3-7.1,3.9,0,7.2,3.3,7.2,7.2s-3.5,7.3-7.4,7.2c-4-.1-7.1-3.4-7.1-7.3Z"/>
  </g>
  <g id="Layer_6">
    <path class="st0" d="M19.7,129.8l3.1,9.5c0,.2.2.3.4.3h10c.4,0,.6.5.3.8l-8.1,5.9c-.2.1-.2.3-.2.5l3.1,9.5c.1.4-.3.7-.7.5l-8.1-5.9c-.2-.1-.4-.1-.5,0l-8.1,5.9c-.3.2-.8,0-.7-.5l3.1-9.5c0-.2,0-.4-.2-.5l-8.1-5.9c-.3-.2-.2-.8.3-.8h10c.2,0,.3-.1.4-.3l3.1-9.5c.1-.4.7-.4.8,0Z"/>
  </g>
  <g id="Layer_5">
    <path class="st0" d="M56,123.1l4,12.4c0,.3.4.5.7.5h13.1c.7,0,1,.9.4,1.3l-10.6,7.7c-.3.2-.4.5-.3.8l4,12.4c.2.7-.6,1.2-1.1.8l-10.6-7.7c-.3-.2-.6-.2-.9,0l-10.6,7.7c-.6.4-1.4-.1-1.1-.8l4-12.4c0-.3,0-.6-.3-.8l-10.6-7.7c-.6-.4-.3-1.3.4-1.3h13.1c.3,0,.6-.2.7-.5l4-12.4c.2-.7,1.2-.7,1.4,0Z"/>
  </g>
  <g id="Layer_4">
    <path class="st0" d="M101.2,117.5l4.7,14.5c.2.5.6.8,1.2.8h15.2c1.2,0,1.7,1.5.7,2.2l-12.3,8.9c-.4.3-.6.9-.4,1.4l4.7,14.5c.4,1.1-.9,2.1-1.9,1.4l-12.3-8.9c-.4-.3-1-.3-1.4,0l-12.3,8.9c-1,.7-2.2-.2-1.9-1.4l4.7-14.5c.2-.5,0-1.1-.4-1.4l-12.3-8.9c-1-.7-.5-2.2.7-2.2h15.2c.5,0,1-.3,1.2-.8l4.7-14.5c.4-1.1,2-1.1,2.3,0Z"/>
  </g>
  <g id="Layer_3">
    <path class="st0" d="M145.4,123.1l4,12.4c0,.3.4.5.7.5h13.1c.7,0,1,.9.4,1.3l-10.6,7.7c-.3.2-.4.5-.3.8l4,12.4c.2.7-.6,1.2-1.1.8l-10.6-7.7c-.3-.2-.6-.2-.9,0l-10.6,7.7c-.6.4-1.4-.1-1.1-.8l4-12.4c0-.3,0-.6-.3-.8l-10.6-7.7c-.6-.4-.3-1.3.4-1.3h13.1c.3,0,.6-.2.7-.5l4-12.4c.2-.7,1.2-.7,1.4,0Z"/>
  </g>
  <g id="Layer_2">
    <path class="st0" d="M181.1,129.8l3.1,9.5c0,.2.2.3.4.3h10c.4,0,.6.5.3.8l-8.1,5.9c-.2.1-.2.3-.2.5l3.1,9.5c.1.4-.3.7-.7.5l-8.1-5.9c-.2-.1-.4-.1-.5,0l-8.1,5.9c-.3.2-.8,0-.7-.5l3.1-9.5c0-.2,0-.4-.2-.5l-8.1-5.9c-.3-.2-.2-.8.3-.8h10c.2,0,.3-.1.4-.3l3.1-9.5c.1-.4.7-.4.8,0Z"/>
  </g>
</svg>