<svg width="70" height="70" viewBox="0 0 70 70" fill="none" xmlns="http://www.w3.org/2000/svg">
<path d="M70 31.1702C69.7071 32.1915 69.8786 33.2486 69.7571 34.2914C69.0643 40.3624 66.8359 45.8049 62.9504 50.5046C57.4865 57.0971 50.4798 60.954 41.9089 61.7825C36.1807 62.3396 30.7025 61.4111 25.51 58.8827C24.8886 58.5827 24.5386 58.147 24.3101 57.5042C23.0459 53.9473 21.146 50.8046 18.1319 48.4262C17.4391 47.8762 17.4534 47.5905 18.1462 47.0477C19.339 46.1049 19.3675 46.0835 20.3675 47.212C24.4458 51.8117 29.5169 54.6115 35.6093 55.4043C42.8803 56.3543 49.387 54.4758 54.9867 49.6975C60.1792 45.2621 63.0576 39.5768 63.5433 32.7915C64.0289 26.0134 62.0433 19.9566 57.5436 14.8141C53.1225 9.75726 47.53 6.9503 40.8376 6.43605C34.1166 5.91465 28.1384 7.85738 22.9816 12.1857C19.2175 15.3426 16.6891 19.3424 15.3321 24.0635C15.1392 24.742 14.8321 25.0563 14.1036 25.042C12.6037 25.0063 11.0966 25.042 9.59673 25.0277C8.74679 25.0206 8.61822 24.8563 8.81107 24.0421C10.3395 17.5139 13.6536 12.0571 18.7033 7.6574C23.4458 3.49338 28.9598 1.00783 35.2094 0.243589C42.3303 -0.627784 48.9871 0.84355 55.1152 4.57902C59.9292 7.51455 63.6718 11.5 66.3145 16.4711C68.5144 20.6066 69.7714 25.0277 69.8643 29.7488C69.8714 30.0917 69.8714 30.4345 70 30.7559C70 30.8916 70 31.0273 70 31.1702Z" fill="#AB0000"/>
<path d="M13.1251 69.1535C9.43247 69.1535 5.747 69.1535 2.05438 69.1535C0.3902 69.1535 -0.452603 67.7965 0.247352 66.2609C0.425912 65.8609 0.725892 65.5895 1.15444 65.5038C1.61155 65.4181 1.79011 65.1395 1.83296 64.6967C1.96867 63.3825 2.08295 62.0683 2.36864 60.7755C3.26144 56.7972 4.96848 53.2545 7.86115 50.3404C8.51825 49.6762 9.28248 49.1334 10.0753 48.6334C11.0467 48.0263 11.0538 47.4478 10.111 46.8478C6.65408 44.6622 4.63278 41.391 3.24002 37.6698C2.49006 35.6771 2.06152 33.6058 1.93296 31.4774C1.8901 30.7489 1.79725 30.1203 0.911595 29.8489C0.21164 29.6346 -0.0669136 28.649 0.111646 27.6562C0.268779 26.7777 0.697323 26.3634 1.56155 26.2849C1.81154 26.2634 2.06152 26.2634 2.3115 26.2634C9.55389 26.2634 16.7963 26.2634 24.0387 26.2634C24.1315 26.2634 24.2244 26.2634 24.3101 26.2634C25.9957 26.292 26.8171 27.6562 26.0814 29.1918C25.8957 29.5846 25.5886 29.8561 25.1743 29.9703C24.6743 30.106 24.5029 30.4274 24.4672 30.9203C24.2744 33.4058 23.8315 35.8414 22.9102 38.1698C21.4817 41.7624 19.4104 44.8551 16.0606 46.9478C15.3749 47.3764 15.3321 47.9977 15.9749 48.412C20.9746 51.6547 23.1959 56.5543 24.2029 62.1683C24.3529 62.9968 24.4101 63.8396 24.4815 64.6824C24.5172 65.1252 24.6743 65.3752 25.1315 65.5038C26.0671 65.7609 26.4028 66.4823 26.2314 67.7536C26.11 68.6607 25.5814 69.1464 24.6029 69.1464C20.7746 69.1535 16.9534 69.1464 13.1251 69.1535ZM13.1465 30.0632C10.2538 30.0632 7.36118 30.056 4.46851 30.0632C3.56142 30.0632 3.39715 30.2703 3.48286 31.1703C3.68999 33.4273 4.13996 35.6343 4.99705 37.7341C6.31839 40.9839 8.16113 43.8052 11.2538 45.6907C12.968 46.7335 12.868 48.7048 11.1109 49.7905C9.18249 50.9761 7.71116 52.5903 6.54695 54.4973C4.71849 57.49 3.7757 60.7683 3.47572 64.2467C3.37572 65.2895 3.54714 65.468 4.58279 65.468C10.2538 65.468 15.9249 65.468 21.596 65.468C22.803 65.468 22.9316 65.3538 22.853 64.1253C22.703 61.8326 22.1745 59.6256 21.3031 57.5043C19.9889 54.2973 18.1105 51.5475 15.075 49.6905C13.5108 48.7406 13.5394 46.7407 15.0607 45.7265C15.7392 45.2693 16.4535 44.8622 17.0534 44.2908C20.7675 40.7268 22.4031 36.2414 22.853 31.2345C22.9459 30.206 22.7602 30.0703 21.6888 30.0703C18.839 30.0632 15.9892 30.0632 13.1465 30.0632Z" fill="#AB0000"/>
<path d="M40.209 23.585C40.209 24.8849 40.2162 26.1777 40.2019 27.4776C40.1947 28.0133 40.3447 28.4275 40.8018 28.7704C41.5661 29.3418 41.9232 30.1631 41.8232 31.1059C41.7232 32.0487 41.5 33.7236 39.0805 33.8772C37.7306 33.9629 36.7378 33.2915 36.2379 32.0773C35.7665 30.9488 35.995 29.806 36.9592 28.9061C37.4592 28.4418 37.6306 27.9347 37.6235 27.2776C37.6021 24.9135 37.6163 22.5422 37.6163 20.1781C37.6163 19.7924 37.6163 19.4067 37.7306 19.0281C37.9449 18.3425 38.4163 17.9568 39.002 18.0068C39.6662 18.0568 40.1519 18.5425 40.1733 19.2853C40.209 20.4209 40.1876 21.5637 40.1947 22.6993C40.209 22.9922 40.209 23.285 40.209 23.585Z" fill="#AB0000"/>
<path d="M40.8018 28.7703C41.5661 29.3417 41.9232 30.163 41.8232 31.1058C41.7518 31.7986 42.0089 32.2558 42.4803 32.72C45.2516 35.4556 47.9942 38.2197 50.7441 40.9695C51.0155 41.2409 51.3012 41.5052 51.4726 41.8623C51.7226 42.3837 51.7083 42.8979 51.2797 43.3122C50.8441 43.7336 50.3298 43.8193 49.7727 43.5265C49.4442 43.355 49.1942 43.0908 48.9299 42.8336C46.1586 40.0624 43.3874 37.3054 40.6304 34.5199C40.1805 34.0699 39.7448 33.8342 39.0805 33.8771C37.7306 33.9628 36.7378 33.2914 36.2379 32.0772C35.7665 30.9487 35.995 29.8059 36.9592 28.906C38 28 39.3616 27.6935 40.8018 28.7703Z" fill="#AB0000"/>
<path d="M58.6579 30.5059C59.4293 30.5059 60.2006 30.4987 60.972 30.513C61.272 30.5202 61.622 30.5773 61.6363 30.9487C61.6577 31.3915 61.2577 31.4201 60.9506 31.4201C59.365 31.4344 57.7722 31.4273 56.1866 31.4201C55.8938 31.4201 55.5295 31.3701 55.5152 30.9916C55.5009 30.5559 55.8866 30.5202 56.2009 30.513C57.0294 30.4916 57.8436 30.5059 58.6579 30.5059Z" fill="#AB0000"/>
<path d="M39.3734 11.35C39.3734 12.1428 39.3805 12.9356 39.3663 13.7355C39.3591 14.0284 39.3377 14.3855 38.9306 14.3783C38.5592 14.3712 38.4663 14.0426 38.4592 13.7355C38.4449 12.1499 38.4449 10.5571 38.4592 8.97153C38.4592 8.66441 38.552 8.33586 38.9234 8.32872C39.3306 8.32158 39.3591 8.6787 39.3591 8.97153C39.3877 9.76434 39.3734 10.5571 39.3734 11.35Z" fill="#AB0000"/>
<path d="M39.3734 50.6403C39.3734 51.4117 39.3806 52.1831 39.3663 52.9545C39.3591 53.2473 39.3377 53.5973 38.9306 53.5973C38.5949 53.5973 38.4735 53.3044 38.4735 53.0187C38.4592 51.3831 38.4592 49.7547 38.4735 48.1191C38.4735 47.8334 38.602 47.5405 38.9377 47.5405C39.3448 47.5405 39.3663 47.8905 39.3734 48.1833C39.3877 49.0047 39.3734 49.8261 39.3734 50.6403Z" fill="#AB0000"/>
<path d="M25.4743 44.9764C25.4386 45.055 25.4029 45.1907 25.31 45.2835C24.7386 45.8621 24.1601 46.4406 23.5744 47.0048C23.403 47.1691 23.1673 47.2548 22.9602 47.0691C22.7316 46.8691 22.7602 46.6049 22.9388 46.3977C23.4816 45.7549 24.0601 45.1478 24.7172 44.6264C25.0458 44.3622 25.46 44.555 25.4743 44.9764Z" fill="#AB0000"/>
<path d="M52.8725 17.4926C52.5154 17.4212 52.3297 17.164 52.5083 16.8998C53.0582 16.0998 53.7368 15.407 54.5581 14.8713C54.6938 14.7856 54.8724 14.8285 55.001 14.9499C55.151 15.0999 55.1652 15.2927 55.051 15.4499C54.501 16.207 53.8296 16.8355 53.1082 17.4212C53.044 17.4712 52.9368 17.4712 52.8725 17.4926Z" fill="#AB0000"/>
<path d="M46.4515 13.1857C46.1444 13.1571 46.0015 12.95 46.0944 12.6714C46.3658 11.8286 46.6658 10.993 47.1086 10.2216C47.2158 10.0359 47.3943 9.90017 47.6229 10.0002C47.88 10.1073 47.93 10.343 47.8586 10.5716C47.6157 11.3786 47.2729 12.15 46.9015 12.9C46.8158 13.0714 46.6658 13.1785 46.4515 13.1857Z" fill="#AB0000"/>
<path d="M18.589 22.0921C19.3676 22.3421 20.2104 22.6706 20.996 23.1206C21.1603 23.2134 21.2603 23.3777 21.1889 23.5848C21.1174 23.7848 20.9389 23.8848 20.7603 23.842C19.8318 23.6205 18.9604 23.2634 18.1319 22.792C17.9676 22.6992 17.8891 22.5135 17.9819 22.3206C18.0819 22.1064 18.2819 22.0706 18.589 22.0921Z" fill="#AB0000"/>
<path d="M30.0597 51.3403C30.3311 50.6117 30.6026 49.7904 31.024 49.0404C31.1382 48.8333 31.3311 48.6762 31.5882 48.7904C31.8096 48.8904 31.8525 49.1118 31.7953 49.3118C31.5525 50.1618 31.2239 50.976 30.7811 51.7474C30.674 51.9331 30.474 52.0331 30.2526 51.9402C30.0312 51.8474 30.024 51.6331 30.0597 51.3403Z" fill="#AB0000"/>
<path d="M47.8943 51.3902C47.8943 51.6973 47.83 51.8616 47.63 51.933C47.43 52.0045 47.2515 51.9187 47.1515 51.7616C46.6729 50.9831 46.3372 50.1403 46.0801 49.2689C46.0158 49.0546 46.1158 48.8618 46.3444 48.7761C46.5372 48.7047 46.7301 48.7618 46.8301 48.9261C47.3086 49.7332 47.5443 50.6403 47.8943 51.3902Z" fill="#AB0000"/>
<path d="M30.0383 10.5501C30.0454 10.243 30.1097 10.0573 30.3454 9.98588C30.5811 9.91445 30.7597 10.0502 30.8454 10.243C31.1739 11.0144 31.4953 11.7929 31.7953 12.5714C31.8667 12.7643 31.831 12.9928 31.6168 13.1071C31.4025 13.2285 31.1882 13.15 31.0811 12.9643C30.6168 12.1857 30.3026 11.3358 30.0383 10.5501Z" fill="#AB0000"/>
<path d="M59.3364 22.078C59.6221 22.0708 59.8006 22.1066 59.8864 22.2923C59.9864 22.5137 59.9006 22.7208 59.7078 22.8208C58.9364 23.2493 58.1079 23.5707 57.2651 23.8279C57.058 23.8922 56.858 23.7922 56.758 23.5779C56.6723 23.3779 56.7437 23.1993 56.9151 23.1065C57.7151 22.6708 58.5579 22.3423 59.3364 22.078Z" fill="#AB0000"/>
<path d="M59.3935 39.9054C58.615 39.5983 57.7079 39.3483 56.9223 38.8412C56.7366 38.7198 56.658 38.5198 56.7723 38.3055C56.8723 38.1198 57.058 38.0556 57.2437 38.1127C58.1079 38.3841 58.9507 38.7341 59.7435 39.1626C59.9149 39.2555 59.9721 39.4483 59.9078 39.6412C59.8435 39.8412 59.6935 39.9197 59.3935 39.9054Z" fill="#AB0000"/>
<path d="M52.8225 44.5122C52.8654 44.5193 52.8868 44.5193 52.9154 44.5265C53.2868 44.5836 55.0081 46.2335 55.101 46.6192C55.1438 46.7835 55.1367 46.9406 54.9938 47.0549C54.8581 47.162 54.6796 47.1906 54.5439 47.0906C53.7725 46.5264 53.094 45.8478 52.5297 45.0836C52.3369 44.8122 52.4726 44.5551 52.8225 44.5122Z" fill="#AB0000"/>
<path d="M24.9815 17.471C24.9101 17.4282 24.7672 17.3853 24.6744 17.2996C24.103 16.7425 23.5387 16.1854 22.9888 15.6069C22.8102 15.4212 22.6959 15.164 22.9459 14.9426C23.153 14.7569 23.3887 14.8569 23.5601 15.0212C24.153 15.5926 24.7315 16.1711 25.3029 16.7568C25.4529 16.9139 25.5243 17.1068 25.3886 17.3139C25.3029 17.4425 25.1815 17.4925 24.9815 17.471Z" fill="#AB0000"/>
<path d="M13.3108 44.2837C11.6466 44.2908 10.4681 43.5766 9.41819 42.6409C7.56831 40.991 6.4541 38.9197 6.01841 36.4842C5.87556 35.6914 6.02555 35.5699 6.78979 35.8199C8.21827 36.2842 9.66103 36.677 11.1681 36.827C12.2823 36.9413 13.3465 36.7984 14.3822 36.3913C15.3178 36.027 16.232 35.6199 17.1677 35.2628C18.0248 34.9343 18.9033 34.7271 19.8318 34.7414C20.2246 34.7486 20.5103 34.8914 20.4603 35.3485C20.1104 38.9911 18.5819 41.9124 15.3035 43.7623C14.625 44.1337 13.9036 44.3122 13.3108 44.2837Z" fill="#AB0000"/>
<path d="M13.1679 63.5467C10.7967 63.5467 8.43253 63.5539 6.06126 63.5467C5.20417 63.5467 5.10418 63.4039 5.4113 62.6325C6.71122 59.347 9.06107 57.2686 12.6108 56.9472C15.6678 56.6757 18.0533 58.1042 19.8389 60.5612C20.3103 61.2112 20.6746 61.9183 20.9317 62.6754C21.1746 63.3896 21.0889 63.5396 20.3318 63.5396C17.9462 63.5539 15.5606 63.5467 13.1679 63.5467Z" fill="#AB0000"/>
</svg>
