<svg width="70" height="70" viewBox="0 0 70 70" fill="none" xmlns="http://www.w3.org/2000/svg">
<path d="M32.7603 70C31.4102 69.4071 30.8388 68.3786 30.9602 66.9143C30.9888 66.5571 31.0388 66.3928 31.446 66.3928C34.3317 66.4071 37.2246 66.4071 40.1103 66.3928C40.4532 66.3928 40.5603 66.4928 40.596 66.85C40.7317 68.3357 40.1817 69.4 38.7817 69.9928C36.7817 70 34.7674 70 32.7603 70Z" fill="#AB0000"/>
<path d="M35.4246 60.3786C34.0174 60.3286 32.2745 60.4929 30.546 60.3072C28.7531 60.1072 27.4888 58.7929 27.4031 56.9857C27.3174 55.1428 27.3888 53.2857 27.2959 51.4428C27.1816 49.2785 26.1531 47.5714 24.403 46.3285C22.5745 45.0356 20.8102 43.6713 19.353 41.9499C16.7387 38.8642 15.003 35.357 14.4387 31.357C13.1958 22.5712 16.203 15.464 23.2888 10.1782C26.9745 7.42822 31.2388 6.18535 35.8531 6.21392C36.0246 6.21392 36.2889 6.12821 36.3603 6.30678C36.4389 6.50678 36.1603 6.55678 36.0388 6.67107C35.3817 7.27107 35.3031 7.85679 35.846 8.59965C36.6674 9.72109 37.5103 10.8354 38.3532 11.9425C38.7174 12.4211 38.9674 12.914 38.6246 13.514C38.2674 14.1283 37.696 14.1783 37.0746 14.0926C35.7174 13.8925 34.3674 13.6997 33.0103 13.4997C32.0531 13.3568 31.5031 13.7068 31.3602 14.6711C31.0031 16.9711 30.6817 19.2712 30.3674 21.5783C30.2602 22.3498 30.7031 22.8926 31.5031 23.014C32.7888 23.214 34.0745 23.3855 35.3603 23.5712C35.5603 23.5998 35.7674 23.6355 35.9674 23.6641C36.5103 23.7569 36.9031 24.0283 37.0317 24.5926C37.1531 25.1426 36.9389 25.5784 36.5031 25.9069C35.3888 26.7426 34.2746 27.5784 33.1603 28.4141C32.1817 29.1498 32.1031 29.7141 32.8531 30.7141C34.1245 32.4141 35.396 34.107 36.6746 35.807C37.3889 36.757 37.9674 36.8427 38.9246 36.1356C40.0032 35.3284 41.0817 34.5213 42.1532 33.7141C42.6175 33.3641 43.1032 33.157 43.6675 33.4641C44.2603 33.7927 44.3461 34.3356 44.2675 34.9427C44.0746 36.3213 43.8746 37.6999 43.6818 39.0713C43.546 40.057 43.8746 40.5856 44.8318 40.7213C47.2675 41.0785 49.6889 41.5142 52.1461 41.7213C52.2104 41.7285 52.2747 41.7285 52.339 41.7285C52.289 41.8213 52.2604 41.9285 52.189 42.007C51.0604 43.3071 49.8104 44.4642 48.4104 45.4642C47.5746 46.0571 46.6889 46.5928 46.0103 47.3785C44.7961 48.7857 44.2103 50.4214 44.2246 52.2785C44.2318 53.6714 44.2389 55.0643 44.2246 56.4571C44.1889 58.9 42.7103 60.3643 40.2746 60.3857C38.7603 60.3929 37.2531 60.3786 35.4246 60.3786ZM35.7531 50.7285C36.0531 50.7285 36.346 50.7214 36.646 50.7285C36.9174 50.7357 36.9889 50.6071 36.9746 50.3428C36.8603 48.2857 36.2246 46.4214 35.0031 44.7571C33.7103 42.9785 31.9174 41.9213 29.9388 41.0642C23.9388 38.457 20.4744 32.0641 21.5316 25.6069C22.1887 21.5855 24.1959 18.3854 27.5388 16.0354C27.9531 15.7497 28.1174 15.5283 27.7531 15.0854C27.4959 14.7711 27.2888 14.4068 27.0959 14.0426C26.8959 13.6568 26.7102 13.664 26.3602 13.8926C18.0316 19.314 16.4458 31.5784 23.103 38.9642C25.0531 41.1285 27.4316 42.6142 30.0745 43.7785C32.596 44.8928 34.0245 46.9285 34.5031 49.6285C34.6888 50.7285 34.6746 50.7285 35.7531 50.7285ZM36.996 54.9214C36.996 54.4857 36.9817 54.0571 37.0031 53.6214C37.0174 53.2857 36.9317 53.1143 36.5531 53.1357C36.0531 53.1643 35.5531 53.1643 35.0531 53.1357C34.646 53.1143 34.5531 53.2857 34.5674 53.6571C34.5888 54.5 34.6031 55.3429 34.5603 56.1857C34.5388 56.6572 34.7317 56.7786 35.1531 56.75C35.5817 56.7214 36.0174 56.7214 36.4531 56.75C36.8531 56.7714 37.0389 56.6571 37.0103 56.2214C36.9674 55.7929 36.996 55.3571 36.996 54.9214Z" fill="#AB0000"/>
<path d="M59.1676 11.0067C59.9676 11.0424 60.7319 10.7281 61.4319 10.2067C62.1962 9.63528 62.9819 9.07813 63.7247 8.47813C64.039 8.22813 64.1962 8.27813 64.4176 8.58527C65.1676 9.62099 65.9248 10.6496 66.7248 11.6496C67.0176 12.0139 66.8891 12.1639 66.5819 12.3853C65.839 12.9139 65.1105 13.471 64.389 14.021C63.0176 15.071 62.4819 16.4782 62.8819 17.9782C63.2819 19.4925 64.4747 20.4639 66.2105 20.6925C67.1176 20.8139 68.0176 20.9639 68.9176 21.0782C69.2319 21.1139 69.3391 21.2068 69.2891 21.5497C69.0891 22.8139 68.9176 24.0782 68.7462 25.3425C68.6962 25.7354 68.6034 25.9354 68.1105 25.8354C67.1533 25.6425 66.1748 25.5211 65.2033 25.414C63.689 25.2425 62.439 25.7711 61.6247 27.0711C60.8319 28.3426 60.8319 29.6783 61.6604 30.9426C62.2605 31.8569 62.939 32.7212 63.6105 33.5855C63.8605 33.8997 63.8105 34.0569 63.5033 34.2783C62.4676 35.0283 61.439 35.7855 60.439 36.5855C60.0747 36.8712 59.9247 36.7569 59.7033 36.4426C59.1747 35.6998 58.6176 34.9712 58.0676 34.2497C57.0176 32.8783 55.6033 32.3426 54.1104 32.7426C52.5889 33.1497 51.6247 34.3426 51.3961 36.0712C51.2747 36.9783 51.1246 37.8783 51.0104 38.7783C50.9746 39.0926 50.8818 39.1998 50.5389 39.1498C49.2532 38.9426 47.9675 38.7641 46.6818 38.5998C46.2675 38.5498 46.1675 38.4069 46.2389 37.9855C46.4175 37.0212 46.5389 36.0498 46.6603 35.0712C46.846 33.5497 46.3246 32.3069 45.0318 31.4854C43.7675 30.6783 42.4246 30.6711 41.1603 31.4997C40.2246 32.1069 39.3388 32.7997 38.4603 33.4855C38.146 33.7355 38.0103 33.614 37.8246 33.3569C37.0531 32.3069 36.2817 31.264 35.4817 30.2354C35.246 29.9354 35.3174 29.7926 35.596 29.5926C36.3745 29.0283 37.1388 28.4568 37.896 27.8711C39.2531 26.8283 39.7889 25.3925 39.3389 23.8997C38.8603 22.3068 37.7174 21.4782 36.1031 21.2568C35.2031 21.1282 34.3031 20.9782 33.3959 20.8711C33.0174 20.8282 32.8888 20.7354 32.9602 20.3282C33.1602 19.1139 33.3317 17.8925 33.4745 16.671C33.5388 16.1353 33.7317 16.0496 34.2602 16.1139C35.5674 16.271 36.8531 16.7139 38.1888 16.4853C40.696 16.0639 41.996 13.2853 40.6674 11.121C40.0746 10.1496 39.346 9.26385 38.6531 8.3567C38.4103 8.04955 38.4388 7.89241 38.7531 7.66384C39.7889 6.91383 40.8174 6.15668 41.8174 5.36382C42.1817 5.07096 42.3317 5.19953 42.5532 5.50668C43.096 6.27097 43.6603 7.01383 44.2317 7.75669C45.2318 9.0567 46.5246 9.60671 48.1389 9.20671C49.6318 8.84242 50.6175 7.62098 50.8461 5.94954C50.9675 5.04239 51.1247 4.14238 51.2247 3.24238C51.2675 2.87095 51.3604 2.73523 51.7675 2.80666C52.9818 3.00666 54.2032 3.17095 55.4247 3.32809C55.8675 3.38523 56.1104 3.47809 55.9818 4.04238C55.7747 4.99953 55.6747 5.97811 55.5533 6.94955C55.289 9.1067 56.9104 10.971 59.1676 11.0067ZM51.1389 13.7282C47.2103 13.7139 43.8889 17.0139 43.8817 20.9496C43.8746 24.8711 47.1961 28.1997 51.1247 28.1926C55.0247 28.1854 58.3176 24.9068 58.3461 20.9996C58.3819 17.0853 55.0747 13.7425 51.1389 13.7282Z" fill="#AB0000"/>
<path d="M21.3047 35.4227C21.8325 35.4463 22.3368 35.2389 22.7987 34.8948C23.303 34.5178 23.8215 34.1502 24.3116 33.7543C24.519 33.5893 24.6227 33.6223 24.7688 33.825C25.2637 34.5084 25.7633 35.1871 26.2911 35.8469C26.4844 36.0873 26.3995 36.1862 26.1969 36.3323C25.7067 36.6811 25.226 37.0487 24.7499 37.4116C23.845 38.1045 23.4915 39.0329 23.7555 40.0227C24.0194 41.0219 24.8065 41.6628 25.9518 41.8137C26.5503 41.8938 27.1442 41.9927 27.738 42.0682C27.9454 42.0917 28.0161 42.153 27.9831 42.3792C27.8512 43.2134 27.738 44.0477 27.6249 44.8819C27.5919 45.1411 27.5307 45.2731 27.2055 45.2071C26.5739 45.0798 25.9282 44.9997 25.2872 44.929C24.2881 44.8159 23.4633 45.1647 22.926 46.0224C22.4028 46.8614 22.4028 47.7427 22.9495 48.5769C23.3454 49.1802 23.7932 49.7505 24.2362 50.3208C24.4012 50.5281 24.3682 50.6318 24.1655 50.7779C23.4821 51.2728 22.8034 51.7724 22.1436 52.3003C21.9032 52.4888 21.8043 52.4134 21.6582 52.206C21.3094 51.7158 20.9418 51.2351 20.5789 50.7591C19.886 49.8542 18.9529 49.5007 17.9678 49.7646C16.9639 50.0333 16.3277 50.8204 16.1768 51.9609C16.0967 52.5595 15.9977 53.1533 15.9223 53.7472C15.8988 53.9545 15.8375 54.0252 15.6113 53.9923C14.7629 53.8556 13.9146 53.7377 13.0662 53.6293C12.7929 53.5964 12.7269 53.5021 12.774 53.224C12.8918 52.5878 12.972 51.9468 13.0521 51.3011C13.1746 50.2972 12.8306 49.4771 11.9775 48.9351C11.1433 48.4025 10.2572 48.3978 9.423 48.9445C8.80559 49.3452 8.22116 49.8023 7.64145 50.2548C7.43408 50.4197 7.34453 50.3396 7.22199 50.1699C6.71298 49.4771 6.20396 48.789 5.6761 48.1103C5.52057 47.9124 5.5677 47.8181 5.75151 47.6862C6.26523 47.3138 6.76953 46.9368 7.26912 46.5503C8.16461 45.8622 8.51809 44.9149 8.22116 43.9298C7.90539 42.8788 7.15129 42.3321 6.08614 42.186C5.49229 42.1011 4.89844 42.0022 4.29988 41.9315C4.05008 41.9032 3.96525 41.8419 4.01238 41.5733C4.14435 40.7721 4.25746 39.9661 4.35172 39.1602C4.39414 38.8067 4.52139 38.7501 4.87016 38.7926C5.73266 38.8963 6.58101 39.1885 7.46236 39.0376C9.11665 38.7596 9.97443 36.9262 9.0978 35.4981C8.70661 34.8571 8.22588 34.2727 7.76871 33.6742C7.60846 33.4715 7.62731 33.3678 7.83469 33.217C8.51809 32.7221 9.19677 32.2225 9.8566 31.6994C10.097 31.5061 10.1959 31.591 10.3421 31.7936C10.7002 32.2979 11.0726 32.7881 11.4496 33.2783C12.1095 34.136 12.9625 34.4989 14.0277 34.235C15.0127 33.9946 15.6631 33.1887 15.8139 32.0859C15.8941 31.4873 15.9977 30.8934 16.0637 30.2996C16.092 30.0545 16.1533 29.965 16.4219 30.0121C17.2232 30.1441 18.0291 30.2525 18.835 30.3561C19.1272 30.3939 19.2875 30.4551 19.2026 30.8275C19.066 31.459 19 32.1047 18.9199 32.7457C18.7455 34.169 19.8153 35.3991 21.3047 35.4227ZM16.0072 37.2184C13.415 37.209 11.2234 39.3864 11.2187 41.9833C11.214 44.5708 13.4056 46.7671 15.9977 46.7624C18.5711 46.7577 20.7438 44.5944 20.7627 42.0163C20.7862 39.4335 18.6041 37.2278 16.0072 37.2184Z" fill="#AB0000"/>
<path d="M4.06003 6.49243C4.15289 6.55672 4.26717 6.63529 4.38146 6.71386C6.92434 8.52816 9.46007 10.3496 12.0172 12.1568C12.3458 12.3853 12.3672 12.5496 12.1244 12.8425C11.7387 13.3139 11.4601 14.1068 10.9958 14.2353C10.5029 14.3711 9.98864 13.6639 9.48864 13.3139C7.34577 11.7996 5.22432 10.2567 3.07431 8.75673C2.63859 8.44245 2.61002 8.2353 2.93859 7.85673C3.23859 7.51387 3.47431 7.11386 3.74574 6.74958C3.81717 6.64243 3.86003 6.49243 4.06003 6.49243Z" fill="#AB0000"/>
<path d="M9.92436 18.3354C10.1672 18.2783 10.2315 18.414 10.3029 18.614C10.9958 20.5426 11.0029 20.5426 9.01721 21.0426C6.61005 21.6497 4.19575 22.2283 1.79573 22.864C1.25287 23.0069 1.06715 22.8426 0.995725 22.3497C0.967153 22.1283 0.895724 21.9069 0.838581 21.6854C0.588579 20.6569 0.588579 20.664 1.5743 20.4211C4.22432 19.764 6.88148 19.0997 9.5315 18.4354C9.66007 18.3997 9.78865 18.3711 9.92436 18.3354Z" fill="#AB0000"/>
<path d="M15.5387 10.0496C15.353 10.1067 15.303 9.89242 15.2458 9.69242C14.503 6.75668 13.7601 3.82095 12.9958 0.885213C12.9101 0.570925 12.9458 0.428067 13.2815 0.370923C13.5744 0.320923 13.853 0.220922 14.1387 0.149493C15.2244 -0.121937 15.2173 -0.121937 15.503 0.9995C16.1601 3.57809 16.7958 6.17097 17.503 8.73527C17.6887 9.4067 17.503 9.62099 16.8958 9.72099C16.4816 9.78528 16.0673 9.92099 15.5387 10.0496Z" fill="#AB0000"/>
<path d="M35.8031 63.9786C34.3888 63.9786 32.9745 63.9571 31.5602 63.9929C31.0602 64.0071 30.9317 63.8429 30.9674 63.3714C31.0174 62.8071 30.7888 62.0571 31.0745 61.7143C31.4102 61.3143 32.1888 61.5786 32.7745 61.5786C35.1745 61.5643 37.5674 61.5786 39.9674 61.5643C40.4174 61.5643 40.6032 61.6571 40.6032 62.1571C40.6103 63.9786 40.6246 63.9786 38.8174 63.9786C37.8103 63.9786 36.8103 63.9786 35.8031 63.9786Z" fill="#AB0000"/>
<path d="M58.3033 51.1069C58.4033 51.1855 58.5319 51.2784 58.6533 51.3784C60.789 53.1569 62.9248 54.9427 65.0748 56.7141C65.3605 56.9498 65.4319 57.1141 65.1533 57.4141C64.7319 57.857 64.4033 58.6213 63.9248 58.7213C63.4176 58.8284 62.9605 58.0784 62.489 57.6927C60.689 56.2141 58.9176 54.707 57.1176 53.2355C56.789 52.9641 56.6961 52.7784 57.0247 52.4427C57.3604 52.1069 57.639 51.7069 57.9533 51.3426C58.039 51.2498 58.0961 51.1069 58.3033 51.1069Z" fill="#AB0000"/>
<path d="M62.8033 47.1283C61.5962 47.1283 60.389 47.1069 59.1819 47.1354C58.7533 47.1426 58.6176 47.014 58.6533 46.5926C58.689 46.1426 58.689 45.6783 58.6533 45.2283C58.6176 44.7854 58.8176 44.6997 59.2104 44.6997C61.6533 44.714 64.089 44.714 66.5319 44.6997C66.9891 44.6997 67.1105 44.8497 67.1176 45.2926C67.1462 47.1283 67.1605 47.1283 65.3462 47.1283C64.489 47.1283 63.6462 47.1283 62.8033 47.1283Z" fill="#AB0000"/>
<path d="M53.8461 58.6357C53.8461 59.8429 53.8318 61.0572 53.8532 62.2643C53.8604 62.6501 53.7461 62.7643 53.3532 62.7786C51.4175 62.8429 51.4175 62.8572 51.4175 60.9643C51.4175 58.9572 51.4318 56.95 51.4104 54.9429C51.4032 54.5 51.5389 54.3643 51.9889 54.3571C53.8461 54.3357 53.8461 54.3214 53.8461 56.1786C53.8461 56.9929 53.8461 57.8143 53.8461 58.6357Z" fill="#AB0000"/>
<path d="M55.0461 35.014C55.789 35.0212 56.0676 35.4497 55.789 36.1355C55.1818 37.614 54.4247 39.0069 53.4961 40.3069C53.4247 40.4069 53.3818 40.5783 53.2175 40.5212C53.189 40.5141 53.2175 40.3141 53.2318 40.1998C53.4318 38.8283 53.6104 37.4569 53.839 36.0855C53.9604 35.3783 54.4176 35.0069 55.0461 35.014Z" fill="#AB0000"/>
</svg>
