<svg width="70" height="70" viewBox="0 0 70 70" fill="none" xmlns="http://www.w3.org/2000/svg">
<path d="M34.9808 69.9936C31.345 69.9936 27.7092 70.0007 24.0806 69.9936C21.2378 69.9864 19.6592 68.315 19.5306 65.4864C19.3735 61.9221 20.1163 58.6506 22.1235 55.6863C25.7307 50.3505 32.2379 47.8148 38.5879 49.2791C44.6594 50.6791 49.4452 55.8577 50.3381 62.0721C50.5523 63.5435 50.5166 65.0578 50.3523 66.5364C50.1309 68.5436 48.3595 69.9793 46.1737 69.9936C42.438 70.0079 38.7094 69.9936 34.9808 69.9936Z" fill="#AB0000"/>
<path d="M42.8237 39.629C42.8166 43.9791 39.2879 47.472 34.9308 47.4506C30.6093 47.4291 27.1378 43.9148 27.145 39.5933C27.1521 35.2433 30.6807 31.7504 35.0379 31.7718C39.3594 31.7933 42.8308 35.3004 42.8237 39.629Z" fill="#AB0000"/>
<path d="M60.1382 62.4007C57.831 62.4007 55.5238 62.3936 53.2167 62.4079C52.7952 62.4079 52.6238 62.315 52.5595 61.8579C52.2166 59.4079 51.3952 57.1221 50.0666 55.0292C49.8595 54.7078 49.8952 54.5221 50.1595 54.265C53.3024 51.2149 57.0381 50.1006 61.2667 51.1578C65.4382 52.1935 68.2168 54.9007 69.5454 59.0007C70.1025 60.7222 68.8311 62.3793 66.9954 62.3936C64.7025 62.415 62.4239 62.3936 60.1382 62.4007Z" fill="#AB0000"/>
<path d="M9.88052 62.4007C7.64479 62.4007 5.40905 62.4079 3.16617 62.4007C1.00186 62.3936 -0.183865 60.7078 0.530428 58.6507C3.32331 50.5506 13.6163 48.122 19.6806 54.1292C20.0235 54.4721 20.1163 54.7078 19.8235 55.1649C18.5806 57.1364 17.7806 59.2935 17.4592 61.6007C17.3735 62.215 17.1877 62.4364 16.5234 62.4221C14.3091 62.365 12.0948 62.4007 9.88052 62.4007Z" fill="#AB0000"/>
<path d="M5.9144 23.6544C6.09248 22.9951 6.27434 22.3169 6.45999 21.6387C6.55093 21.3053 6.62291 20.9643 6.74037 20.6423C6.83509 20.3733 6.75931 20.2066 6.54714 20.0398C5.778 19.4374 5.02024 18.8236 4.25869 18.2098C4.12987 18.1075 3.93664 18.0242 4.00483 17.8044C4.07303 17.5847 4.27763 17.6301 4.44434 17.6188C5.4067 17.5695 6.36906 17.5127 7.33142 17.4824C7.63453 17.471 7.79745 17.3649 7.89975 17.0732C8.22938 16.1563 8.58553 15.247 8.9341 14.3377C8.99093 14.1899 9.01745 14.008 9.22584 14.0005C9.46074 13.9891 9.48727 14.1937 9.5441 14.349C9.89267 15.2583 10.2488 16.1677 10.5784 17.0846C10.677 17.3574 10.8285 17.471 11.1165 17.4824C12.1053 17.5165 13.0904 17.5733 14.0793 17.6226C14.2233 17.6301 14.39 17.6036 14.4582 17.7855C14.5302 17.9825 14.3862 18.0772 14.2574 18.1757C13.4883 18.7933 12.7229 19.4223 11.9424 20.0285C11.7151 20.2066 11.6621 20.3808 11.7416 20.665C12.0144 21.6122 12.2607 22.5708 12.5183 23.5218C12.56 23.6771 12.6282 23.8362 12.4539 23.9537C12.291 24.0636 12.1735 23.9461 12.0523 23.8703C11.2339 23.3361 10.4117 22.8133 9.60472 22.2639C9.34329 22.0858 9.14627 22.0707 8.87726 22.2563C8.0513 22.8208 7.20639 23.3589 6.36906 23.9044C6.26676 23.9726 6.16447 24.0446 6.02807 23.9651C5.91819 23.8931 5.89925 23.7946 5.9144 23.6544Z" fill="#AB0000"/>
<path d="M56.9219 23.6691C56.975 23.4644 57.0394 23.2141 57.1077 22.9639C57.32 22.179 57.5248 21.3903 57.7561 20.6054C57.8281 20.3627 57.7675 20.2148 57.5779 20.0632C56.793 19.4413 56.0157 18.8119 55.2346 18.1825C55.1132 18.0839 54.9502 17.9967 55.0146 17.7957C55.0791 17.591 55.2649 17.6251 55.4204 17.6175C56.3948 17.5682 57.3731 17.5113 58.3476 17.481C58.6509 17.4696 58.8102 17.3597 58.9164 17.0677C59.2311 16.1842 59.5723 15.3083 59.9098 14.4362C59.978 14.2618 59.978 14.0077 60.2435 14.0002C60.5127 13.9926 60.5165 14.2466 60.5847 14.4173C60.9298 15.3045 61.2748 16.188 61.5971 17.0829C61.6957 17.3634 61.8512 17.4658 62.1355 17.4772C63.1252 17.5151 64.111 17.5682 65.1007 17.6175C65.2448 17.6251 65.4116 17.5985 65.4761 17.7805C65.5443 17.9777 65.4002 18.0725 65.2751 18.1749C64.513 18.7854 63.7622 19.4072 62.9887 20.0063C62.7308 20.2073 62.6816 20.4006 62.7726 20.704C63.0456 21.6292 63.2882 22.5581 63.5347 23.4909C63.5764 23.6502 63.6712 23.8322 63.4702 23.9573C63.292 24.0711 63.1669 23.9308 63.038 23.8473C62.2076 23.3089 61.381 22.7705 60.5582 22.2207C60.342 22.0766 60.1752 22.069 59.9553 22.2169C59.1135 22.7819 58.2604 23.3317 57.411 23.8815C57.2973 23.9535 57.1911 24.0483 57.0394 23.9611C56.9371 23.9118 56.9143 23.8246 56.9219 23.6691Z" fill="#AB0000"/>
<path d="M28.7021 27.6575C29.1379 26.0503 29.5736 24.4789 29.9807 22.9074C30.5164 20.8574 30.7379 21.4931 29.0736 20.1217C27.8878 19.1431 26.6807 18.1931 25.4807 17.2216C25.2664 17.0502 25.0021 16.8859 25.1164 16.5431C25.2307 16.2074 25.5307 16.2216 25.8164 16.2074C27.6807 16.1145 29.5379 16.0073 31.4022 15.9431C31.9736 15.9216 32.2736 15.7073 32.4665 15.1645C33.0879 13.4359 33.7593 11.7216 34.4165 10.0073C34.5236 9.72871 34.5736 9.393 34.9736 9.38585C35.3736 9.37871 35.4379 9.71443 35.5451 9.993C36.2094 11.7359 36.8879 13.4645 37.5165 15.2145C37.7094 15.7431 38.0094 15.9288 38.5451 15.9431C40.4094 16.0145 42.2666 16.1145 44.1309 16.2074C44.4094 16.2216 44.7166 16.1931 44.838 16.5288C44.9809 16.9074 44.6737 17.0716 44.4452 17.2574C43.0309 18.4002 41.638 19.5645 40.188 20.6645C39.6522 21.0717 39.5522 21.4574 39.738 22.086C40.2523 23.8289 40.7023 25.586 41.1808 27.336C41.2594 27.636 41.3808 27.9289 41.0523 28.1503C40.7451 28.3575 40.5237 28.136 40.2951 27.986C38.7308 26.9717 37.1665 25.9575 35.6236 24.9146C35.1736 24.6146 34.8308 24.586 34.3665 24.9074C32.8093 25.9717 31.2164 26.986 29.6379 28.0146C29.4236 28.1503 29.2236 28.336 28.9379 28.1646C28.7236 28.036 28.6664 27.8503 28.7021 27.6575Z" fill="#AB0000"/>
<path d="M58.4381 37.479C61.6882 37.4719 64.3239 40.079 64.3311 43.3219C64.3453 46.5363 61.6953 49.1934 58.4667 49.2149C55.2381 49.2291 52.6024 46.5934 52.5952 43.3505C52.5881 40.0862 55.181 37.4862 58.4381 37.479Z" fill="#AB0000"/>
<path d="M17.3734 43.3291C17.3734 46.5791 14.7591 49.2077 11.5234 49.2149C8.3019 49.222 5.64473 46.5648 5.63759 43.3434C5.63044 40.1148 8.26619 37.4862 11.5091 37.479C14.7734 37.4719 17.3734 40.0648 17.3734 43.3291Z" fill="#AB0000"/>
<path d="M45.5001 9.12773C45.5215 9.48488 45.3287 9.79202 45.043 10.0492C43.7787 11.1849 43.5452 11.2779 42.2737 12.4065C41.7094 12.9065 41.0309 12.8851 40.6023 12.3993C40.1666 11.9136 40.2308 11.2636 40.7951 10.7422C42.0452 9.59932 42.3001 9.51345 43.5501 8.37772C43.9287 8.03486 44.3644 7.91343 44.8358 8.10629C45.2572 8.27058 45.493 8.6063 45.5001 9.12773Z" fill="#AB0000"/>
<path d="M26.2021 7.99717C26.495 7.98288 26.7664 8.14717 27.0164 8.3686C28.2593 9.49004 28.2614 9.34021 29.4971 10.4688C30.0757 10.9974 30.14 11.6331 29.7042 12.126C29.2757 12.6188 28.5899 12.6402 28.0328 12.1402C26.7613 11.0117 26.7593 11.1329 25.495 10.0043C25.0878 9.64004 24.9378 9.19003 25.1235 8.69003C25.2807 8.24717 25.645 8.00431 26.2021 7.99717Z" fill="#AB0000"/>
<path d="M36.1022 3.20012C36.1022 3.85012 36.1165 4.50013 36.0951 5.15014C36.0736 5.85729 35.6093 6.32158 34.9736 6.31443C34.3379 6.30729 33.8808 5.843 33.8736 5.12871C33.8522 3.80727 33.8522 2.47868 33.8736 1.15724C33.8808 0.435804 34.345 -0.00705781 34.9951 8.51208e-05C35.6451 0.00722805 36.0808 0.45009 36.0951 1.17867C36.1165 1.8501 36.1022 2.52154 36.1022 3.20012Z" fill="#AB0000"/>
</svg>
