<svg width="70" height="70" viewBox="0 0 70 70" fill="none" xmlns="http://www.w3.org/2000/svg">
<path d="M0 41.6368C0 36.0231 0 30.4023 0 24.7886C0 22.7173 1.12131 21.6032 3.21396 21.6032C8.08489 21.6032 12.9558 21.5889 17.8339 21.6175C18.4267 21.6175 18.541 21.4817 18.4053 20.9104C16.0341 10.99 22.9905 1.17668 33.1466 0.0982175C42.4885 -0.894538 50.8377 5.74764 51.959 15.0824C52.1947 17.0536 52.1018 19.0177 51.5805 20.9389C51.4305 21.4889 51.5519 21.6175 52.1233 21.6175C56.9728 21.596 61.8223 21.6032 66.6718 21.6032C68.9144 21.6032 70 22.6745 70 24.8957C70 36.0803 70 47.2648 70 58.4494C70 60.592 68.9215 61.6634 66.7575 61.6634C59.2225 61.6634 51.6876 61.6705 44.1455 61.6562C43.6241 61.6562 43.267 61.7919 42.9242 62.2062C41.1387 64.3702 39.3174 66.5057 37.5033 68.6555C36.0178 70.4125 34.0037 70.4196 32.5253 68.6698C30.7112 66.5272 28.8899 64.3917 27.1044 62.2276C26.7616 61.8133 26.4259 61.6562 25.8902 61.6562C18.3053 61.6705 10.7203 61.6705 3.13539 61.6634C1.4927 61.6634 0.407101 60.892 0.0785634 59.485C0.00714213 59.1636 0 58.8208 0 58.4851C0 52.8714 0 47.2505 0 41.6368ZM50.4591 17.0465C50.4377 8.49022 43.5027 1.56235 34.975 1.57664C26.4402 1.59092 19.5052 8.56164 19.5337 17.0893C19.5623 25.617 26.5187 32.5378 35.0536 32.5235C43.5384 32.5021 50.4806 25.5313 50.4591 17.0465ZM49.3164 51.2287C49.2593 52.3857 50.3377 53.0857 51.3948 52.5714C52.3018 52.1358 53.1946 51.6644 54.0659 51.1716C54.4659 50.943 54.7873 50.9287 55.1944 51.1573C56.0443 51.643 56.9299 52.0786 57.7941 52.5357C58.3226 52.8143 58.8511 52.85 59.3582 52.5072C59.8725 52.1572 60.0224 51.6501 59.9296 51.0573C59.7582 50.0431 59.6011 49.0218 59.4011 48.0148C59.3225 47.6434 59.3868 47.3934 59.6725 47.1291C60.4153 46.4506 61.1223 45.7293 61.8508 45.0365C62.3294 44.5794 62.5293 44.0437 62.3079 43.4081C62.0937 42.801 61.6009 42.5439 60.9795 42.4653C59.9796 42.3368 58.9868 42.1654 57.9941 42.0439C57.6584 42.0082 57.487 41.8654 57.3513 41.5797C56.9156 40.6726 56.4585 39.7799 56.0229 38.8728C55.7443 38.2872 55.3301 37.8801 54.6587 37.8729C53.9873 37.8729 53.566 38.2586 53.2874 38.8585C52.8732 39.7442 52.4161 40.6227 52.009 41.5083C51.8519 41.8511 51.6447 42.0082 51.2591 42.0511C50.2806 42.1582 49.3164 42.3368 48.3379 42.4582C47.7166 42.5367 47.2166 42.7796 46.9952 43.3867C46.7667 44.008 46.9452 44.558 47.4309 45.0151C48.1451 45.6864 48.8379 46.3864 49.5592 47.0577C49.8449 47.322 49.9663 47.5648 49.8806 47.9933C49.6449 49.0718 49.495 50.1645 49.3164 51.2287ZM10.0418 51.1144C9.9847 52.4 11.0203 53.0857 12.0988 52.5714C13.0058 52.1358 13.8914 51.6644 14.7699 51.1644C15.1699 50.943 15.4841 50.9216 15.8912 51.1573C16.7411 51.643 17.6268 52.0786 18.4981 52.5357C19.0552 52.8286 19.6123 52.8571 20.1265 52.4643C20.6122 52.1001 20.7407 51.5858 20.6336 50.9859C20.4479 49.9717 20.3122 48.9504 20.1051 47.9433C20.0265 47.5791 20.1265 47.3648 20.3765 47.1363C21.1264 46.4292 21.8549 45.7007 22.5977 44.9865C23.0619 44.5437 23.2048 44.008 23.0119 43.4152C22.8191 42.8367 22.3549 42.5582 21.7621 42.4725C20.7622 42.3296 19.7694 42.1582 18.7695 42.0582C18.3767 42.0154 18.1767 41.8582 18.0196 41.5226C17.6125 40.6584 17.1625 39.8085 16.7554 38.9443C16.4697 38.33 16.0698 37.8872 15.3627 37.8801C14.6485 37.8729 14.2414 38.3086 13.9557 38.9228C13.5415 39.8156 13.0915 40.6869 12.6701 41.5726C12.5344 41.8582 12.363 42.0082 12.0273 42.0511C11.056 42.1654 10.0847 42.3511 9.11336 42.4653C8.43485 42.5439 7.89205 42.7796 7.67779 43.4652C7.46352 44.1366 7.73492 44.6722 8.23487 45.1293C8.94194 45.7793 9.6133 46.4649 10.3204 47.1148C10.5989 47.372 10.6703 47.6148 10.5918 48.0005C10.3632 49.0647 10.2061 50.1574 10.0418 51.1144ZM29.6755 51.2073C29.6327 52.4072 30.7112 53.0785 31.7825 52.5571C32.6681 52.1286 33.5323 51.6715 34.3894 51.1859C34.8107 50.9502 35.1464 50.9145 35.5749 51.1716C36.3963 51.6572 37.2676 52.0715 38.1104 52.5214C38.6603 52.8071 39.2174 52.8714 39.7388 52.4929C40.2887 52.1001 40.403 51.5358 40.2745 50.893C40.0959 49.9788 39.9602 49.0504 39.7745 48.1362C39.6745 47.6648 39.7959 47.3363 40.1602 47.0077C40.8744 46.3649 41.5386 45.6721 42.2243 45.0008C42.6671 44.5651 42.8956 44.0794 42.6742 43.4509C42.4528 42.8367 41.9957 42.5582 41.3744 42.4725C40.3816 42.3368 39.3888 42.1654 38.3889 42.0511C38.0318 42.0082 37.839 41.8725 37.689 41.5583C37.2819 40.6941 36.8391 39.8442 36.4249 38.98C36.1249 38.3586 35.7321 37.8658 34.9821 37.8801C34.2608 37.8872 33.8751 38.3515 33.5966 38.9514C33.1966 39.7942 32.7681 40.6227 32.3824 41.4726C32.2181 41.8297 32.0039 42.0154 31.5825 42.0582C30.5826 42.1582 29.5898 42.3368 28.5971 42.4796C27.9757 42.5725 27.5329 42.8724 27.3258 43.4866C27.1258 44.0866 27.3401 44.5651 27.7615 44.9794C28.4114 45.615 29.0399 46.2864 29.7327 46.872C30.2183 47.2863 30.3326 47.7076 30.1969 48.3147C29.9684 49.2861 29.8327 50.286 29.6755 51.2073ZM66.2075 30.0452C66.2075 29.0167 66.2147 27.9811 66.2075 26.9526C66.2004 26.167 65.9361 25.9027 65.1791 25.8956C63.5221 25.8884 61.8723 25.9027 60.2153 25.8884C59.6582 25.8813 59.2297 26.0741 59.2225 26.6669C59.2154 27.3026 59.6653 27.4954 60.251 27.4883C61.4723 27.474 62.6936 27.5097 63.9149 27.474C64.4434 27.4597 64.622 27.5954 64.6077 28.1454C64.572 29.7523 64.5934 31.3593 64.5934 32.9663C64.5934 33.8376 64.8719 34.2804 65.4147 34.2162C66.1504 34.1376 66.2147 33.5805 66.2075 32.9877C66.2004 32.0164 66.2075 31.0308 66.2075 30.0452ZM64.5863 37.0159C64.5934 37.0159 64.6005 37.0159 64.6005 37.0159C64.6005 37.1801 64.5934 37.3516 64.6005 37.5158C64.622 38.0229 64.872 38.3586 65.379 38.3657C65.8933 38.3729 66.1647 38.0301 66.1861 37.5373C66.2075 37.1302 66.2075 36.7159 66.1432 36.3231C66.079 35.9231 65.7719 35.7017 65.3648 35.716C64.9648 35.7303 64.6934 35.9588 64.622 36.3659C64.6006 36.5873 64.6005 36.8016 64.5863 37.0159Z" fill="#AB0000"/>
<path d="M14.2699 14.5396C14.7556 10.6115 16.2198 7.04753 18.6838 3.89071C19.0123 3.46932 19.4266 3.31934 19.8622 3.6693C20.3336 4.04069 20.2336 4.49065 19.8979 4.93346C18.2124 7.09753 17.0125 9.50442 16.3483 12.1684C16.134 13.0255 16.0055 13.904 15.8555 14.7825C15.7698 15.311 15.5055 15.6395 14.9485 15.5752C14.3842 15.5038 14.22 15.0967 14.2699 14.5396Z" fill="#AB0000"/>
<path d="M10.8917 65.9487C9.47759 65.9487 8.06345 65.9416 6.65645 65.9487C6.07793 65.9559 5.62084 65.763 5.64226 65.1202C5.65655 64.5274 6.09222 64.3489 6.64216 64.3489C9.49187 64.356 12.3416 64.356 15.1913 64.3489C15.7769 64.3489 16.2198 64.5417 16.2055 65.1774C16.1912 65.7702 15.7627 65.9559 15.2056 65.9487C13.77 65.9416 12.3273 65.9487 10.8917 65.9487Z" fill="#AB0000"/>
<path d="M21.4264 2.74069C21.3621 2.71926 21.205 2.69783 21.0978 2.61927C20.6622 2.28359 20.6122 1.87649 20.9407 1.44082C21.5549 0.626616 22.2763 0.383784 22.7262 0.819454C23.1119 1.1837 23.0619 1.65508 22.5691 2.11218C22.262 2.39786 21.9977 2.76925 21.4264 2.74069Z" fill="#AB0000"/>
<path d="M19.5051 65.9487C19.0123 65.9701 18.5195 65.9201 18.4053 65.2631C18.3553 64.9631 18.441 64.6631 18.7195 64.5203C19.2766 64.2417 19.8765 64.2775 20.4408 64.4846C20.7336 64.5917 20.8479 64.8774 20.8407 65.1845C20.8336 65.7202 20.4265 65.9559 19.5051 65.9487Z" fill="#AB0000"/>
<path d="M35.0535 24.1387C32.7181 24.0672 30.8897 22.6245 30.3326 20.5105C30.2612 20.2391 30.2255 19.9462 30.2255 19.6605C30.2326 19.3106 30.454 19.082 30.7825 18.9963C31.1397 18.9106 31.4611 19.0035 31.6539 19.3391C31.7467 19.5034 31.7824 19.6963 31.8253 19.882C32.1681 21.4461 33.4394 22.5103 34.9893 22.5174C36.532 22.5245 37.8318 21.4604 38.1675 19.9034C38.1747 19.8534 38.1747 19.8105 38.1889 19.7605C38.2889 19.2534 38.546 18.8963 39.1174 18.982C39.7388 19.0749 39.8245 19.5248 39.7673 20.0605C39.5531 21.946 37.8604 23.6958 35.9106 24.0244C35.5678 24.0887 35.2392 24.1172 35.0535 24.1387Z" fill="#AB0000"/>
<path d="M31.254 12.3469C31.254 13.7396 30.1041 14.9037 28.7042 14.918C27.3258 14.9323 26.1331 13.7681 26.1045 12.3826C26.0759 10.9756 27.283 9.76856 28.7042 9.78284C30.1041 9.78998 31.2468 10.947 31.254 12.3469Z" fill="#AB0000"/>
<path d="M38.7389 12.3113C38.7532 10.9114 39.9174 9.77585 41.3244 9.78299C42.7242 9.79013 43.8884 10.9543 43.8884 12.347C43.8884 13.754 42.6599 14.961 41.2529 14.9182C39.8459 14.8753 38.7246 13.7183 38.7389 12.3113Z" fill="#AB0000"/>
</svg>
