<?xml version="1.0" encoding="UTF-8"?><svg id="Layer_1" xmlns="http://www.w3.org/2000/svg" viewBox="0 0 70 70"><defs><style>.cls-1{fill:#ab0000;}</style></defs><path class="cls-1" d="M67.98,34.2c.09.88.07,2.45,0,3.35-.65,8.37-2.67,17.11-3.35,25.57-.1,1.25.05,2.9-.14,4.11-.15.97-1.8,1.14-1.93-.24-.14-1.52,0-3.62.14-5.16.69-8.06,2.68-16.47,3.22-24.48.18-2.63-.19-5.2-1.52-7.49l-6.33-9.83v7.21c1.92-.16,2.7.84,2.84,2.64.42,5.64-.32,11.82-.02,17.51-.03.82-.76,1.57-1.58,1.09-.13-.07-.46-.46-.46-.56v-18.61c-2.35-.37-4.7,1.72-4.9,4.05-.37,4.29.86,8.79-1.22,12.82-.96,1.87-2.33,2.83-2.89,5.1-.36,1.48-.47,4.94-.1,6.39.49,1.94,2.6,4.01,2.79,5.96.07.7.11,3.55-.25,4-.25.31-.83.4-1.2.29-1.21-.36-.17-4.03-.86-5h-6.12c-.7,0-1.21-.87-.9-1.54.03-.07.48-.52.51-.52h5.35c-1.68-2.31-1.74-5.29-1.55-8.06.24-3.47,1.53-4.42,3.12-7.06,2.16-3.6.95-8.37,1.26-12.39.2-2.52,1.87-4.66,4.13-5.69v-14.8c-.02-.84.69-1.34,1.46-.94,1.1.58.34,3.29.67,4.36,2.66,5.24,9.28,12.03,9.85,17.91Z"/><path class="cls-1" d="M54.2,2c1.49.44,2.82,1.37,3.41,2.84.39.95,1.05,4.39-.52,4.5s-.98-1.96-1.1-2.88c-.19-1.47-1.44-2.44-2.89-2.52-8.73.12-17.52-.26-26.21.19-.64.1-1.8,1.34-1.8,1.93v6.89c5.07,0,9.93,1.65,14,4.61,3.73.35,7.51,0,11.24.22.39.3.64.73.46,1.23l-3.51,10.13c.85,2.89,1.29,6.13.99,9.12-.11,1.08-1.08,1.99-1.88.98-.42-.54-.03-2.71-.05-3.56-.04-2.23-.61-4.42-1.17-6.56l3.23-9.47h-9.98c-.12,0-1.56-1.15-1.88-1.34-8.04-4.9-17.5-4.34-24.85,1.53-.7.56-2.38,2.75-3.22,1.52-.76-1.11,1.32-2.6,2.13-3.25,3.48-2.82,7.95-4.64,12.43-5.03.15-2.19-.19-4.61,0-6.77s1.75-3.67,3.74-4.31h27.44Z"/><path class="cls-1" d="M36.83,41.57c-.1.16.02.9-.02,1.2-.17,1.3-1.05,2.64-2.41,2.87-.6.1-2.42-.1-2.74.09-.11.07-.45.81-.64,1.03-.17.2-.54.27-.62.54s-.08,1.37.1,1.52c3.07.93,6.35,1.23,9.28,2.58,2.11-1.92,3.59-4.24,4.79-6.81.25-.53.71-2.27,1.14-2.47.84-.37,1.65.22,1.52,1.12-.29,2.04-2.88,6.13-4.23,7.76-4.32,5.21-10.88,8.18-17.64,8.38.5.89,1.4,1.36,2.38,1.48l12.21.03c1.22.78.68,1.91-.74,2.04-2.98.26-8.07.2-11.09,0-2.5-.16-4.23-1.27-4.97-3.72C7.18,57.96-2.57,41.15,4.07,26.52c.23-.52,1.46-2.91,1.79-3.14.63-.44,1.51-.13,1.66.65.11.58-.88,1.85-1.18,2.45-4.09,8.38-2.69,18.53,4.14,24.98.61-.37,1.17-.61,1.85-.82,2.11-.68,5.15-.9,7.06-1.7.15-.06.33-.05.39-.25s.06-3.73,0-3.95c-.03-.11-1.45-1.33-1.72-1.63-.28-.33-.69-1.23-1.03-1.29-1.66-.32-3.32.52-4.9-.9-1.25-1.13-1.12-4.14-.97-5.74.12-1.28.98-1.66,1.14-2.21.18-.61-.02-2.17.02-2.94.71-12.22,15.9-16.72,23.17-6.93,1.57,2.12,2.18,4.18,2.34,6.81.05.87-.14,2.18,0,2.96.08.44,1.03,1.1,1.16,2.19.1.85.1,3.65-.09,4.42-.09.37-.48,1.04-.74,1.32-.32.33-1.29.72-1.34.79ZM35.78,32.27v-3.16c0-4.88-5.64-9.16-10.23-9.35-4.94-.2-11.15,4.09-11.15,9.35v3.16h1.67v-2.25c0-1.15,1.09-2.65,2.1-3.18,2.61-1.37,4.42.7,6.98.68,2.71-.03,4.89-2.46,7.53-.2.64.55,1.42,1.88,1.42,2.71v2.25h1.67ZM24.19,45.02c.02-3.35,2.75-3.25,5.35-3.1.26.02.59.26.71.2.31-.14,1.21-1.75,1.35-2.13.63-1.69.67-7.8.45-9.72-.37-3.25-3.64-1.21-5.4-.89-.96.17-2.04.19-3,.02-1.87-.32-5.2-2.46-5.51.99-.18,1.99-.2,7.78.42,9.51s2.85,3.74,4.49,4.66c.36.2.73.41,1.15.46ZM16.07,34.33h-2.13c-.98,0-.89,2.79-.84,3.42.05.66.2,1.99,1.1,1.99h2.13c-.32-1.79-.27-3.6-.26-5.41ZM33.85,39.74h2.13c.18,0,.73-.4.84-.58.42-.67.52-4.83-.58-4.83h-2.13c0,1.81.07,3.62-.26,5.41ZM31.66,43.74h2.13c.8,0,1.14-1.28.97-1.93-.49.08-1.51-.17-1.87.13l-1.22,1.8ZM26.59,44.01c-.5.17-.47,1.26.16,1.47.44.14,2.36.13,2.71-.14.4-.31.4-1.18-.09-1.32-.23-.07-2.58-.07-2.79,0ZM21.87,46.31v2.51c0,.13-.31.85-.41,1.01l-.88.92c2.24,2.39,6.39,2.55,8.76.26.55-.53-.05-.46-.46-.97-.61-.75-.61-1.65-.58-2.58-.07-.07-1.64.05-1.99,0-.32-.05-.55-.31-.8-.34-.42-.06-1.09.03-1.62-.07-.76-.14-1.33-.49-2.03-.74ZM17.98,51.36c-1.62.47-3.41.68-5,1.2-.14.04-.87.23-.71.45.11.16,1.94,1.3,2.25,1.48,7.32,4.13,16.79,3.67,23.44-1.55,0-.4-5.19-1.38-5.86-1.61-1.53,1.25-2.83,2.54-4.81,3.05-2.81.73-5.3.1-7.56-1.64-.4-.31-1.4-1.4-1.77-1.39Z"/><path class="cls-1" d="M34.97,5.77c.89-.16,5.1-.16,5.99,0,1.23.22,1.12,1.85.02,2.02-.94.15-5.11.15-6.04,0-1.16-.18-1.18-1.81.02-2.02Z"/><path class="cls-1" d="M43.86,5.89c1.83-.55,1.94,2.27.13,1.88-.92-.2-.93-1.64-.13-1.88Z"/></svg>