<?xml version="1.0" encoding="UTF-8"?><svg id="Layer_1" xmlns="http://www.w3.org/2000/svg" viewBox="0 0 70 70"><defs><style>.cls-1{fill:#ab0000;}</style></defs><path class="cls-1" d="M46.72,4.13h13.25c.05,0,.71.64.61.86v62.09c.06.44-.25.67-.54.92H9.96c-.3-.25-.6-.49-.54-.92l.08-62.41c.09-.09.49-.54.53-.54h13.25c.04-.79-.25-1.58.54-2.06l22.17-.07c.99.35.72,1.27.74,2.13ZM44.59,4.13h-19.18v6.39h19.18v-6.39ZM23.28,6.26h-11.72v59.68h46.89V6.26h-11.72v2.13h8.99c.05,0,.71.64.61.86l-.08,54.02c-.25.29-.49.6-.92.54l-41.1-.08-.47-.47-.08-54.02c-.11-.21.55-.86.61-.86h8.99v-2.13ZM23.28,10.52h-7.46v51.15h38.36V10.52h-7.46c-.04.79.25,1.58-.54,2.06l-22.17.07c-.99-.35-.72-1.27-.74-2.13Z"/><path class="cls-1" d="M34.56,14.81c1.03-.31,1.9.95,2.72,1.49,2.02,1.32,4.3,1.72,6.69,1.7.34.21.58.43.63.83.8,6.01-2.21,12.74-6.74,16.59-.52.44-2.2,1.73-2.79,1.75-.75.03-2.39-1.28-3-1.81-3.61-3.11-6.35-8.11-6.66-12.92-.05-.81-.13-3.03,0-3.73.04-.2.3-.52.46-.61.4-.23,2.24-.17,2.92-.28,1.28-.2,2.76-.77,3.85-1.47.41-.26,1.71-1.48,1.92-1.55ZM42.46,20.11c-2.04.09-4.06-.6-5.82-1.58-.36-.2-1.43-1.09-1.69-1.06-2.14,1.56-4.7,2.74-7.41,2.64.08,1.51.16,3.02.49,4.51.9,4.08,3.54,7.75,6.92,10.14,3.43-2.23,6.07-6.03,6.99-10.03.35-1.52.43-3.06.52-4.61Z"/><path class="cls-1" d="M27.87,36.37l1.53,1.53-2.9,2.96c-.24,1.91.23,4.26-.02,6.11-.06.46-.42.81-.87.87-1.21.16-5.6.16-6.81,0-.46-.06-.81-.42-.87-.87-.16-1.21-.16-5.6,0-6.81.06-.46.42-.81.87-.87,1.85-.25,4.2.22,6.11-.02l2.96-2.9ZM22.74,41.43h-2.66v2.66l2.66-2.66ZM24.34,45.69v-2.66l-2.66,2.66h2.66Z"/><path class="cls-1" d="M27.87,47.02l1.53,1.53-2.9,2.96c-.24,1.91.23,4.26-.02,6.11-.06.46-.42.81-.87.87-1.21.16-5.6.16-6.81,0-.46-.06-.81-.42-.87-.87-.16-1.21-.16-5.6,0-6.81.06-.46.42-.81.87-.87,1.85-.25,4.2.22,6.11-.02l2.96-2.9ZM22.74,52.08h-2.66v2.66l2.66-2.66ZM24.34,56.35v-2.66l-2.66,2.66h2.66Z"/><rect class="cls-1" x="29.67" y="40.36" width="22.38" height="2.13"/><rect class="cls-1" x="29.67" y="51.02" width="22.38" height="2.13"/><rect class="cls-1" x="29.67" y="44.62" width="18.12" height="2.13"/><rect class="cls-1" x="29.67" y="55.28" width="18.12" height="2.13"/><rect class="cls-1" x="49.92" y="44.62" width="2.13" height="2.13"/><rect class="cls-1" x="49.92" y="55.28" width="2.13" height="2.13"/><rect class="cls-1" x="27.54" y="6.26" width="2.13" height="2.13"/><rect class="cls-1" x="40.33" y="6.26" width="2.13" height="2.13"/><path class="cls-1" d="M39.12,21.59l-.07.39c-1.53,2.06-2.6,5.24-4.13,7.19-1.65,2.09-3.11-2.15-4.05-3.12l1.79-1.26,1.26,1.73,3.2-5.86c.25-.18,1.57.91,1.99.93Z"/></svg>