<?xml version="1.0" encoding="UTF-8"?><svg id="Layer_1" xmlns="http://www.w3.org/2000/svg" viewBox="0 0 70 70"><defs><style>.cls-1{fill:#ab0000;}</style></defs><path class="cls-1" d="M46.7,4.84h2.92v-2.06c0-.27.54-.7.86-.74.51-.07,3.68-.04,3.97.13.03.02.36.44.36.47v2.19h3.06v-2.19c0-.26.48-.55.74-.59.47-.07,3.45-.09,3.82.02.86.25.59,2.08.63,2.76h2.06c1.15,0,2.96,1.88,2.86,3.12v22.2c.14,1.12-1.77,2.99-2.73,2.99h-2.33v14.3c.09,2.11-2.3,5.11-4.45,5.11h-17.48c0,2.84.6,5.76,1.75,8.35,1.97.22,4.2-.54,5.83.88,2.13,1.88,1.28,5.28-1.36,6.09-9.66.21-19.35.02-29.03.1-3.89-.42-4.11-6.28-.33-6.99.79-.15,4.04.1,4.33-.19.16-.16.72-2,.82-2.37.51-1.91.73-3.9.84-5.88H6.35c-1.8,0-4.3-2.61-4.32-4.45V12.88c.36-2.51,2.33-4.35,4.85-4.58h29.57c-.03-1.24.72-2.47,1.82-3.04.18-.09,1.05-.42,1.17-.42h2.06c.14-.97-.51-2.63.86-2.79.49-.06,3.49-.06,3.79.07.71.32.51,2.07.53,2.72ZM44.7,3.91h-1.2v3.72h1.2v-3.72ZM52.81,3.91h-1.2v3.72h1.2v-3.72ZM61.05,3.91h-1.2v3.72h1.2v-3.72ZM41.51,6.84h-1.93c-.28,0-1.13.75-1.13,1v2.46h27.65v-1.93c0-.39-.73-1.53-1.13-1.53h-1.93c-.02.69.18,2.35-.56,2.69-.34.16-3.26.17-3.75.09-.23-.04-.87-.43-.87-.59v-2.19h-3.06v2.06c0,.28-.57.68-.87.72-.67.11-2.47.08-3.19.01-.48-.04-1.12-.31-1.12-.87v-1.93h-2.92c-.02.69.18,2.35-.56,2.69-.34.16-3.26.17-3.75.09-.23-.04-.87-.43-.87-.59v-2.19ZM36.46,10.29H6.75c-.07,0-.96.31-1.09.37-.64.32-1.36,1.2-1.57,1.88-.03.1-.19.95-.19,1v28.65h8.24c-.2-1.7,1.05-3.16,2.79-3.06v-6.78h-4.05c-.46,0-.82-.55-.87-.99-.31-2.72.24-6,0-8.78.03-.54.61-.89,1.13-.86,4.58.33,9.72-.41,14.24,0,.48.04.76.14,1.06.54l.06,9.37c0,.3-.65.73-.86.73h-5.65v1.86c.67-.28,1.58.43,2.05.4.52-.03.86-.48,1.74-.4.48.04.97.42,1.32.4.28-.02.63-.31.97-.37,1.27-.22,2.74.55,2.95,1.9.09.59.12,1.84.15,2.51.04,1.17.04,2.38-.14,3.53h31.9v-9.04h-21.6c-1.05,0-2.86-1.81-2.86-2.86V10.29ZM66.1,12.29h-27.65v17.88c0,.24.89,1.11,1.26,1l25.33-.07c.57-.12,1.06-.94,1.06-1.47V12.29ZM24.63,23.72h-12.63v6.65h2.92v-2.46c0-.05.44-.82.53-.93,1.17-1.46,3.58-1.09,4.28.64.04.1.24.78.24.83v1.93h4.65v-6.65ZM16.62,41.1c-.72.72-1.53-.24-2.22.1-.38.19-.37,1.01-.08,1.27,1.68,1.09,3.12,2.97,5.07,3.57,3.65,1.12,7.39-.34,7.77-4.45.06-.69.09-4.69-.1-5.08-.15-.32-.55-.43-.84-.24-.37.25-.06,1.69-1.49,1.38-.9-.2-.39-1.45-1.23-1.45s-.24,1.66-1.72,1.47c-1.05-.13-.48-1.47-1.34-1.47-.77,0-.36,1.12-1,1.41-.86.38-1.39-.06-1.47-.92-.22-2.48.33-5.6.01-7.99-.1-.71-.78-1-1.07-.26v11.71c0,.27-.12.77-.3.95ZM60.92,44.19H28.55c-.7,1.26-1.42,2.28-2.66,3.06-2.05,1.3-4.12,1.37-6.46.87s-4.14-2.48-6.04-3.93H3.89v3.12c0,.18.21,1.07.29,1.3.38,1.06,1.59,1.87,2.69,1.96h51.32c1.1-.01,2.72-1.7,2.72-2.73v-3.66ZM38.99,52.56h-13.16c-.2,2.85-.52,5.72-1.6,8.37h16.35c-1-2.66-1.58-5.52-1.6-8.37ZM18.21,62.96c-1.92.74-1.27,3.21.77,3.16h26.72c2.21.15,2.97-2.55.8-3.19l-28.29.03Z"/><path class="cls-1" d="M56.37,16.71c2.46-.3,3.78,2.6,2.1,4.36-2.05,1.39-4.04,4.08-6.1,5.34-.79.48-1.74.53-2.58.13-.52-.25-3.14-2.51-3.63-3.01-2.5-2.59.56-5.8,3.19-3.98.28.19,1.45,1.41,1.65,1.38l4.01-3.58c.4-.32.85-.57,1.36-.63ZM57.18,18.82c-.06-.1-.63-.22-.77-.09l-5.02,4.43c-.31.05-.68.09-.97-.04-.72-.33-3.08-3.56-3.17-1.35.07.22,3.3,2.95,3.53,3,.16.03.31.05.47,0l5.82-5.09c.14-.18.2-.7.1-.85Z"/><path class="cls-1" d="M29.78,46.48c1.4-.32,3.77.18,5.29-.02,1.14.57.82,1.76-.43,1.96-.89.14-3.45.14-4.34.02-1.42-.19-1.51-1.73-.51-1.95Z"/></svg>