<?xml version="1.0" encoding="UTF-8"?><svg id="Layer_1" xmlns="http://www.w3.org/2000/svg" viewBox="0 0 70 70"><defs><style>.cls-1{fill:#ab0000;}</style></defs><path class="cls-1" d="M57.34,38.18v29.19s-.44.44-.53.53l-41.16.08c-.21.11-.86-.55-.86-.61v-15.36H4.48c-.77,0-2.23-1.35-2.33-2.19-.29-9.68-.04-19.43-.13-29.13.14-.83.57-1.69,1.29-2.17.14-.1,1.09-.55,1.17-.55h10.31V7.27c0-2.22,3.26-5.22,5.52-5.25h42.03c2.95.35,5.21,2.58,5.65,5.52v29.79c.12.21-.54.86-.6.86h-10.04ZM56.68,4.14H20.97c-1.94,0-4.06,2.11-4.06,4.06v9.64h6.72c.31,0,1.36.41,1.65.61.94.64,1.39,1.68,1.48,2.78.26,3.25-.2,6.82,0,10.11.54,1.17,3.65,2.78,2.8,4.27-.37.64-2.61,2.28-2.77,2.81-.3,3.39.32,7.26-.04,10.59-.11.99-.62,1.97-1.45,2.53-.14.1-.9.47-.99.47h-7.38v13.83h38.3V7.27c0-.14.41-1.27.51-1.49.27-.62.69-1.05.95-1.64ZM65.85,36.06V8.2c0-2.14-2.22-4.07-4.31-4.04s-4.2,1.94-4.2,4.04v27.86h8.51ZM24.19,20.4c-.23-.19-.78-.29-1.09-.31-5.61-.47-11.88.37-17.56,0-.87,0-1.4.52-1.4,1.4.09,9.22-.16,18.48.13,27.68.2.53.73.72,1.27.73,5.69-.37,11.95.47,17.56,0,.95-.08,1.31-.28,1.4-1.26.31-3.47-.27-7.37.02-10.88.12-.6,2.55-2.47,2.49-2.8-.77-.94-1.88-1.66-2.49-2.71l-.02-11.15c-.02-.21-.16-.56-.31-.69Z"/><path class="cls-1" d="M45.37,15.84h3.92c.59,0,1.47,1.02,1.61,1.59.15.64.14,4.19-.04,4.76-.18.54-1.13,1.5-1.69,1.5h-3.79v3.66c0,.72-.83,1.58-1.49,1.83-.97.37-4.15.37-5.1-.03-.56-.24-1.39-1.21-1.39-1.8v-3.66h-3.79c-.57,0-1.52-.96-1.69-1.5-.19-.58-.19-4.12-.04-4.76.13-.55,1.06-1.59,1.61-1.59h3.92v-3.66c0-.83.96-1.78,1.75-1.97s3.78-.19,4.57.04c.75.21,1.66,1.14,1.66,1.93v3.66ZM43.11,12.39h-3.46v4.85c0,.16-.58.73-.73.73h-4.79s-.2.19-.2.2v3.26h4.85c.17,0,.86.69.86.86v4.85h3.46v-4.85c0-.17.69-.86.86-.86h4.85v-3.26s-.19-.2-.2-.2h-4.79c-.16,0-.73-.57-.73-.73v-4.85Z"/><path class="cls-1" d="M32.44,53.11h17.9c.3.19.63.45.63.83l-.03,7.03c-.19.3-.45.63-.83.63l-17.67-.03c-.44-.26-.58-.46-.63-.96-.21-2.13.17-4.62.01-6.79.06-.29.37-.55.62-.71ZM48.83,55.21h-14.89v4.26h14.89v-4.26Z"/><path class="cls-1" d="M32.44,40.34l17.99.04c.76.49.76,1.49,0,1.99l-17.76.08c-1.08-.14-1.19-1.67-.23-2.11Z"/><path class="cls-1" d="M32.44,46.72l17.99.04c.76.49.76,1.49,0,1.99l-17.76.08c-1.08-.14-1.19-1.67-.23-2.11Z"/><path class="cls-1" d="M21.8,8.42c.29-.09,3.77-.09,4.07,0,.89.26.86,1.91-.11,2.1-.39.07-3.64.07-3.96-.02-.86-.25-.86-1.82,0-2.07Z"/><path class="cls-1" d="M13.46,35.52c-6.99-.74-7.27-9.45,0-9.84-.44-2.68,1.96-2.56,1.59,0,1.07-.02,2.11.33,2.97.95s2.87,2.71,1.75,3.7c-1.26,1.12-1.93-.9-2.61-1.52-.56-.52-1.37-.88-2.12-1.01v5.85c7.07.64,6.83,9.75-.12,10.39-.1.72.35,2.32-.83,2.18-1.03-.12-.54-1.47-.65-2.19-1.54-.06-3.23-.51-4.45-1.47-.81-.63-2.5-2.55-1.05-3.3,1.29-.67,1.6.67,2.24,1.32.78.78,2.19,1.13,3.26,1.19v-6.25ZM13.46,27.81c-4.07.36-3.8,4.98,0,5.59v-5.59ZM15.05,41.78c3.76-.74,3.58-5.18,0-5.98v5.98Z"/></svg>