<?xml version="1.0" encoding="UTF-8"?><svg id="Layer_1" xmlns="http://www.w3.org/2000/svg" viewBox="0 0 70 70"><defs><style>.cls-1{fill:#ab0000;}</style></defs><path class="cls-1" d="M50.76,39.42c-.2.64-.39,1.27-.65,1.89-.15.35-.84,1.57-.86,1.74-.03.33,1.11,2.6,1.31,3.16.23.68.44.9-.03,1.55-.3.41-2.26,2.38-2.67,2.67-.28.2-.47.32-.83.28-.83-.1-3.47-1.65-3.98-1.53-.32.08-1.21.65-1.65.83-.62.26-1.25.46-1.89.65-.71,1.21-.95,4.08-2.56,4.23-.66.06-3.69.08-4.11-.16-.71-.4-1.32-3.35-1.95-4.09l-3.67-1.49c-1.05.4-2.19,1.07-3.25,1.41-.62.2-.89.19-1.44-.2-.34-.25-2.4-2.29-2.6-2.61-.68-1.07.97-3.33,1.27-4.49.1-.41-.26-.67-.42-1.03-.18-.43-.96-2.64-1.08-2.77-.32-.33-2.49-.98-3.11-1.28-.68-.33-1.05-.47-1.15-1.32-.08-.7-.1-2.89.01-3.56.22-1.38,3.41-1.67,4.31-2.55l1.45-3.62c-.27-1.03-1.73-3.27-1.47-4.23.09-.33,2.49-2.81,2.85-3.05,1.14-.71,3.19.91,4.41,1.21.68.17,1.42-.48,2.07-.76.46-.2,1.6-.43,1.88-.72.72-.74.99-3.65,2.09-4.09.44-.18,3.43-.18,4-.09,1.37.21,1.71,2.9,2.33,3.98.34.59.64.4,1.17.61.39.16,2.54,1.15,2.68,1.15.57,0,2.61-1.21,3.39-1.41.66-.16.81-.15,1.35.25.35.26,2.49,2.39,2.66,2.69.16.28.22.49.16.82-.16.95-1.22,2.57-1.54,3.56v.28c.67.63,1.1,3.13,1.52,3.56.6.62,3.7,1.07,4.08,1.96.18.41.18,3.55.11,4.15-.16,1.39-3.15,1.8-4.23,2.43ZM36.31,17.73c-.1-.07-1.88-.05-2.04.05-.36.22-1.06,3.15-1.65,3.7-.33.31-2.45.87-3.1,1.15-.52.22-1.26.8-1.69.92-1.08.3-2.9-1.14-4.02-1.36-.3-.06-1.55,1.19-1.56,1.35-.05.44,1.24,2.68,1.4,3.36.22.97-.59,1.75-.96,2.61s-.56,1.91-.91,2.66c-.5,1.06-2.88,1.25-3.75,1.88-.29.21-.31,2-.2,2.17.1.15,2.83,1.01,3.31,1.29.88.52,1.01,2.01,1.41,2.98.27.65.95,1.62,1.1,2.2.25.95-1.12,2.97-1.39,3.98-.03.19,1.27,1.49,1.49,1.49.73,0,2.86-1.49,3.71-1.44.51.03,1.46.75,2.02.99.83.35,2.2.62,2.87.98.22.11.46.43.59.65.44.78.75,2.37,1.22,3.03.21.29,1.98.31,2.16.19.27-.17,1.03-3.26,1.67-3.75.42-.31,2.14-.71,2.83-1.01.77-.33,1.83-1.23,2.62-1.03.92.23,2.48,1.28,3.29,1.4.32.05,1.54-1.15,1.54-1.42,0-.41-1.1-2.46-1.3-3.09-.38-1.24.47-1.9.95-3.02.4-.94.62-2.62,1.44-3.09.44-.25,3.26-1.21,3.31-1.39-.09-.52.17-1.68-.14-2.04-.51-.57-3.17-.91-3.71-1.78-.35-.57-.7-2.16-1.03-2.95-.25-.58-.82-1.27-.94-1.82-.19-.9,1.2-2.84,1.37-3.81.05-.31-1.25-1.6-1.39-1.61-.3-.02-2.58,1.17-3.15,1.34-1.09.32-2.09-.61-3.1-1.03-.73-.3-2.32-.62-2.74-1.1-.5-.57-1.36-3.51-1.53-3.62Z"/><path class="cls-1" d="M57.83,29.68l9.03-.03c.48.03,1.01.37,1.03.89-.29,2.88.36,6.41,0,9.21-.1.75-.81.84-1.44.89-1.48.12-7.35.22-8.55-.1-.67-.18-.8-.4-.86-1.07-.25-2.79.2-5.96,0-8.79.01-.48.33-.87.79-1ZM65.96,31.71h-6.86v6.86h6.86v-6.86Z"/><path class="cls-1" d="M60.75,23.06c.57-.54.03-1.58.91-2.04,1.16-.61,1.48.58,1.4,1.54-.08,1.04-.42,3.73-.7,4.65-.2.65-.81.98-1.44.68-.7-.74-4.41-3.03-4.56-3.81s.34-1.27,1.1-1.24l1.5.84c-2.86-5.78-7.41-10.13-13.26-12.81-.55-.25-2.03-.65-2.37-.92-.55-.44-.24-1.65.37-1.82.49-.14,2.65.83,3.24,1.09,5.99,2.74,11.2,7.78,13.81,13.84Z"/><path class="cls-1" d="M22.88,11.67c-5.48,2.53-9.79,7.48-12.23,12.94-.29.65-.84,2.81-1.35,3.04-.48.22-1.42-.13-1.51-.69s1.07-3.25,1.39-3.95c2.68-5.74,7.52-10.76,13.29-13.4l-1.65-.34c-.9-.34-.97-1.68.08-1.85.72-.11,4.8.35,5.59.57.44.12.78.54.77,1,0,.4-2.51,3.79-2.95,4.31-.48.56-1.05,1.21-1.78.56-1-.9.55-2,.35-2.2Z"/><path class="cls-1" d="M47.85,60.52l1.79.33c.76.2.69,1.64.04,1.83-.59.18-4.34-.26-5.17-.4-.99-.17-1.67-.39-1.25-1.62.09-.26,2.48-3.53,2.81-3.91.5-.57,1.23-1.16,1.85-.35s-.24,1.48-.61,2.13c-.03.09.12.1.2.07.73-.31,2.16-1.32,2.86-1.81,4.52-3.18,7.87-7.83,9.77-13.01.39-.63,1.73-.54,1.85.21.16,1.01-2.17,5.32-2.83,6.36-2.69,4.27-6.7,8.06-11.31,10.17Z"/><path class="cls-1" d="M13.64,46.15c.61.83-.05,1.99-1.06,1.69-.42-.13-.8-.78-1.23-.7,3.03,6.08,8.36,10.62,14.67,13.04.56.63.35,2.03-.71,1.82-.8-.16-2.82-1.17-3.63-1.6-5.21-2.73-9.83-7.41-12.26-12.78l-.33,1.52c-.49,1.12-1.88.85-2-.35.42-1.58.29-3.52.7-5.07.14-.53.4-.94,1.01-.92.96.04,3.77,2.85,4.83,3.34Z"/><path class="cls-1" d="M34.37,56.99c6.76-.74,8.39,9.28,1.82,10.74-7.45,1.66-9.32-9.92-1.82-10.74ZM34.23,59.04c-4.1.7-3.34,7.42,1.3,6.79,4.29-.58,3.56-7.62-1.3-6.79Z"/><path class="cls-1" d="M34.9,2.11c.23-.01.48.12.69.21.74.32,3.12,1.68,3.74,2.16.13.1.26.2.35.34.09.15.06.31.08.47.06.59.06,4.71-.08,5.01s-4.29,2.72-4.67,2.74c-.32.02-.69-.25-.97-.39-.71-.35-2.94-1.57-3.47-2.02-.13-.11-.25-.21-.31-.37-.18-.42-.18-4.32-.11-4.98.02-.2.04-.35.15-.53.16-.26,4.28-2.63,4.6-2.65ZM34.91,4.28c-.5.54-2.33,1.14-2.7,1.55-.19.21-.22,3.11-.07,3.36.23.37,2.31,1.22,2.76,1.62.16.02,2.52-1.31,2.71-1.5s.2-.17.23-.46c.04-.36.03-2.79-.08-2.96-.19-.3-2.42-1.29-2.86-1.62Z"/><path class="cls-1" d="M7.06,30.36c.4-.12.86.01,1.14.31.53.56,1.59,2.72,2.08,3.55.54.92,2.31,3.68,2.52,4.48.27,1.03-.51,1.3-1.37,1.38-2.04.18-5.92.17-7.97,0-1.16-.1-1.78-.46-1.28-1.71,1.56-2.17,2.69-5.32,4.26-7.4.15-.19.4-.55.62-.62ZM10.12,38.02l-2.61-4.66-2.74,4.66h5.35Z"/><path class="cls-1" d="M34.65,25.57c12.49-.81,13.79,18.18,1.47,19.17-12.81,1.03-14.19-18.34-1.47-19.17ZM41.54,38.57c.51-.46.87-1.61.94-2.28.64-5.46-4.24-9.75-9.56-8.05-4.12,1.32-6.31,6.52-4.08,10.33.55-1.05,1.17-2.21,2.16-2.91,1.52-1.07,1.48-.16,2.68.41.83.39,1.93.44,2.81.14.6-.2,1.1-.88,1.61-1,1.28-.31,3.17,2.24,3.43,3.37ZM32.03,37.9c-.46.12-1.37,2.24-1.44,2.78,1.98,1.89,5.09,2.22,7.57,1.16,1.8-.77,2.11-1.12,1.12-2.86s-.92-.93-2.29-.51c-.81.25-1.77.31-2.61.2-.52-.07-2.21-.81-2.34-.77Z"/><path class="cls-1" d="M34.64,28.45c4.98-.78,5.89,6.87,1.05,7.36s-5.63-6.64-1.05-7.36ZM34.92,30.78c-1.45.29-1.39,2.5.12,2.71,2.16.3,2.1-3.16-.12-2.71Z"/></svg>