<?xml version="1.0" encoding="UTF-8"?><svg id="Layer_1" xmlns="http://www.w3.org/2000/svg" viewBox="0 0 70 70"><defs><style>.cls-1{fill:#ab0000;}</style></defs><path class="cls-1" d="M37.07,54.34l-9.87,5.96,10.01,5.55v-2.54s.21-.35.28-.4c.28-.23,3.02-.54,3.7-.69,5.47-1.2,10.88-4.41,14.6-8.57.43-.48,2.09-2.81,2.4-2.95.53-.24,1.1.14,1.11.68s-1.75,2.66-2.2,3.16c-4.01,4.51-9.5,7.76-15.39,9.16-.46.11-2.75.41-2.85.51-.11.11.06,2.58-.02,3.07-.23,1.42-1.69.35-2.41-.04-3.83-2.01-7.5-4.35-11.34-6.35-.64-.47-.28-1.11.28-1.46l12.21-7.27c1.75-.41.61,2.61,1.14,3.13.14.14,3.34-.93,3.77-1.1,3.52-1.33,6.88-3.92,9.09-6.95.42-.57,2.04-3.48,2.28-3.62.71-.44,1.32.19,1.11.97-.5,1.89-3.64,5.58-5.15,6.92-2.6,2.33-8.21,5.39-11.73,5.42-.38,0-1.03-.18-1.03-.63v-1.99Z"/><path class="cls-1" d="M6.7,37.2c.19.04.49.34.56.54.21.65.23,1.97.4,2.75,1.23,5.87,4.24,11.28,8.71,15.29.49.44,2.8,2.09,2.95,2.4.27.58-.19,1.16-.81,1.1-.92-.09-4.8-3.86-5.57-4.73-3.17-3.56-5.52-8.21-6.62-12.85-.11-.46-.41-2.75-.51-2.85-.37-.36-4.78.87-3.61-1.36,2.29-3.76,4.18-7.88,6.47-11.63.54-.88.88-1.72,1.87-.58l7.24,12.1c.25.33.06,1.2-.37,1.2h-2.33s-.33.12-.34.14c-.12.16.95,3.4,1.13,3.87,1.33,3.47,3.92,6.8,6.91,8.99.59.43,3.63,2.12,3.72,2.45.21.71-.41,1.11-1.08.94-1.87-.5-5.59-3.66-6.92-5.15-2.32-2.6-5.39-8.21-5.42-11.73,0-.38.18-1.03.63-1.03h1.99l-5.96-9.87-5.55,10.01c.74.11,1.86-.15,2.54,0Z"/><path class="cls-1" d="M32.82,6.69c-.02.08-.21.34-.28.4-.28.23-2.92.52-3.58.67-5.53,1.19-10.95,4.4-14.72,8.59-.44.49-2.09,2.8-2.4,2.95-.53.24-1.1-.14-1.11-.68s1.75-2.65,2.2-3.16c3.9-4.39,9.25-7.61,14.95-9.05.52-.13,3.17-.5,3.28-.62.37-.38-.89-4.71,1.36-3.61l12.41,6.93c.64.47.28,1.11-.28,1.46l-12.21,7.27c-1.75.41-.61-2.61-1.14-3.13-.14-.14-3.44.96-3.87,1.13-3.45,1.33-6.81,3.94-8.99,6.92-.42.57-2.04,3.48-2.28,3.62-.71.44-1.32-.19-1.11-.97.5-1.88,3.65-5.59,5.15-6.92,2.59-2.32,8.22-5.39,11.73-5.42.38,0,1.03.18,1.03.63v1.99l9.87-5.96-10.01-5.55c-.11.74.15,1.86,0,2.54Z"/><path class="cls-1" d="M63.33,32.81c-.08-.02-.34-.21-.4-.28-.23-.28-.54-3.02-.69-3.7-1.19-5.47-4.42-10.88-8.57-14.6-.48-.43-2.81-2.09-2.95-2.4-.24-.53.14-1.1.68-1.11s2.65,1.75,3.16,2.2c4.37,3.89,7.62,9.26,9.05,14.95.13.52.5,3.17.63,3.28.47.4,4.67-.9,3.6,1.37l-6.93,12.41c-.47.64-1.11.28-1.46-.28l-7.27-12.21c-.41-1.75,2.61-.61,3.13-1.14.14-.14-.93-3.34-1.1-3.77-1.33-3.54-3.92-6.86-6.95-9.09-.55-.41-3.5-2.08-3.62-2.28-.44-.71.19-1.32.97-1.11,1.89.5,5.58,3.64,6.92,5.15,2.32,2.59,5.39,8.22,5.42,11.73,0,.38-.18,1.03-.63,1.03h-1.99l5.96,9.87,5.55-10.01c-.74-.11-1.86.15-2.54,0Z"/><path class="cls-1" d="M43.27,27.08c.15-.15.5-.16.72-.18.87-.07,3.63-.14,4.39,0,.34.07.49.34.59.64l.03,15.19c0,.45-.33.89-.79,1-.63.14-3.36.11-4.08.03-.33-.04-.89-.15-1-.51.21-1.87-.43-15.62.14-16.19ZM47.35,28.42h-2.74v13.71h2.74v-13.71Z"/><path class="cls-1" d="M28.66,30.37c.41-.12,4.22-.11,4.78-.03.28.04.48.08.58.38l.03,12.32c.02.33-.25.59-.55.69-.52.16-3.67.14-4.33.07-.36-.04-.7-.16-.86-.51l-.03-12.32c0-.26.12-.51.38-.58ZM32.54,31.85h-2.74v10.28h2.74v-10.28Z"/><path class="cls-1" d="M36.48,31.74c.72-.13,3.48-.14,4.21-.02s.85.65.9,1.29c.28,3.04-.22,6.51,0,9.6-.05.46-.19.95-.68,1.1s-3.68.14-4.33.06c-.36-.04-.7-.16-.86-.51l-.03-10.81c-.02-.46.4-.65.79-.72ZM39.95,33.36h-2.74v8.78h2.74v-8.78Z"/><path class="cls-1" d="M21.53,33.8c.64-.14,3.5-.12,4.22-.03.34.04.61.13.82.41l.08,8.85c.01.3-.18.53-.45.64-.43.18-3.8.18-4.42.11-.34-.04-.61-.13-.82-.41l-.08-8.85c-.02-.37.31-.64.65-.72ZM25.14,35.41h-2.74v6.72h2.74v-6.72Z"/><path class="cls-1" d="M39.42,22.23s.43.15.59.3c.7.6,1.33,2.36.12,2.47-.91.08-.69-.68-.95-1.09-.34-.52-1.46-.28-1.28.45.14.57,2.51.6,2.83,2.11.11.55.07,1.27-.24,1.75-.22.34-.93.73-1.03.89-.2.35,0,1.22-.83,1.22-.94,0-.76-1.09-.92-1.34-.04-.06-.74-.31-1.05-.8-1.05-1.69.68-2.5,1.14-1.55.11.23.03.54.19.77.34.46,1.47.18,1.23-.54-.12-.36-1.46-.65-1.87-.88-1.13-.67-1.37-2.18-.51-3.17.23-.27.78-.5.85-.59.26-.4-.06-1.27.93-1.21.9.05.6.94.78,1.22Z"/></svg>