<?xml version="1.0" encoding="UTF-8"?><svg id="Layer_1" xmlns="http://www.w3.org/2000/svg" viewBox="0 0 70 70"><defs><style>.cls-1{fill:#ab0000;}</style></defs><path class="cls-1" d="M64.7,2.15c1.55.22,2.77,1.21,3.08,2.78-.19,2.92.3,6.26,0,9.13-.34,3.38-3.68,2.88-6.17,2.97l-9.86,6.24.84-6.31h-3.41c-.9,0-2.37-1.5-2.48-2.41.2-3.04-.37-6.66-.03-9.63.18-1.62,1.56-2.61,3.09-2.77,4.7-.47,10.16.35,14.94,0ZM49.7,15.03c1.54.25,3.73-.19,5.34,0-.11,1.21-.53,2.48-.64,3.67-.02.17-.09.56.19.45l6.47-4.09c1.1-.29,4.46.6,4.68-.99-.21-2.83.25-5.98,0-8.77-.08-.86-.4-1.02-1.22-1.09-4.65-.43-9.97.34-14.69,0-.86.02-1.15.57-1.22,1.35-.25,2.65.19,5.68.01,8.37.08.56.54,1.01,1.09,1.1Z"/><path class="cls-1" d="M32.64,59.45c-.19.17,1.41,1.53,1.54,1.74l-6.01,5.45c-2.52,1.75-5.77,1.82-8.35.15-4.94-4.99-10.85-9.93-15.45-15.2-1.2-1.37-2.08-2.85-2.24-4.72-.41-4.94,4.06-7.22,6.87-10.48l7.65,7.68c.05.3-3.53,3.47-3.98,4.1-.51.72-.51,1.08,0,1.8.84,1.18,2.6,2.35,3.54,3.54.27.04.15-.05.2-.18.27-.68.41-1.43.74-2.1,2.35-4.81,8.03-4.1,12.46-5.31.08-.12.1-.5.03-.63-.05-.09-1.36-.87-1.65-1.12-1.08-.92-2.13-2.29-2.72-3.59-.21-.46-.7-2.26-.82-2.4-.14-.17-.8-.29-1.1-.45-1.28-.7-2.08-1.88-2.19-3.35-.25-3.3-.29-9.57.81-12.59,3.31-9.06,14.92-11.93,22.12-5.44,6.82,6.14,3.88,15.2,4.51,23.31-.11,1.37-1.27,2.61-2.64,2.76-.66.07-2.15-.16-2.64.07-.12.05-1.12,1.28-1.42,1.55s-1.72,1.15-1.78,1.25c-.07.13-.05.51.03.63,4.75,1.28,10.34.43,12.63,5.79,1.02,2.39,1.64,5.25,2.51,7.72h-22.66ZM23.11,25.52c-.14,1.58.1,3.35,0,4.96.17-.21,1.11-.35,1.15-.4.09-.1-.05-1.28.01-1.28h2.12c.45,0,1.72-.34,2.22-.48,2.54-.71,4.52-2.25,6.28-4.15,2.69,3.13,6.43,4.92,10.62,4.63v1.28s1.16.4,1.16.4c.27-4.85-.2-9.41-4.05-12.75-7.21-6.24-18.68-1.66-19.51,7.79ZM40.5,42.45h-5.54v-1.93h7.28c1.88-2.9,1.04-6.52,1.22-9.79-3.24-.13-6.17-1.64-8.59-3.72-2.37,2.08-5.34,3.56-8.54,3.72.11,4.17-.78,8.17,2.4,11.45,2.91,3,8.29,3.52,11.5.71.15-.13.32-.2.27-.44ZM24.27,35.89v-3.73c-1.51.67-1.56,3.13,0,3.73ZM45.52,32.15v3.73c1.53-.64,1.46-3.05,0-3.73ZM46.68,37.69c-.33.09-1.23.33-1.41.59-.07.1-.66,2.06-.66,2.18.64.29,2.06-.1,2.06-.9v-1.87ZM8.9,39.26c-.09.02-1.22,1.04-1.06,1.27.66.51,4.55,4.77,4.9,4.77.17,0,1.3-1,1.17-1.29-1.53-1.25-2.93-3.27-4.45-4.45-.15-.11-.37-.34-.56-.3ZM6.2,41.95c-.26.07-1.1,1.16-1.27,1.44-1.24,2.07-.99,4.72.6,6.53l14.96,14.91c2.12,1.63,4.95,1.57,7-.17.21-.18.84-.72.71-.97l-4.71-4.71c-.3-.15-.71.37-1.03.52-.98.46-2.04.45-2.98-.11l-8.55-8.45c-.98-1.28-.73-3.02.32-4.17l-4.69-4.73c-.1-.11-.22-.15-.37-.11ZM38.18,46.32c-2.21.51-4.36.54-6.57,0l3.28,3.34,3.28-3.34ZM52.6,57.52c-1.24-3.69-1.4-7.26-5.79-8.31-2.33-.55-4.84-.74-7.18-1.32-1.67,1.37-3.14,3.1-4.74,4.6l-4.65-4.6c-2.52.65-5.44.75-7.91,1.45-2.82.79-3.73,3.2-4.38,5.79,0,.11.07.18.12.27.08.14,2.14,2.16,2.28,2.23.42.22.96.23,1.38,0l4.65-4.23,4.12,4.12h22.08ZM26.29,56.24c-.24.25-1.51,1.03-1.31,1.4l4.64,4.65c.12.14.17.11.32.06.27-.09,1.38-1.09,1.24-1.36l-4.88-4.75Z"/><path class="cls-1" d="M43.59,6.66l-.59,1.94C28.05,3.87,11.4,13.27,8.05,28.55l2.89-1.68.97,1.8-5.89,3.45h-.28s-3.44-5.76-3.44-5.76l-.05-.38,1.66-.91,2.06,3.35c2-9.04,8.42-16.68,16.82-20.46,6.52-2.93,13.92-3.31,20.78-1.31Z"/><path class="cls-1" d="M67.14,25.6c.16.23-.76,1.54-.97,1.79l-3.14-1.8c3,8.73,1.6,18.74-3.63,26.31-.22.32-.98,1.48-1.19,1.64-.4.31-1.57-.73-1.6-1.21,1.76-2.27,3.24-4.79,4.24-7.49,2.21-5.99,2.33-12.69.25-18.74l-1.99,3.09c-.22-.32-1.64-.81-1.56-1.16l3.63-5.91,5.96,3.48Z"/><rect class="cls-1" x="50.93" y="6.53" width="12.62" height="1.93"/><rect class="cls-1" x="50.93" y="10.78" width="8.37" height="1.93"/><rect class="cls-1" x="61.49" y="10.78" width="2.06" height="1.93"/></svg>