<?xml version="1.0" encoding="UTF-8"?><svg id="Layer_1" xmlns="http://www.w3.org/2000/svg" viewBox="0 0 70 70"><defs><style>.cls-1{fill:#ab0000;}</style></defs><path class="cls-1" d="M68,28.03c-.08,3.96-1.87,7.97-4.77,10.65-.36.33-1.34.87-1.42,1.29v22.98c.1.32-.49.7-.71.7h-3.81v3.68s-.31.31-.39.38l-48.22.07c-.59.06-.85-.45-.84-.97v-13.93c-2.42-1.37-4.43-3.23-5.32-5.92-1.35-4.05,0-8.68,3.48-11.18.4-.29,1.79-.95,1.85-1.25V7.3c-.06-.41.49-.97.84-.97h3.81v-3.81s.2-.23.26-.26l48.22-.07c.28,0,.57.05.77.26l.08,19.28c.12.34,2.19,1.25,2.62,1.38.52.16,2.77.44,2.88.54.46.46.52,2.96.54,3.66,0,.17.13.3.13.31,0,.13,0,.26,0,.39ZM60.38,3.63H13.91v30.47c3.28.7,6.18,3.12,7.23,6.33h34.27c.47,0,.44,1.42-.26,1.42H21.65c.19,1.72.18,3.38-.39,5.03h16.59c.8,0,1.41,1.38-.13,1.55h-17.15c-1.33,2.57-3.85,4.39-6.67,5.03v8.65h46.47v-21.43c-1.56.79-2.19.45-3.62-.32-2.03-1.09-3.99-3.05-5.05-5.08l-4.79-.05c-.72-.21-.53-1.39-.03-1.39h3.94l-1.25-5.17h-21.02c-.83.03-.95-.94-.32-1.35l21.43-.07c.08-.67.21-3.41.77-3.68.26-.12,1.57-.15,2.07-.25,1.17-.25,2.28-.86,3.29-1.49.51-.32,2.62-2,2.87-2.05.6-.12,1.17.8,1.71,1.01V3.63ZM12.49,7.89h-3.23v26.14c0,.09.16.15.27.14.45-.02,1.32-.28,1.86-.34.36-.04.73.02,1.1,0V7.89ZM51.35,24.93c-.95,4.92.72,10.41,4.86,13.4.41.29,2.17,1.37,2.56,1.39.27.01,1.35-.57,1.65-.75,4.81-2.76,6.8-8.6,5.84-13.92-2.83-.45-5.2-1.81-7.39-3.59-2.28,1.57-4.65,3.28-7.53,3.48ZM11.56,35.29c-5.81.2-9.63,6.1-7.59,11.52,2.26,6.01,10.26,7.28,14.4,2.39,4.72-5.58.47-14.15-6.8-13.91ZM9.26,53.33v13.04h46.6v-2.71H13.2c-.22,0-.81-.38-.72-.7v-9.24c-1.08-.04-2.17-.12-3.22-.39Z"/><path class="cls-1" d="M24.2,16.05c3-.38,5.96,1,7.31,3.73.49.99,1.24,2.55-.36,2.7-3.77.34-8.06-.27-11.89,0-.88-.15-.75-.82-.59-1.51.52-2.32,3.18-4.62,5.54-4.92ZM30.43,21.05c-1.43-4.8-8.77-4.84-10.2,0h10.2Z"/><path class="cls-1" d="M44.6,33.99c.41.41.07,1.29-.54,1.27h-24.67c-1.13.1-1.2-1.53,0-1.43h24.54c.2.02.53.02.67.17Z"/><path class="cls-1" d="M34.21,19.02c.14-.14.47-.15.67-.17,5.7-.48,12.05.37,17.82,0,1.01,0,1.01,1.43,0,1.42h-17.95c-.61.02-.95-.85-.54-1.26Z"/><path class="cls-1" d="M25.14,53.72c1.09-.32,1.89-1.26,2.91-.26,1.19-.16,4.59-1.03,5.59-.55.41.2.5.81.16,1.14-.3.29-2.3.25-2.9.33-1.06.14-2.95.74-3.88.62-.23-.03-.41-.23-.63-.22-.67.02-2.56,1.64-2.91.13-.07-.31.28-.61-.08-.55-.93.22-3.49,1.94-4.26,1.92-.64-.01-.98-.82-.52-1.29,1.78-.6,3.35-1.76,5.11-2.38,1.09-.38,1.32,0,1.42,1.09Z"/><path class="cls-1" d="M41.11,46.9l13.65-.03c1.23,0,1.4,1.41.13,1.55-4.37-.34-9.39.44-13.69,0-1.29-.13-1.29-1.24-.1-1.52Z"/><path class="cls-1" d="M24.59,8.43c5.14-.87,5.07,7.01,0,6.13-3.11-.54-3.15-5.6,0-6.13ZM24.85,9.85c-1.68.35-1.64,3.05.11,3.32,2.82.44,2.76-3.91-.11-3.32Z"/><path class="cls-1" d="M34.37,14.86c-.56-.16-.56-1.32.64-1.43,3.73-.34,7.97.26,11.75.01,1.1.17.65,1.41.27,1.41h-12.65Z"/><path class="cls-1" d="M26.01,28.51c-.14.14-.47.15-.67.17-1.47.12-4.64.16-6.08,0-1.06-.12-.92-1.3-.12-1.41,1.16-.16,5.16-.17,6.32-.02.64.08.98.83.54,1.27Z"/><path class="cls-1" d="M12.63,38.86c.07.08,1.34.24,1.93.85.53.55,1.35,2.48.19,2.65-1.23.18-.35-1.86-2.19-2.07-1.4-.16-3.17.07-2.59,1.94.34,1.1,1.93.68,2.81.8,2.73.37,3.55,3.9,1.09,5.29-.31.18-1.2.33-1.24.38-.16.19.16,1.21-.85,1.16-.89-.05-.47-1.04-.59-1.17-.05-.05-.94-.17-1.27-.34-1.57-.8-2.21-3.65-.49-3.13.68.21,0,1.79,1.72,2.03,1.23.17,3.16-.11,2.7-1.8-.36-1.35-2.16-.77-3.32-1.06-2.46-.63-2.91-3.91-.71-5.16.39-.22,1.33-.31,1.38-.36.13-.14-.34-1.23.71-1.17.87.05.62,1.06.72,1.17Z"/><path class="cls-1" d="M56.51,26.02c.25-1.41,2.72-1.43,3.75-1.03,1.14.44.88,2.18.9,3.17.98,0,3.01-.22,3.22,1.1.07.46.07,1.98,0,2.44-.07.42-.7,1.1-1.09,1.1h-2.13v1.87c0,.49-.51,1.16-.98,1.34-.71.28-2.65.27-3.24-.29-.06-.06-.43-.63-.43-.67v-2.26h-2.13c-.07,0-.71-.34-.8-.43-.58-.57-.61-2.85-.17-3.51.15-.23.86-.71,1.1-.71h2c.08-.65-.11-1.52,0-2.13ZM59.61,26.35h-1.68v2.78c0,.2-.52.58-.71.58h-2.65v1.68h2.9s.45.42.45.45v2.9h1.68v-2.65c0-.19.38-.71.58-.71h2.78v-1.68h-2.52c-.22,0-.84-.49-.84-.71v-2.65Z"/></svg>