<?xml version="1.0" encoding="UTF-8"?><svg id="Layer_1" xmlns="http://www.w3.org/2000/svg" viewBox="0 0 70 70"><defs><style>.cls-1{fill:#ab0000;}</style></defs><path class="cls-1" d="M50.99,2c.63.17,1.24.19,1.87.38,2.34.72,4.09,3.06,4.31,5.48.13,1.47.2,5.17,0,6.58-.14,1.04-1.48,1.14-1.81.12-.33-2.79.9-7.27-1.29-9.41-.35-.34-1.82-1.22-2.26-1.22H12.85c.74.82,1.32,1.75,1.61,2.83.44,18.32.07,36.73.18,55.09.15,3.61,4.47,5.51,7.28,3.28,3.04-2.41,1.25-9.73,1.74-13.34.05-.37.17-.5.52-.64l15.91-.05c1.21.19.67,1.8,0,1.8h-14.62v8.7c0,.2-.14,1.11-.19,1.36-.23,1.16-.94,2.15-1.62,3.08h38.97c1.16,0,3.41-2.25,3.41-3.41v-9.73h-22.61c-.3,0-.7-.65-.69-.97,0-.22.44-.83.57-.83h12.05V17.91c0-.24.56-.69.85-.71.34-.02.96.42.96.71v33.17h10.11c.35,0,.59.63.71.9-.18,3.14.24,6.55,0,9.66s-2.08,5.43-5.12,6.15c-14.91.27-29.88.24-44.79.02-2.34-.23-5.23-3.11-5.23-5.46V22.74H2.74c-.47,0-.67-.85-.71-1.23-.12-1.15-.16-4.7.03-5.77.27-1.51,1.9-.94,1.9-.03v5.22h8.89V7.73c0-2.9-3.89-4.57-6.4-3.44-3.26,1.47-2.25,4.43-2.48,7.18-.16,1.88-1.76,1.87-1.94.12-.48-4.75.94-9.16,6.31-9.6h42.64Z"/><path class="cls-1" d="M34.46,45.96c3.09.2,6.74-.36,9.76-.03,1.5.17,1.3,1.68.26,1.81h-10.18c-.93-.3-.74-1.58.15-1.78Z"/><path class="cls-1" d="M39.87,36.17l10.14-.02c1.05.16,1,1.65-.25,1.8-2.97.35-6.61-.26-9.66-.01-1-.23-1.12-1.26-.24-1.77Z"/><path class="cls-1" d="M29.95,7.69c.45-.13.78.12,1.07.43.6.65,2.11,2.83,2.55,3.63.26.47.38.59.13,1.12-.27.57-2.31,3.48-2.75,3.94-.75.77-1.78.16-1.58-.8.14-.67,2.44-3.19,2.4-3.62-.37-.98-2.16-2.66-2.4-3.53-.12-.45.14-1.04.58-1.17Z"/><path class="cls-1" d="M21.58,16.91c-.45.49-.99.24-1.39-.16-.45-.45-2.39-3.18-2.68-3.76-.23-.45-.19-.67,0-1.12.23-.53,2.2-3.34,2.63-3.81.72-.8,1.86-.22,1.67.64-.16.75-2.46,3.31-2.48,3.67.32.9,2.52,3.16,2.47,3.94,0,.11-.15.51-.22.6Z"/><path class="cls-1" d="M21.91,32.75c-.76-.62-.13-1.53.8-1.64,1.74-.2,6.37-.2,8.12,0,1.45.16,1.44,1.67.39,1.81-2.8-.19-5.88.23-8.64,0-.24-.02-.47-.01-.67-.17Z"/><path class="cls-1" d="M40.84,32.76c-.71-.67-.1-1.54.8-1.64,1.66-.2,6.32-.19,7.99,0,1.45.16,1.44,1.67.39,1.81-2.76-.19-5.8.23-8.52,0-.21-.02-.51-.02-.67-.17Z"/><path class="cls-1" d="M27.25,7.82c.64-.1,1.11.67.91,1.3-.74,2.33-2.62,4.87-3.47,7.23-.54,1.09-2.03.58-1.72-.56,1.3-2.13,2.17-5.3,3.52-7.3.17-.26.43-.61.76-.66Z"/><path class="cls-1" d="M17.53,26.52c.12-.14.47-.28.66-.3,1.45-.18,5.76-.17,7.22,0,1.15.13,1.29,1.39.25,1.8-2.36-.2-5.17.28-7.47,0-.79-.09-1.14-.93-.67-1.51Z"/><path class="cls-1" d="M36.91,41.06l7.57-.02c1.11.2,1.1,1.62,0,1.79-2.18.34-5.18-.23-7.46,0-.92-.09-.99-1.57-.11-1.77Z"/><path class="cls-1" d="M34.33,21.35l7.7-.02c.98.34.91,1.63-.13,1.79-2.15.33-5.09-.23-7.33,0-1-.16-1.21-1.43-.24-1.77Z"/><path class="cls-1" d="M17.97,36.17l7.7-.02c1.05.47.91,1.62-.27,1.79-2.17.3-4.96-.2-7.2,0-1.02-.16-1.22-1.55-.24-1.77Z"/><path class="cls-1" d="M50.56,15.49c-.12.15-.47.28-.66.3-1.25.16-5.2.16-6.45,0-1.15-.14-1.11-1.65-.12-1.8s5.66-.16,6.68,0c.71.11.96.99.55,1.5Z"/><path class="cls-1" d="M17.97,41.06l6.28-.02c1.11.2,1.1,1.62,0,1.79-.96.15-5.21.15-6.17,0s-.96-1.57-.11-1.77Z"/><path class="cls-1" d="M34.33,41.33c.47.59.12,1.42-.67,1.51-1.12.13-4.97.16-6.05-.01s-1.14-1.65.12-1.8,4.73-.15,5.93,0c.2.02.55.16.66.3Z"/><path class="cls-1" d="M18.1,45.96c.75-.17,5.16-.13,6.02-.02,1.18.17,1.31,1.33.27,1.79h-6.44c-.93-.29-.74-1.57.15-1.77Z"/><path class="cls-1" d="M24.8,21.35l6.41-.02c1.04.16.96,1.62-.13,1.79-.94.15-5.1.15-6.04,0-.99-.15-1.11-1.32-.24-1.77Z"/><path class="cls-1" d="M28.79,26.25l6.15-.02c1.09.17,1.16,1.63.13,1.79-1.85.29-4.38-.2-6.3,0-.93-.37-.94-1.45.02-1.77Z"/><path class="cls-1" d="M45.02,21.35c1.45.15,3.76-.31,5.1,0,.91.21.82,1.6-.24,1.77-.65.1-4.14.11-4.73-.02-.91-.2-.95-1.35-.13-1.75Z"/><path class="cls-1" d="M45.15,26.25c.52-.12,4.33-.12,4.84,0,.98.22,1.02,1.61.02,1.77-.69.11-4.24.13-4.88,0-.86-.16-.97-1.55.02-1.77Z"/><path class="cls-1" d="M36,14.01c.48-.11,3.73-.12,4.22-.02.94.18.93,1.62,0,1.8-.5.09-3.74.08-4.22-.02-.91-.2-.91-1.55,0-1.75Z"/><path class="cls-1" d="M37.76,26.52c.12-.15.47-.28.66-.3.66-.08,2.83-.09,3.48.01,1.12.17,1.01,1.63.13,1.79-.53.1-3.17.08-3.72,0-.71-.11-.96-.99-.55-1.5Z"/><path class="cls-1" d="M17.97,21.35c.38-.09,3.61-.1,3.94,0,.8.23.82,1.6-.24,1.77-.54.08-3.07.09-3.57-.02-.94-.21-1.01-1.55-.13-1.75Z"/><path class="cls-1" d="M38.59,32.76c-.16.15-.46.15-.67.17-.73.06-2.97.11-3.61,0-.69-.13-.82-1.13-.26-1.54.46-.34,3.21-.35,3.86-.25.85.13,1.33,1.02.68,1.63Z"/><path class="cls-1" d="M27.63,45.96c.55-.1,3.03-.12,3.55,0,.99.22.94,1.62.15,1.77-.38.07-3.66.07-3.96-.02-.78-.23-.87-1.54.26-1.75Z"/><path class="cls-1" d="M28.66,36.17c.31-.09,2.44-.07,2.75.03.82.27.66,1.58-.34,1.74-.41.07-2.02.06-2.38-.05-.85-.27-.76-1.51-.03-1.72Z"/><path class="cls-1" d="M34.33,36.17c.35-.08,2.34-.09,2.65,0,.57.17.82,1.09.29,1.52-.41.33-2.4.35-2.91.2-.82-.25-.94-1.52-.03-1.72Z"/><path class="cls-1" d="M47.73,41.06c.67-.15,2.73-.22,2.98.58.45,1.49-1.86,1.3-2.75,1.2-1.21-.14-1.24-1.55-.23-1.78Z"/><path class="cls-1" d="M47.86,45.96c.94-.17,3.51-.24,2.77,1.36-.25.55-2.64.57-3.12.35-.78-.35-.66-1.53.35-1.71Z"/><path class="cls-1" d="M18.23,31.15c1.95-.35,2.14,1.61.88,1.78-.43.06-1.38.09-1.62-.32-.41-.69,0-1.32.75-1.46Z"/></svg>