<?xml version="1.0" encoding="UTF-8"?><svg id="Layer_1" xmlns="http://www.w3.org/2000/svg" viewBox="0 0 70 70"><defs><style>.cls-1{fill:#ab0000;}</style></defs><path class="cls-1" d="M15.68,67.58c-.77,0-1.47-.09-1.87-.25-.92-.36-1.06-1.11-1.19-1.77-.08-.42-.15-.82-.41-1.11-.34-.39-.78-.59-1.31-.59-.16,0-.33.02-.5.05-.29.06-.53.25-.79.46-.34.27-.72.57-1.24.57-.37,0-.76-.15-1.2-.45-.44-.31-2.36-2.25-2.49-2.86-.18-.87.19-1.39.51-1.84.32-.45.6-.84.44-1.58-.19-.92-.86-1.08-1.63-1.28-.85-.21-1.8-.45-1.96-1.8-.07-.56-.13-3.02.3-3.69.47-.72,1.13-.84,1.71-.95.6-.11,1.12-.21,1.45-.92.39-.84.05-1.37-.34-1.98-.42-.66-.91-1.41-.15-2.48.28-.39,2.3-2.37,2.82-2.51.16-.04.33-.07.48-.07.57,0,.98.28,1.39.56.38.26.74.5,1.22.5.24,0,.5-.06.79-.19.64-.29.75-.83.88-1.46.15-.72.32-1.55,1.39-1.9.22-.07.52-.09.74-.09,0,0,0,0,.01,0,.05-.48,0-2.02-.03-3.18-.04-1.23-.07-2.4-.03-2.8.1-.83.48-1.02,1.21-1.08.87-.08,2.19-.12,3.62-.12s2.82.05,3.74.12h.09c.23.02.54.04.75.24.21.2.36.78.38.97.16,1.42.09,2.98.02,4.5-.06,1.44-.13,2.92,0,4.27.24.32.58.64.94.97.7.64,1.43,1.31,1.56,2.2.1.69-.24,1.18-.54,1.62-.38.55-.71,1.02-.34,1.9.29.69.87.81,1.55.95.73.15,1.55.31,1.82,1.34.13.51.16,3.13.04,3.68-.21.93-1.09,1.18-1.87,1.4-.96.27-1.79.51-1.71,1.78.02.43.27.78.53,1.14.44.62.94,1.33.18,2.44-.23.33-1.99,2.08-2.3,2.28-.36.23-.69.34-1.02.34-.5,0-.9-.25-1.29-.5-.42-.26-.85-.53-1.42-.53-.14,0-.28.02-.42.05-.84.17-.98.84-1.14,1.62-.11.5-.21,1.02-.56,1.37-.63.63-2.3.68-2.8.68ZM10.9,61.63c2.05,0,3.75,1.58,3.91,3.56h1.98c.26-2.05,1.92-3.56,3.96-3.56.63,0,1.25.15,1.84.44.12.06.23.15.35.25.11.1.28.24.36.24.13-.1,1.05-1.01,1.36-1.36-1.13-1.58-1.24-3.21-.3-4.7.74-1.19,1.83-1.52,2.99-1.87v-1.94c-1.17-.05-2.22-.64-2.91-1.64-.75-1.1-.92-2.48-.44-3.7.08-.21.24-.42.38-.62.13-.17.35-.46.32-.57-.13-.19-1.06-1.06-1.42-1.33-.71.64-1.57.98-2.5.98-1.81,0-3.8-1.39-3.98-3.67h-1.96c-.04.92-.41,1.78-1.06,2.44-.76.78-1.81,1.22-2.89,1.22-.92,0-1.8-.34-2.49-.95l-1.39,1.4c.97,1.17,1.19,2.74.58,4.14-.59,1.35-1.84,2.22-3.3,2.29v1.96c1.53.17,2.84,1.18,3.39,2.61.53,1.37.26,2.8-.71,3.89.27.35,1.1,1.2,1.37,1.42.13-.05.39-.21.57-.32.32-.19.62-.37.83-.43.38-.12.78-.18,1.18-.18ZM16.93,39.94c.2,0,.42,0,.57.04,1.19.3,1.37,1.16,1.53,1.93.15.7.27,1.31,1.12,1.56.25.07.46.11.64.11.42,0,.7-.18,1.12-.46.1-.07.22-.14.34-.22v-7.8h-5.34v4.84s.02,0,.02,0Z"/><path class="cls-1" d="M44.64,50.67c-.62,0-1.15-.02-1.64-.06-.53-.05-1.02-.15-1.24-.86v-.04s-.01-.04-.01-.04c-.12-5.83-.11-11.76-.09-17.5.01-3.76.02-7.65,0-11.48-.03-.62.41-1.33,1.09-1.37h.02s.02,0,.02,0c.42.04.88.06,1.41.06.72,0,1.48-.04,2.22-.07.74-.03,1.5-.07,2.23-.07.65,0,1.22.03,1.72.09.34.04,1.07.31,1.07.85v5.81c1.02-.38,2.1-.57,3.2-.57,4.53,0,8.57,3.29,9.4,7.66.55,2.9-.15,5.72-1.99,7.94-1.83,2.22-4.52,3.49-7.37,3.49-1.09,0-2.17-.19-3.23-.56v5.81c0,.26-.73.87-1.05.87-.04,0-.07,0-.11-.01-.41-.03-.86-.04-1.36-.04-.7,0-1.43.03-2.13.05-.71.03-1.44.06-2.14.06ZM49.22,48.38v-5.53c-2.6-1.88-4.08-4.76-4.07-7.93,0-3.14,1.49-5.99,4.07-7.85v-5.53h-5.31s-.02.02-.03.03v26.78s.02.02.03.03h5.31ZM54.75,27.64c-.36,0-.73.02-1.1.06-4.52.51-6.38,4.31-6.19,7.62.19,3.36,2.49,6.97,7.11,6.97h0c.3,0,.62-.02.93-.05,4.63-.46,6.56-4.29,6.39-7.65-.17-3.35-2.47-6.96-7.13-6.96Z"/><path class="cls-1" d="M6.59,42.92c-.36,0-.69-.19-.91-.52-.52-.78-.96-4.26-1.02-4.87-.91-9.12,1.93-17.83,7.98-24.52,6.09-6.72,14.7-10.58,23.64-10.58,5.31,0,10.45,1.33,15.28,3.97l2.29,1.37c-.08-.34-.22-.82-.32-1.18-.25-.87-.4-1.42-.39-1.66.02-.69.61-1.1,1.18-1.1.53,0,.95.35,1.06.89l1.35,5.89v.05c-.17,1.03-1.48,1.03-1.97,1.03-.26,0-.52-.01-.75-.02-.2,0-.38-.02-.54-.02-.05,0-.09,0-.14,0-.33.02-.68.05-1.05.08-.56.05-1.14.11-1.7.11-.3,0-.57-.02-.81-.05-.39-.05-.71-.27-.86-.61-.17-.36-.14-.78.09-1.14.28-.44,1.05-.48,1.81-.48.14,0,.28,0,.42,0,.14,0,.28,0,.41,0,.17,0,.48,0,.76-.03-4.69-3.16-10.25-4.82-16.09-4.82s-12.17,1.9-17.07,5.36c-8.71,6.14-13.44,16.6-12.36,27.29.08.79.24,1.59.39,2.36.15.76.3,1.54.39,2.32v.06s-.01.06-.01.06c-.17.47-.58.77-1.04.77Z"/><path class="cls-1" d="M36.29,65.95c-2.4,0-4.82-.28-7.2-.83l-.08-.02c-1.58-.36-2.36-.61-2.62-.82-.33-.26-.47-.73-.35-1.18.11-.42.42-.72.8-.78.03,0,.07,0,.12,0,.45,0,1.64.3,2.79.59.78.2,1.51.38,1.87.44,1.59.24,3.19.36,4.76.36,10.85,0,20.78-6.01,25.9-15.69,5.23-9.89,4.51-21.42-1.91-30.85-.06-.09-.17-.22-.3-.38-.57-.69-1.42-1.74-1.17-2.46.11-.3.37-.49.78-.58.08-.02.15-.02.23-.02.73,0,1.23.72,1.63,1.29.08.12.16.23.23.33,3.22,4.21,5.54,10.25,6.07,15.75.86,9.02-2.02,17.68-8.11,24.39-6.05,6.65-14.59,10.47-23.44,10.47h0Z"/><path class="cls-1" d="M29.34,50.6c-.5-.02-.87-.27-1.02-.69l-.02-.04-.06-22.8c0-.39.23-.72.64-.92l.05-.03,7.99-.03c.39,0,.72.23.92.64l.03.05.03,22.58c.02.58-.24,1.01-.7,1.16h-.04s-7.81.07-7.81.07h0ZM35.67,48.38v-20.07h-5.21v20.07h5.21Z"/><path class="cls-1" d="M15.71,60.78c-4.4,0-6.61-3.46-6.81-6.68-.19-3.18,1.6-6.84,5.99-7.37.36-.04.72-.07,1.07-.07,4.33,0,6.69,3.46,6.79,6.88.1,3.29-1.91,6.95-6.54,7.22-.16,0-.33.01-.49.01ZM15.92,48.88c-.27,0-.55.02-.84.06-2.97.41-4.14,2.84-3.99,5.07.15,2.19,1.66,4.55,4.62,4.55h0c.11,0,.22,0,.33,0,3.21-.18,4.58-2.61,4.51-4.93-.07-2.28-1.54-4.73-4.63-4.73Z"/><path class="cls-1" d="M54.62,40.7c-.9-.02-.98-.66-1.02-1.01,0-.06-.02-.15-.03-.2-.03,0-.06-.01-.09-.02-.16-.04-.36-.1-.49-.17-.59-.34-1.3-.88-1.32-1.51-.01-.34.17-.64.54-.89.2-.14.4-.2.6-.2.36,0,.63.22.88.41.17.14.34.27.51.31.14.03.29.05.45.05.47,0,.86-.14,1.03-.36.1-.14.12-.32.05-.54-.11-.36-.83-.45-1.41-.51-.32-.04-.61-.07-.85-.15-1.12-.37-1.92-1.26-2.08-2.33-.15-1.04.33-2.06,1.29-2.72.17-.12.47-.24.71-.33.06-.02.12-.05.17-.07,0-.04.02-.11.03-.16.06-.39.19-1.19.99-1.19.06,0,.13,0,.2.02.87.14.91.87.94,1.23,0,.04,0,.1.01.14.07.03.2.08.31.12.57.22,1.44.54,1.67,1.2.11.32.06.66-.16,1.01-.24.4-.56.48-.78.48-.38,0-.77-.24-1.1-.46-.19-.12-.39-.25-.53-.28-.17-.04-.33-.07-.49-.07-.6,0-.98.32-1.06.63-.06.23.07.44.36.59.34.17.68.2,1.03.23.55.05,1.18.11,1.9.68.76.61,1.15,1.35,1.11,2.16-.03.92-.61,1.82-1.59,2.49-.13.09-.28.14-.42.18-.08.03-.19.06-.23.09,0,.04-.01.11-.01.17-.01.32-.04.98-1.04.98h0s-.04,0-.07,0Z"/></svg>