<?xml version="1.0" encoding="UTF-8"?><svg id="Layer_1" xmlns="http://www.w3.org/2000/svg" viewBox="0 0 70 70"><defs><style>.cls-1{fill:#ab0000;}</style></defs><path class="cls-1" d="M48.24,68c-.88-.33-1.01-1.35-1.14-2.43-.06-.5-.13-1.01-.27-1.43l-.05-.15h-.16s-.02.01-.02.01c-.27,0-.83-.28-1.29-.51-.51-.26-.81-.4-1.01-.4-.01,0-.03,0-.04,0-.22.02-.61.28-1.46.88-.51.36-1.04.73-1.3.84-.23.1-.36.15-.47.15-.12,0-.24-.06-.48-.23-.41-.29-3.04-2.95-3.24-3.26-.41-.65.2-1.4.78-2.12.34-.42.65-.81.79-1.2.14-.38-.69-2.62-.96-2.83-.23-.18-.8-.28-1.71-.42-.6-.09-1.23-.19-1.52-.31-.4-.17-.48-.36-.53-.86-.08-.92-.13-3.58.01-4.49.11-.69,1.21-.84,2.17-.97.79-.11,1.47-.2,1.74-.57.06-.09.91-2.16.89-2.4-.03-.3-.38-.78-.95-1.53-.36-.47-.72-.95-.81-1.2-.16-.43-.05-.6.22-.97.33-.44,2.77-2.91,3.19-3.19.13-.09.27-.13.43-.13.58,0,1.27.55,1.89,1.03.54.43,1.01.79,1.4.79.02,0,.03,0,.05,0,.23-.02.56-.2.95-.4.42-.22.95-.5,1.27-.5h.03s.15,0,.15,0l.05-.15c.16-.44.22-.97.28-1.48.14-1.21.27-2.25,1.45-2.38.49-.05,1.17-.07,1.66-.07.68,0,1.43.02,1.94.06.87.06,1.17.15,1.4.87.06.2.18.88.28,1.48.23,1.35.27,1.5.34,1.59l.06.07h.1c.27,0,.74.22,1.15.42.47.23.91.44,1.24.44.08,0,.15-.01.21-.04.39-.15.78-.46,1.2-.79.59-.46,1.2-.94,1.75-.94.19,0,.36.06.53.18.49.36,2.72,2.58,3.13,3.14.33.45.36.5.15,1.02-.11.26-.46.75-.81,1.22-.53.72-.85,1.17-.88,1.45-.03.28.78,2.26.89,2.4.26.36.97.46,1.79.59.82.12,1.85.27,2.04.71.15.36.16,4.17.09,4.86-.09.79-.95.94-2.16,1.06-.65.07-1.26.13-1.6.4-.19.15-1.01,2.16-1.01,2.18-.11.58.35,1.19.85,1.85.57.75,1.15,1.52.77,2.13-.21.33-2.82,2.95-3.24,3.26-.23.16-.38.23-.53.23-.15,0-.32-.07-.6-.21-.2-.1-.62-.41-1.03-.7-.88-.63-1.31-.93-1.55-.95-.01,0-.02,0-.04,0-.2,0-.5.14-1.01.4-.45.23-1.02.51-1.29.51,0,0-.02,0-.02,0h-.16s-.05.14-.05.14c-.15.42-.21.93-.27,1.43-.14,1.08-.26,2.1-1.14,2.43h-4.47ZM44.25,61.17c.16,0,.86.38,1.24.59.29.15.53.29.69.35.23.1.5.17.75.24.62.17,1.2.33,1.41.87.05.14.13.61.21,1.06.27,1.57.36,1.87.6,1.93h.02s2.71-.02,2.71-.02l.05-.03c.16-.1.21-.34.37-1.32.11-.71.29-1.79.51-2.03.15-.16.77-.34,1.22-.47.29-.08.56-.16.74-.24.19-.08.48-.24.78-.41.38-.21.91-.5,1.08-.53.01,0,.02,0,.04,0,.37,0,1.1.53,1.69.95.69.5,1.13.8,1.43.8.06,0,.12-.01.18-.04.1-.05,1.72-1.64,1.78-1.85.09-.33-.22-.78-.77-1.54-.4-.55-.89-1.24-.9-1.61-.01-.27.35-.97.62-1.49.14-.26.26-.51.34-.69.1-.23.17-.5.23-.75.08-.32.17-.65.3-.87.26-.42,1.96-.65,2.77-.76.25-.03.47-.06.63-.09l.17-.03v-3.19l-.17-.03c-.24-.05-.57-.09-.92-.14-.82-.11-1.85-.24-2.25-.53-.29-.21-.57-1.09-.78-1.73-.1-.31-.19-.6-.28-.81-.09-.21-.21-.39-.32-.56-.21-.31-.38-.58-.34-.98.05-.38.47-.93.85-1.42.34-.44.66-.86.78-1.21.09-.29.06-.38-.07-.6l-.02-.04s-1.53-1.64-1.79-1.7h-.04s-.04,0-.04,0c-.43.1-.97.5-1.53.92-.52.38-1.1.82-1.42.84h0c-.28,0-.91-.34-1.37-.58-.26-.14-.49-.26-.66-.33-.18-.07-.43-.15-.7-.23-.46-.13-1.15-.33-1.29-.52-.19-.25-.35-1.24-.47-1.96-.17-1.02-.22-1.25-.37-1.35l-.05-.03h-2.81l-.05.03c-.14.09-.2.31-.43,1.66-.09.52-.19,1.11-.25,1.28-.21.55-.79.71-1.41.87-.25.07-.51.14-.75.24-.2.08-.44.22-.71.36-.41.22-.92.5-1.18.54-.01,0-.03,0-.04,0-.38,0-1.11-.52-1.69-.95-.67-.48-1.09-.78-1.4-.78-.07,0-.13.01-.18.04-.11.05-1.78,1.68-1.81,2v.03s0,.03,0,.03c.09.46.48.98.89,1.53.39.52.79,1.06.81,1.42.01.29-.17.57-.35.88-.11.18-.23.37-.31.57-.07.18-.16.43-.26.72-.22.64-.55,1.62-.81,1.81-.39.29-1.47.43-2.25.53-.35.05-.68.09-.92.14l-.17.03v3.19l.17.03c.24.05.57.09.92.14.79.1,1.86.24,2.25.53.27.2.59,1.17.81,1.81.1.29.18.54.26.72.1.24.22.43.34.61.25.39.43.68.23,1.19-.11.27-.44.69-.75,1.1-.38.48-.73.94-.82,1.26-.13.49.48,1.08,1.28,1.79.21.19.41.36.51.48l.05.06h.07s.04.02.07.02c.26,0,.66-.28,1.35-.78.58-.42,1.38-1,1.71-1h0Z"/><path class="cls-1" d="M14.29,65.67c-.39,0-.88-.3-1.35-.83-.64-.72-1.05-1.66-.98-2.24h0V14.05c.09-1.64,1.23-2.94,2.72-3.1h33.97c1.37.14,2.72,1.61,2.72,2.97v18.53h-1.79V13.54c0-.61-.7-.95-1.96-.95-.3,0-.52.02-.61.03l-.19.02v8.43c-.03.11-.5.36-.91.36-.09,0-.16-.01-.21-.04-.26-.12-.7-.81-1.01-1.32-.43-.68-.59-.92-.78-.96-.03,0-.05,0-.08,0-.31,0-.51.36-.78.87-.35.65-.79,1.45-1.47,1.45-.1,0-.2-.02-.31-.05-.15-.05-.49-.45-.51-.58v-8.18s-26.09,0-26.09,0c-.14,0-.36.06-.59.34-.32.4-.54,1.11-.47,1.5v47.84c-.05.37.17,1.01.48,1.39.18.21.38.33.57.33h22.3v1.66H14.29ZM43.85,16.5c.26,0,.43.14.74.42.08.07.16.14.24.21l.34.29v-4.81h-2.75v4.55l.19.02s.05,0,.07,0c.3,0,.41-.2.49-.33.06-.1.11-.18.23-.24.18-.08.33-.11.46-.11Z"/><path class="cls-1" d="M5.97,56.84c-1.42-.06-2.62-1.21-2.83-2.72V4.98c.16-1.8,1.49-2.94,3.49-2.98h32.43c1.81.02,3.21,1.22,3.34,2.83h-1.69c-.04-.27-.16-.78-.75-.97h-.03s-34.32,0-34.32,0h-.04c-.48.2-.77.7-.79,1.35l.06,49.02v.03c.21.67.83.81,1.11.87v1.71Z"/><path class="cls-1" d="M10.38,61.25c-1.52-.07-2.75-1.35-2.83-2.97V9.52c.15-1.66,1.16-2.77,2.72-2.98h34.09c1.26.15,2.47,1.5,2.47,2.7h-1.71c-.04-.27-.16-.78-.75-.97h-.03s-34.35,0-34.35,0l-.05.04c-.49.36-.75.86-.74,1.46v48.27h0c.06.62.14,1.04.8,1.43.11.07.26.09.38.1v1.68Z"/><path class="cls-1" d="M20.51,39.2c-.42,0-.73-.6-.77-1.04-.13-1.42-.07-2.97-.01-4.48.05-1.4.11-2.85.02-4.21.02-.33.24-.64.61-.83l22.11-.06h.03s.04-.01.06-.01c.39,0,1.03.48,1.03.65v6.6h-1.66v-5.58h-20.52v7.29h15.57v1.66h-16.46Z"/><rect class="cls-1" x="19.75" y="44.16" width="11.65" height="1.66"/><rect class="cls-1" x="19.75" y="48.57" width="11.65" height="1.66"/><rect class="cls-1" x="19.75" y="52.98" width="11.65" height="1.66"/><rect class="cls-1" x="19.75" y="17.57" width="6.07" height="1.66"/><rect class="cls-1" x="19.75" y="21.98" width="6.07" height="1.66"/><rect class="cls-1" x="35.19" y="33.01" width="1.79" height="1.79"/><rect class="cls-1" x="26.36" y="33.01" width="1.66" height="1.79"/><rect class="cls-1" x="30.78" y="33.01" width="1.66" height="1.79"/><path class="cls-1" d="M50.29,59.17c-1.89,0-3.69-.8-5.19-2.32-2.19-2.22-2.79-5.06-1.65-7.79,1.24-2.96,4.2-5.03,7.2-5.03,1.88,0,3.65.8,5.14,2.32,2.22,2.27,2.83,5.13,1.68,7.86-1.23,2.92-4.18,4.96-7.18,4.96ZM50.57,45.79c-.32,0-.66.02-1,.07-3.57.49-5.01,3.51-4.83,6.11.18,2.63,2.03,5.47,5.66,5.47h0c.28,0,.57-.02.86-.05,3.6-.43,5.08-3.45,4.92-6.08-.16-2.65-1.98-5.51-5.62-5.51Z"/></svg>