<?xml version="1.0" encoding="UTF-8"?><svg id="Layer_1" xmlns="http://www.w3.org/2000/svg" viewBox="0 0 70 70"><defs><style>.cls-1{fill:#ab0000;}</style></defs><path class="cls-1" d="M2,57.18c.91-2.22,2.23-4.28,3.1-6.51.12-13.25-.25-26.55.19-39.77.37-.91.96-1.63,1.91-1.96.13-.05.86-.23.93-.23h5.22V3.62c0-.75.82-1.13,1.48-1.1h40.23c.69-.05,1.61.29,1.61,1.1v5.09h5.22c.54,0,1.74.56,2.13.97.2.21.63.95.71,1.22.03.1.19.92.19.97v2h-2.06v-2.51c0-.13-.45-.58-.58-.58h-5.61v22.69h-2.06V4.58H15.41v45.38h9.28v2.06H6.64l-1.93,4.12h19.98v2.06H4.19c.04.7,1.53,2.06,2.13,2.06h36.93v2.06H7.22c-2.31,0-4.49-1.76-5.03-3.99l-.19-.91v-.26ZM13.34,10.77h-5.61c-.13,0-.58.45-.58.58v38.61h6.19V10.77Z"/><path class="cls-1" d="M28.88,56.15c-1.58-.2-2.03-1.2-2.13-2.64-.35-5.05.27-10.51,0-15.6.12-1.33.65-2.17,2.03-2.35l26.53-.04c1.06.09,1.87.45,2.22,1.52.05.16,0,.52.03.55.09.09,1.57.03,2.38.65,1.67,1.27,5.24,4.8,6.58,6.44.82,1,1.48,2.63,1.48,3.93v18.88h-2.06v-19.79c0-.1-.25-.68-.32-.84-.5-1.17-4.52-5.02-5.67-6.06-.68-.61-1.3-1.38-2.26-1.16v4.25s.48-.05.59.12l3.15,3.17-1.35,1.35-2.38-2.32v4.45c0,.26,3.39,3.18,3.74,3.74l-1.35,1.35-7.83-7.76c-2.52-.62-2,2.2-.94,3.51,1.15,1.43,2.92,2.69,4.12,4.13.34.71.13,1.49.22,2.23.28,2.39,2.72,4.56,5.14,4.46v1.93c-3.2.05-6.18-2.45-6.92-5.52-.13-.52-.21-2.16-.41-2.42-.27-.36-1.48-.11-1.95-.18v3.54c0,1.28,1.48,3.09,2.38,3.94.51.48,1.74,1.11,1.74,1.87v2h-2.06c-.07-.48.13-1.25-.07-1.67-.06-.13-1.67-1.49-1.99-1.87-.51-.61-1.09-1.48-1.39-2.22-.73-1.8-.52-3.67-.68-5.58h-20.56ZM55.62,37.58h-26.81v2.06h26.81v-2.06ZM55.62,41.71h-26.81v1.03h26.81v-1.03ZM55.62,44.8h-26.81v9.28h22.3c-1.67-1.62-2.91-3.23-2.57-5.72.13-.93,1.17-2.07,2.07-2.31,2.52-.65,3.38,1.09,5,2.49v-3.74Z"/><path class="cls-1" d="M20.56,7.74c.1-.69.47-.96,1.13-1.06.74-.11,3.73-.13,4.34.1,1.04.39.63,2.07.71,2.96.81.07,2.53-.29,2.93.61.26.58.24,3.59.15,4.33-.07.6-.39,1.24-1.08,1.24h-2v2c0,.18-.27.72-.45.84-.52.36-3.51.32-4.26.26-.67-.06-1.48-.27-1.48-1.1v-2h-2c-.18,0-.72-.27-.84-.45-.36-.52-.32-3.51-.26-4.26.06-.67.27-1.48,1.1-1.48h2c.06-.62-.09-1.4,0-2ZM24.69,8.71h-2.06v2c0,.5-.6,1.1-1.1,1.1h-2v2.06h2c.5,0,1.1.6,1.1,1.1v2h2.06v-2c0-.5.6-1.1,1.1-1.1h2v-2.06h-2c-.5,0-1.1-.6-1.1-1.1v-2Z"/><rect class="cls-1" x="18.5" y="23.15" width="33" height="2.06"/><rect class="cls-1" x="18.5" y="27.27" width="33" height="2.06"/><rect class="cls-1" x="18.5" y="31.4" width="33" height="2.06"/><rect class="cls-1" x="62.84" y="15.93" width="2.06" height="22.69"/><rect class="cls-1" x="41.19" y="13.86" width="11.34" height="2.06"/><rect class="cls-1" x="45.31" y="9.74" width="7.22" height="2.06"/><rect class="cls-1" x="18.5" y="35.52" width="6.19" height="2.06"/><rect class="cls-1" x="18.5" y="39.65" width="6.19" height="2.06"/><rect class="cls-1" x="41.19" y="9.74" width="2.06" height="2.06"/><rect class="cls-1" x="45.31" y="60.27" width="2.06" height="2.06"/><rect class="cls-1" x="30.88" y="49.96" width="6.19" height="2.06"/><rect class="cls-1" x="39.12" y="49.96" width="6.19" height="2.06"/></svg>