<?xml version="1.0" encoding="UTF-8"?><svg id="Layer_1" xmlns="http://www.w3.org/2000/svg" viewBox="0 0 70 70"><defs><style>.cls-1{fill:#ab0000;}</style></defs><path class="cls-1" d="M50.4,27.86c3.86.22,7.76.25,11.58.93.64.4.7,1.19,1.02,1.81.65,1.28,1.37,2.53,2.31,3.62.61.72,2.06,1.66,2.06,2.61,0,.88-.44,2.68-.65,3.6-2.05,9.17-8.12,17.45-16.29,22.07.15,2.33-.19,4.5-2.64,5.35-13.91.31-27.89.05-41.82.13-2.01-.22-3.28-1.92-3.33-3.88V5.74c.19-2.18,1.71-3.61,3.89-3.74h39.99c1.37.12,2.76.67,3.43,1.94.08.14.45,1.05.45,1.11v22.81ZM47.99,27.86V5.32c0-.41-1.03-1.05-1.48-.92l-40.48.07c-.48.16-.76.44-.92.92l-.07,58.85c-.03.55.3.97.75,1.23,13.77.22,27.61.09,41.39.07,1-.05.99-2.68.74-3.07-.07-.12-1.7-1.02-2.01-1.24-6.5-4.5-11.4-11.09-13.64-18.71-.43-1.46-1.23-4.38-1.1-5.84.09-1.06.85-1.18,1.49-1.9.86-.96,1.8-2.25,2.4-3.39.83-1.57.44-2.48,2.42-2.81,1.35-.22,3.12-.34,4.5-.44,2-.14,4.02-.07,6-.28ZM37.86,31c-.52,1.15-1.12,2.27-1.84,3.31s-1.63,1.94-2.43,2.94c1.25,9.61,7.26,18.56,15.73,23.2,8.35-4.91,14.34-13.61,15.56-23.29-1.47-1.38-2.68-3.03-3.67-4.79-.38-.67-.23-1.35-1.16-1.53-2.18-.42-5.6-.53-7.87-.6s-4.45.06-6.65.15c-2.56.1-5.14.12-7.66.6Z"/><path class="cls-1" d="M20.26,44.44c1.75,1.75,2.13,4.79.63,6.8,1.45,1.1,2.55,2.39,3,4.19.23.94.46,4.36.07,5.11-.28.53-.91.61-1.46.66-3.13.27-9.03.27-12.16,0-1.02-.09-1.64-.24-1.76-1.35-.33-2.94.35-6.96,3.24-8.42-1.08-2.09-1.27-4.42.17-6.39,1.97-2.68,5.91-2.96,8.26-.61ZM15.75,45.27c-3.78.64-2.9,6.71,1.2,6.01,3.79-.65,3.02-6.73-1.2-6.01ZM21.72,58.8v-2.47c0-.58-1.07-2.27-1.57-2.67-1.2-.96-1.14-.43-2.24-.15s-1.83.25-2.97,0c-1.03-.23-1.03-.76-2.11,0-.75.54-1.85,2.19-1.85,3.1v2.19h10.74Z"/><path class="cls-1" d="M8.26,20.54l36.28-.03c1.72.2,1.32,2.56-.42,2.41H8.93c-1.49.05-2.14-1.79-.67-2.38Z"/><path class="cls-1" d="M38.11,17.62c-.2,1.16-2.09,1.22-2.37-.03.15-2.89-.3-6.17-.04-9.02.12-1.26,1.27-1.91,2.13-.99.56.6,1.54,3.11,2.04,4.03.11.21.28.62.49.7l2.34-4.65c.69-.88,2-.49,2.17.64.23,1.48.21,7.51,0,9.02-.14,1.03-1.11,1.59-2,.93-.06-.04-.39-.47-.39-.5v-4.45l-1.27,2.33c-.55.66-1.29.67-1.84,0l-1.27-2.19c-.15,1.25.21,2.98,0,4.17Z"/><path class="cls-1" d="M27.65,16.13h-2.4c0,.86.24,2.25-.93,2.4-.99.13-1.39-.6-1.48-1.47-.16-1.68-.16-5.24.02-6.91.29-2.65,2.82-3.57,5.15-2.78,1.19.4,1.88,1.58,2.02,2.78.19,1.61.17,5.27.02,6.91-.08.87-.48,1.6-1.48,1.47-1.17-.15-.93-1.54-.93-2.4ZM27.65,13.73v-3.6c0-.86-2.4-.86-2.4,0v3.6h2.4Z"/><path class="cls-1" d="M8.54,27.47l22.57-.03c1.55,0,1.93,2.21.29,2.4H8.51c-1.49-.17-1.37-2.12.04-2.37Z"/><path class="cls-1" d="M10.73,9.67c-.16.16-.16.52-.18.74-.1,1.17-.15,3.98,0,5.1.14,1.04,1.46.53,2.25.61.29-.18-.18-1.76,1.09-1.95,1.69-.25,1.71,1.9,1.03,3.01-1.35,2.19-6.27,1.92-6.62-.96-.15-1.25-.17-5.69.04-6.89.19-1.13,1.31-1.99,2.43-2.09,1.9-.17,3.87-.09,4.45,2.06.71,2.64-1.87,2.88-2.22,1.37-.09-.38.11-.76-.25-1.02-.32-.23-1.74-.24-2,.02Z"/><path class="cls-1" d="M7.78,32.71c.25-.23.68-.31,1.01-.34,5.51-.5,11.79.39,17.39,0,1.55.07,1.68,2.23.14,2.41H8.51c-1.03,0-1.43-1.43-.73-2.08Z"/><path class="cls-1" d="M24.07,37.65c.82.9.1,1.95-1.01,2.07-4.42.5-9.75-.37-14.27,0-1.6-.01-1.91-2.21-.29-2.4,4.72.34,10.06-.45,14.7,0,.31.03.64.1.86.34Z"/><path class="cls-1" d="M18.75,16.13h2.33s.54.28.59.33c.57.53.42,1.76-.37,2.01-.45.14-3.34.14-3.88.05-.45-.07-.77-.37-.9-.8V7.9c.32-.63,1-.87,1.66-.59.07.03.57.52.57.56v8.26Z"/><path class="cls-1" d="M32.41,7.26c.85-.25,1.5.17,1.6,1.03.34,2.86-.25,6.38-.01,9.32-.21,1.36-2.18,1.34-2.39-.56s-.19-6.43,0-8.33c.05-.5.26-1.29.8-1.46Z"/><path class="cls-1" d="M48.53,32.7c13.31-1.01,14.77,19.39,1.65,20.44s-15.19-19.41-1.65-20.44ZM48.39,35.1c-6.19.61-9.22,8.09-5.19,12.88,3.75,4.46,11.04,3.39,13.26-1.99s-2.09-11.47-8.06-10.89Z"/><path class="cls-1" d="M52.9,38.48c1.13-.25,1.79.75,1.34,1.77-1.81,1.84-3.39,4.15-5.19,5.97-.63.64-1.11,1.04-1.98.42l-3.21-3.71c-.41-1,.22-2.02,1.34-1.77.82.18,2.25,2.72,2.7,2.65.58-.1,4.06-5.12,5-5.33Z"/></svg>