<?xml version="1.0" encoding="UTF-8"?><svg id="Layer_1" xmlns="http://www.w3.org/2000/svg" viewBox="0 0 70 70"><defs><style>.cls-1{fill:#ab0000;}</style></defs><path class="cls-1" d="M13.79,14.3h-6.74c-.3,0-.67-1.06-.75-1.34-1.47-5.11,2.14-10.24,7.3-10.96h42.9c4.22.69,7.22,4.05,7.54,8.31v55.48c-.1,1.64-1.54,2.34-2.88,1.31-.51-.39-2.61-2.82-2.94-2.82-1.89,1.2-3.65,5.08-6.34,3.2-.6-.42-2.99-3.2-3.34-3.2-1.98,1.25-3.61,5.15-6.39,3.12-.58-.42-2.98-3.12-3.29-3.12-1.75,1.06-3.62,4.97-6.08,3.33-.73-.49-3-3.34-3.61-3.33-.35,0-2.7,2.7-3.27,3.13-2.68,2.05-4.35-1.98-6.28-3.14l-.39.13c-.73.52-2.5,2.87-3.19,3.09-.35.11-.98.11-1.32,0-.23-.07-.91-.73-.91-.92V14.3ZM49.77,3.83H14.51c-.98,0-2.36.48-3.21.98-2.64,1.54-3.99,4.67-3.14,7.66h38.6c-.56-2.44.06-5.13,1.59-7.11.43-.55,1.01-.96,1.42-1.53ZM62.07,65.19V9.91c0-1.58-1.57-3.87-2.84-4.75-4.66-3.26-11.15.28-10.75,5.91.05.7.66,2.21.44,2.7-.03.07-.48.53-.52.53H15.62v50.9c1.52-1.11,2.59-3.59,4.84-2.68.94.38,3.6,3.54,3.86,3.57,1.75-.97,3.68-5,6.08-3.43.68.45,3.13,3.42,3.6,3.42.77,0,2.96-3.71,4.84-3.76s4.03,3.76,4.84,3.76c1.05,0,2.97-4.37,5.5-3.63,1.33.39,3.34,3.45,4.1,3.61.69.15,3.13-3.63,4.66-3.74,1.82-.13,2.81,1.95,4.12,2.88Z"/><path class="cls-1" d="M37.05,24.15c10.48-.62,17.65,10.77,12.52,19.98-4.07,7.32-13.96,9.25-20.41,3.79-9.3-7.88-4.23-23.05,7.89-23.77ZM36.79,26.11c-9.06.79-13.79,11.68-7.95,18.73,5.13,6.19,14.79,5.56,18.89-1.38,4.76-8.05-1.66-18.16-10.94-17.35Z"/><path class="cls-1" d="M24.65,47.92c-.24-1.56,1.58-2.04,1.95-.44.16.69.39,2.55.41,3.26.01.44-.26,1.01-.73,1.1-.43.08-3.58-.26-4.02-.42-.96-.35-.77-1.81.26-1.9.28-.02.59.2.82.04-2.24-2.81-3.77-6.22-4.18-9.82-1.12-9.68,5.59-18.81,15.15-20.56.76-.14,2.6-.6,3.04.15,1.02,1.72-2.35,1.66-3.26,1.86-11.84,2.58-17.27,17.32-9.44,26.74Z"/><path class="cls-1" d="M56.44,39.29c-.59,7.7-6.22,14.37-13.64,16.39-3.81,1.04-8.21.86-11.87-.63-.85-.35-2.02-.67-1.47-1.86.47-1.02,2.23.14,2.97.37,7.79,2.43,16.02-.57,20.03-7.72,1.04-1.86,1.91-4.17,1.96-6.28-.94,1.35-2.57.37-1.69-1.04.28-.46,1.71-2.28,2.08-2.63.43-.41.82-.45,1.32-.12.21.14,2.36,2.81,2.45,3.04.37.91-.49,1.73-1.39,1.26-.35-.19-.42-.58-.73-.77Z"/><path class="cls-1" d="M44.27,19.92l3.26,1.64c2.74,1.68,5.05,4.04,6.62,6.86.42.75,1.39,2.51,1.21,3.31-.16.69-1.15.84-1.6.35-.34-.37-1-2.19-1.36-2.83-1.58-2.8-5.1-6.24-8.2-7.24-.08-.03-.22-.03-.19.06.95,1.11-.05,2.31-1.27,1.6-.34-.78-2.34-2.75-2.39-3.44-.03-.43.34-.79.69-1s3.3-1.43,3.55-1.41c1.32.09,1.05,2.09-.32,2.09Z"/><path class="cls-1" d="M36.26,27.15c11.16-1.26,16.51,12.63,7.74,18.99-7.31,5.29-17.38-.46-16.73-9.41.34-4.67,4.3-9.05,9-9.58ZM37.31,28.99c-11.42.66-10.24,18.06,1.14,17.23s10.12-17.88-1.14-17.23Z"/><path class="cls-1" d="M38.78,32.74s.78.14,1.09.28c.99.45,2.44,2.18.87,2.67-1,.32-1.04-.61-1.71-.93-1.55-.73-4.27.41-2.45,1.4,1.24.68,2.82.45,4.08,1.55,1.48,1.29,1.06,3.58-.67,4.43-.22.11-1.18.37-1.21.43-.19.3.26,1.82-1.12,1.68-1.19-.12-.75-1.71-.87-1.83-.04-.04-.71-.12-1-.24-.89-.39-2.68-1.87-1.34-2.69.96-.59,1.21.42,1.81.78.82.49,3.72.63,3.35-.73-.23-.86-2.69-1.13-3.51-1.47-2.47-1.02-2.86-3.9-.41-5.06.31-.15,1.05-.24,1.09-.28.12-.12-.35-1.94,1.09-1.8,1.26.12.75,1.66.89,1.8Z"/></svg>