<?xml version="1.0" encoding="UTF-8"?><svg id="Layer_1" xmlns="http://www.w3.org/2000/svg" viewBox="0 0 70 70"><defs><style>.cls-1{fill:#ab0000;}</style></defs><path class="cls-1" d="M3.75,58.38c-.48.44-1.35.21-1.6-.4-.24-17.55-.03-35.15-.11-52.72.06-1.78,1.32-3.18,3.13-3.26h41.12c1.56.06,2.98,1.1,3.13,2.73v15.98c-.21,1.05-1.48,1.14-1.86.12V5.13c-.05-.39-.26-.94-.66-1.07H4.59s-.47.6-.47.6l-.05,52.77c0,.25-.14.8-.31.96Z"/><path class="cls-1" d="M67.74,59.31c-.44.44-1.07.28-1.49-.1l-6.52-6.5c-2.55,2.17-4.38.09-6.15-1.73-10.23,3.39-20.26-4.32-19.46-15.12.46-6.21,5.58-11.81,11.68-12.93,11.17-2.06,20.27,8.47,16.57,19.19,1.84,1.72,3.92,3.82,1.69,6.25,0,.26,3.21,3.07,3.66,3.66.72.95-.13,1.92-1.1,1.5l-3.84-3.75-1.64,1.52,6.65,6.65c.32.37.3,1.02-.04,1.36ZM47.4,24.66c-9.46.84-14.63,11.9-9.18,19.75,4.68,6.74,14.57,7.42,19.98,1.16,7.49-8.66.61-21.93-10.8-20.91ZM61.4,44.18c-1.23,2.55-3.44,4.52-5.86,5.92.79,1.07,1.66,2.14,2.99,1.12.68-.52,3.91-3.71,4.31-4.34.26-.41.4-.73.19-1.21-.1-.24-1.45-1.62-1.63-1.5Z"/><path class="cls-1" d="M16.4,41.29c8.85-.85,15.22,8.51,11.14,16.46-3.78,7.39-14.25,8.17-19.15,1.45-5.12-7.02-.59-17.08,8.01-17.91ZM16.56,43.25c-6.38.65-10.23,7.32-7.56,13.22,1.94,4.3,6.85,6.38,11.35,5,.48-.15,3.08-1.26,2.99-1.77-.08-.47-6.09-5.85-6.78-6.8v-9.65ZM26.8,51.63c-.38-4.38-4-8.02-8.38-8.38v8.38h8.38ZM26.8,53.49h-6.92l4.86,4.92c1.19-1.3,1.92-3.16,2.06-4.92Z"/><path class="cls-1" d="M48.32,52.98c.54-.1,1.01.34,1.09.85-.28,3.62.41,7.89,0,11.43-.18,1.64-1.65,2.72-3.25,2.73H5.18c-1.32-.11-2.46-.73-2.89-2.03-.3-.89-.37-3.74-.22-4.69.12-.75.97-1.14,1.59-.67.79.6.21,3.62.4,4.65.05.29.45.68.73.73l42.01-.02c.45-.25.74-.72.76-1.24v-11.04c.06-.3.48-.66.76-.71Z"/><path class="cls-1" d="M18.56,16.04c.2-1.14,1.81-1.16,1.99,0l-.05,12.04c-.15.36-.43.59-.81.65-.82.13-3.25.1-4.12,0s-1.06-.44-1.14-1.26l.06-18.44c.11-.44.35-.71.81-.78.77-.12,3.6-.12,4.39-.01.45.06.78.42.85.88.08.5.08,3.11-.05,3.53-.21.69-1.19.85-1.64.36-.04-.04-.3-.66-.3-.7v-2.2h-2.13v16.63h2.13v-10.71Z"/><path class="cls-1" d="M6.94,12.41c.59-.13,3.84-.12,4.49-.02.42.07.73.35.84.75l.03,14.61c0,.44-.32.87-.76.97-.58.13-3.84.12-4.49.02-.46-.07-.71-.34-.81-.78l-.06-14.44c.04-.5.23-.98.76-1.1ZM10.31,14.24h-2.13v12.51h2.13v-12.51Z"/><path class="cls-1" d="M23.44,16.54c.52-.11,4.09-.13,4.62-.03.33.06.53.38.68.65l.06,10.59c0,.4-.28.82-.66.94-.52.16-3.65.13-4.33.06-.91-.1-1.06-.53-1.14-1.39-.27-3.09.21-6.58,0-9.72.04-.5.23-.98.76-1.1ZM26.94,18.37h-2.26v8.38h2.26v-8.38Z"/><path class="cls-1" d="M31.23,49.8c.17-.18.7-.28.96-.31.92-.08,2.97-.1,3.87,0,.41.05.81.24.94.66.16.5.14,3.81.06,4.47-.08.71-.46.92-1.13.99s-3.72.09-4.27-.12c-.66-.26-.68-.91-.73-1.53-.05-.74-.11-3.71.31-4.16ZM35.19,51.5h-2.26v2.13h2.26v-2.13Z"/><path class="cls-1" d="M31.82,57.78c.62-.14,3.38-.11,4.1-.03.68.08,1.05.28,1.13.99.07.63.07,4.15-.1,4.56-.16.37-.52.52-.89.57-.64.07-3.97.08-4.43-.1-.13-.05-.36-.24-.44-.36-.4-.61-.4-4.59,0-5.2.11-.17.43-.39.63-.43ZM35.19,59.75h-2.26v2.13h2.26v-2.13Z"/><path class="cls-1" d="M40.07,57.78c.62-.14,3.52-.11,4.23-.03.62.07.93.39,1,1,.08.66.09,3.96-.06,4.47s-.62.61-1.07.66c-.65.07-3.82.08-4.29-.1-.32-.13-.53-.42-.57-.76-.09-.7-.11-3.89.01-4.53.06-.31.45-.64.76-.71ZM43.43,59.75h-2.26v2.13h2.26v-2.13Z"/><path class="cls-1" d="M31.23,16.07c-.59-.63.07-1.79.96-1.7,3.8.31,8.26-.42,11.97,0,1.56.18,1.45,1.85.14,2-3.9-.27-8.27.35-12.12,0-.26-.02-.78-.12-.96-.31Z"/><path class="cls-1" d="M31.23,20.2c-.59-.63.07-1.79.96-1.7,3.8.31,8.26-.42,11.97,0,1.56.18,1.45,1.85.14,2-3.9-.27-8.27.35-12.12,0-.26-.02-.78-.12-.96-.31Z"/><path class="cls-1" d="M38.08,10.29c1.01-.18,5.15-.17,6.21-.02,1.39.19,1.27,1.8.14,1.98-1,.16-5.37.16-6.37,0-1.11-.17-1.23-1.73.02-1.96Z"/><path class="cls-1" d="M47.53,26.52c6.79-.66,12.43,4.95,11.87,11.73-.08.91-.76,4.74-2.26,3.07-.54-.6.1-1.68.23-2.43,1.75-9.83-11.44-14.53-16.35-6.11-5.07,8.71,6.12,17.74,13.59,11.07.73-.65,1.47-2.3,2.58-1.52,1.3.91-1.6,3.22-2.35,3.74-4.93,3.44-11.76,2.18-15.1-2.78-4.51-6.69-.23-15.98,7.8-16.77Z"/><path class="cls-1" d="M49.39,30.11c.23.25.2.91.37,1.16.12.18,1.02.52,1.32.8.77.7,1.91,3.28.37,3.57-1.26.24-1.06-1.21-1.44-1.84-1.14-1.89-4.13.1-2.59,1.93.63.75,1.09.45,1.79.61,3.24.76,4.15,4.66,1.31,6.48-.19.13-.92.4-.95.45-.17.29.26.98-.59,1.34-1.3.56-1.14-1.03-1.36-1.37-.06-.1-.75-.31-.99-.47-.99-.67-2.4-3.37-.81-3.86,1.29-.4,1.1,1.4,1.6,2.01,1.11,1.38,3.4.09,2.76-1.69-.44-1.23-1.77-.9-2.75-1.24-2.61-.9-3.1-4.56-.84-6.16.23-.16,1.01-.5,1.05-.55.16-.25-.05-.76.32-1.14s1.1-.39,1.43-.03Z"/><path class="cls-1" d="M43.14,37.02c1.39-.23,1.65,1.77.6,2.08-1.65.49-2.09-1.83-.6-2.08Z"/><path class="cls-1" d="M54.44,37.02c1.69-.35,1.79,2.69-.24,2.05-.98-.31-.76-1.84.24-2.05Z"/></svg>