<?xml version="1.0" encoding="UTF-8"?><svg id="Layer_1" xmlns="http://www.w3.org/2000/svg" viewBox="0 0 70 70"><defs><style>.cls-1{fill:#ab0000;}</style></defs><path class="cls-1" d="M44.28,67.98c-2.88-.22-5.69-1.33-8.19-2.7l-7.83-.03c-.98-.29-.5-1.91-.03-1.91h5.35c-6.06-5.72-7.61-14.63-3.5-21.99,1.07-1.93,2.49-3.38,4.02-4.94H8.01c-.21,0-.63-.5-.68-.74-.33-1.51,1.56-1.38,2.55-1.32v-6.76c0-.18.7-.59.97-.59s.97.4.97.59v6.76h2.71v-12.89h-2.71v2.51c0,.47-1.62.95-1.91-.03-.1-.34-.09-3.01-.02-3.45.1-.61.76-1.04,1.34-1.11.72-.09,3.43-.1,4.1.03.59.12,1.25.87,1.25,1.45v13.47h2.58V11.22c0-.37.74-.99,1.12-1.07.6-.12,3.99-.11,4.55.03.43.11,1.03.73,1.03,1.16v23h2.58v-14.11c0-.25.73-1.08,1.02-1.17.45-.14,4.03-.13,4.55-.03.39.08,1.12.7,1.12,1.07v14.24h2.25s.35-.2.39-.26l.06-7.54c.02-.54.6-1.13,1.11-1.21.71-.11,3.66-.11,4.37,0,.57.09,1.23.93,1.23,1.47v5.48c1.95-.05,3.93.05,5.8.64V4.26s-.18-.19-.19-.19H4.14s-.19.18-.19.19v58.76s.2.23.26.26l20.17.06c1.09.14,1.09,1.8,0,1.95l-20.82-.07c-.76-.28-1.2-.72-1.48-1.48l-.06-59.86c.11-.89,1.04-1.7,1.9-1.83l46.23-.04c1.39.08,2.22,1.33,2.25,2.64l.02,28.85c.07.21,1.95,1.04,2.34,1.27,3.62,2.16,6.34,5.64,7.82,9.58,1.45.26,4.2-.57,4.5,1.56.12.86-.18,2.53,0,3.2.02.08.83.23.91.59v.9c-.14.33-.9.46-.9.52v3.41c0,.34-.76,1.11-1.12,1.2-.68.15-3.05-.14-3.39.09-2,5.84-6.86,10.33-12.9,11.71-.85.19-1.71.26-2.55.47-.93-.05-1.92.07-2.83,0ZM23.79,12.06h-2.58v22.29h2.58V12.06ZM33.07,21.08h-2.58v13.27h2.58v-13.27ZM42.47,27.26h-2.71v5.93l2.71-.64v-5.28ZM60.37,44.64c.34-.58-2.35-4.41-2.88-5.01-10.36-11.74-29.77-2.72-27.49,12.93,1.89,12.99,18.55,18.01,27.37,8.2.56-.62,3.35-4.54,3.01-5.14-.02-.04-.48-.28-.68-.54-.22-.3-.42-.8-.59-1.15l-1.26,2.92c-5.49,9.87-19.94,9.44-24.78-.77-4.74-9.99,3.61-21.22,14.48-19.77,5.32.71,10.13,4.79,11.44,10.01l.77-1.22c.06-.22.6-.43.63-.47ZM53.56,51.1h-1.93c-.74,4.13-5.26,6.36-8.98,4.27-4.48-2.51-3.88-9.3.96-10.94,3.65-1.24,7.33.99,8.02,4.74h1.93c-1.15-8-11.91-9.63-15.23-2.15-.36.81-.53,2.64-1.88,2.05-1.11-.48-.18-2.55.2-3.34,4.02-8.34,16.18-7.01,18.64,1.89.09.31.21,1.36.25,1.42.18.26,1.5.06,1.88.12-.84-11.25-15.68-15.05-21.83-5.4-5.43,8.52,1.76,19.54,11.7,18.14,5.37-.76,9.83-5.35,10.13-10.81-.38.06-1.7-.14-1.88.12-.08.12-.16,1.11-.25,1.43-2.24,8.05-12.82,10.22-17.7,3.39-.57-.8-2.42-3.72-1.02-4.33s1.66,1.46,2.14,2.31c3.74,6.71,13.83,4.57,14.84-2.92ZM49.56,49.17c-.41-1.29-1.24-2.34-2.54-2.81-4.32-1.53-7.44,4.11-3.83,6.93,2.35,1.83,5.55.57,6.38-2.19h-2c-.11,0-.71,1.05-1.69,1.15-3.32.35-2.96-5.15.43-4.14.7.21,1.18,1.06,1.26,1.06h2ZM65.02,46.46h-3.67l-1.61,2.71h5.28v-2.71ZM65.02,51.1h-5.28l1.61,2.71h3.67v-2.71Z"/><path class="cls-1" d="M7.9,41.33l17.3.04c.73.49.73,1.31,0,1.8l-17.08.07c-.98-.13-1.11-1.48-.22-1.91Z"/><path class="cls-1" d="M7.9,51l17.3.04c.73.49.73,1.31,0,1.8l-17.08.07c-.98-.13-1.11-1.48-.22-1.91Z"/><path class="cls-1" d="M28.73,16.27c-.65-.71-.09-1.68.79-1.77h13.92c1.33.15,1.4,1.9,0,2.07-4.47-.33-9.53.42-13.93,0-.28-.03-.59-.09-.79-.31Z"/><path class="cls-1" d="M8.03,55.76l11.82-.02c1.23.2,1.15,1.97-.12,2.06h-11.59c-1.09-.18-1.16-1.73-.11-2.04Z"/><path class="cls-1" d="M15.25,46.1l9.63-.02c1.14.18,1.19,1.91-.12,2.06-2.9.34-6.43-.25-9.4-.01-1.13-.18-1.18-1.73-.11-2.03Z"/><path class="cls-1" d="M29.17,10.15l8.73-.02c1.04.38.95,1.72-.12,1.94-2.6-.29-6,.37-8.5-.01-1.06-.16-1.07-1.69-.11-1.9Z"/><path class="cls-1" d="M16.28,14.41c.65.76.03,1.66-.93,1.77-1.47.17-5.49.17-6.95-.01s-1.41-1.86-.26-2.04c2.34.2,5.2-.3,7.47-.01.2.03.54.15.66.3Z"/><path class="cls-1" d="M7.9,10.15l7.83-.02c1.03.16,1.03,1.76,0,1.92h-7.72c-.91-.35-.94-1.43-.11-1.9Z"/><path class="cls-1" d="M44.24,19.31c.59.69.09,1.63-.81,1.76s-3.72.12-4.62,0c-1.36-.19-1.22-1.86-.27-2.05.71-.14,4.24-.11,5.03,0,.2.03.54.15.66.3Z"/><path class="cls-1" d="M8.03,46.1c.5-.11,3.96-.11,4.46,0,1.06.24,1.03,1.85-.11,2.03-.66.1-3.71.1-4.32-.05-1.08-.26-.98-1.77-.03-1.98Z"/><path class="cls-1" d="M40.76,10.15c.32-.09,2.82-.07,3.14.03.77.25.74,1.65-.1,1.85-.35.08-2.73.09-3.04,0-.78-.23-.78-1.65,0-1.88Z"/></svg>