<svg width="30" height="30" viewBox="0 0 30 30" fill="none" xmlns="http://www.w3.org/2000/svg">
<path d="M15.0052 29.9897C7.71975 29.9897 1.50982 24.7932 0.237849 17.637C0.0775595 16.7373 0 15.8945 0 15.062C0 14.6225 0.274043 14.3123 0.661841 14.302C1.07549 14.302 1.34953 14.607 1.35988 15.0569C1.49948 20 3.65564 23.8573 7.76112 26.5253C9.89659 27.9111 12.3113 28.6143 14.938 28.6143C15.2999 28.6143 15.667 28.5988 16.0341 28.5729C21.7839 28.1644 26.6598 24.1107 28.1748 18.485C29.1417 14.8914 28.5988 11.1324 26.6443 7.91106C24.6949 4.69493 21.6184 2.4819 17.9886 1.67528C16.9493 1.44778 15.91 1.32885 14.9069 1.32885C12.3992 1.32885 9.96898 2.04757 7.68873 3.46432C7.56463 3.54188 7.44571 3.62461 7.32678 3.70734C7.24923 3.75905 7.20786 3.82627 7.18718 3.86763L6.95967 4.22958L7.3423 4.40021C7.39917 4.42089 7.45088 4.44157 7.51293 4.45191L7.75078 4.49328C8.17477 4.56567 8.59876 4.63289 9.02792 4.7001C9.27094 4.7363 9.46226 4.84488 9.57601 5C9.67942 5.13961 9.71562 5.31541 9.68459 5.51189C9.63289 5.84281 9.35367 6.05998 8.97622 6.05998C8.91934 6.05998 8.86246 6.05481 8.80559 6.04447C7.53361 5.83764 6.26163 5.63599 4.98966 5.43433C4.45708 5.3516 4.25026 5.06722 4.32782 4.53981C4.5243 3.2575 4.72079 1.97518 4.92761 0.692864C4.99483 0.274043 5.25336 0.0258531 5.61531 0.0258531C5.6515 0.0258531 5.6877 0.0258531 5.72389 0.0310238C6.10135 0.0775594 6.32885 0.423992 6.27715 0.873837C6.25129 1.08583 6.2151 1.29266 6.18408 1.50465L6.1272 1.87177C6.04964 2.14581 6.09617 2.33195 6.26163 2.45605L6.35471 2.52327L6.48397 2.52844C6.62358 2.52844 6.73733 2.45605 6.84592 2.38366C8.43847 1.36505 9.94829 0.718718 11.4891 0.398139C12.7766 0.134436 14.0383 0 15.2379 0C19.7156 0 23.5729 1.89762 26.7011 5.63599C28.8573 8.21613 30 11.4478 30 14.9793C30 22.001 25.0207 28.1696 18.1593 29.6536C17.12 29.8759 16.06 29.9897 15.0052 29.9897Z" fill="#AB0000"/>
<path d="M14.9896 15.5738C14.6483 15.5738 14.3743 15.2997 14.3743 14.9584V4.74128C14.3743 4.40002 14.6483 4.12598 14.9896 4.12598C15.3308 4.12598 15.6049 4.40002 15.6049 4.74128V14.9533C15.6049 15.2997 15.3308 15.5738 14.9896 15.5738Z" fill="#AB0000"/>
<path d="M20.4499 20.1757C20.212 20.4187 19.8242 20.4239 19.5812 20.186L14.7053 15.4497C14.4623 15.2119 14.4571 14.8241 14.695 14.5811C14.9328 14.338 15.3206 14.3329 15.5636 14.5707L20.4395 19.307C20.6774 19.5397 20.6826 19.9327 20.4499 20.1757Z" fill="#AB0000"/>
<path d="M14.9897 16.0497C15.5437 16.0497 15.9928 15.6006 15.9928 15.0466C15.9928 14.4926 15.5437 14.0435 14.9897 14.0435C14.4357 14.0435 13.9866 14.4926 13.9866 15.0466C13.9866 15.6006 14.4357 16.0497 14.9897 16.0497Z" fill="#AB0000"/>
</svg>
