<svg width="15" height="18" viewBox="0 0 15 18" fill="none" xmlns="http://www.w3.org/2000/svg">
<path d="M2.67601 17.9998C2.57979 17.9594 2.48667 17.9532 2.41528 17.947C2.38424 17.9439 2.3563 17.9439 2.33147 17.9377C0.940883 17.6739 0.0717675 16.693 0.0127918 15.3148C-0.0554958 13.769 0.149367 12.4374 0.633589 11.2424C1.01848 10.2926 1.53064 9.67489 2.24145 9.2931C2.70705 9.04478 3.22231 8.91752 3.81828 8.9082H3.82448C3.97347 8.9082 4.11626 8.9858 4.24663 9.06651C4.36147 9.1379 4.47942 9.21239 4.59427 9.28689C4.74016 9.38001 4.88915 9.47623 5.03814 9.56935C5.84207 10.066 6.65842 10.3174 7.46856 10.3174C8.2818 10.3174 9.10126 10.066 9.90519 9.56625C9.94243 9.54142 9.98279 9.51969 10.02 9.49486C10.197 9.38622 10.3832 9.27137 10.557 9.14411C10.765 8.98891 10.9978 8.91441 11.2865 8.91441C11.3827 8.91441 11.4882 8.92372 11.6031 8.93924C12.6895 9.09755 13.4903 9.67489 14.049 10.7023C14.4743 11.4814 14.7257 12.3785 14.8685 13.6138C14.9274 14.1136 14.9492 14.6351 14.9367 15.2031C14.9057 16.693 13.8907 17.8042 12.407 17.9656C12.4039 17.9656 12.3977 17.9656 12.3946 17.9656C12.3635 17.9687 12.3077 17.9718 12.2487 17.9967H2.67601V17.9998ZM7.67653 17.3666C8.06452 17.3666 8.44942 17.3666 8.83742 17.3697C9.29991 17.3697 9.7624 17.3728 10.2249 17.3728C10.9295 17.3728 11.5068 17.3697 12.0469 17.3635C13.4251 17.3479 14.3128 16.4385 14.3097 15.051C14.3097 14.6133 14.2973 14.0981 14.2321 13.5859C14.1328 12.8006 13.9683 11.8849 13.5151 11.0437C13.0619 10.2057 12.4473 9.72765 11.6341 9.58487C11.5286 9.56625 11.4386 9.55694 11.3547 9.55694C11.1251 9.55694 10.9295 9.62522 10.7588 9.7649C10.6532 9.85181 10.5322 9.92321 10.4049 10.0008C10.3584 10.0287 10.3149 10.0567 10.2684 10.0846C9.35268 10.6589 8.41528 10.9506 7.48408 10.9506C6.73602 10.9506 5.96623 10.7613 5.19644 10.3919C4.93571 10.2646 4.6967 10.1063 4.44218 9.93873C4.29629 9.8425 4.14419 9.74007 3.98589 9.64695C3.97658 9.64074 3.97037 9.63764 3.96106 9.63143C3.90519 9.59418 3.81828 9.54142 3.69722 9.54142C3.69101 9.54142 3.6817 9.54142 3.67549 9.54142C2.9802 9.58177 2.43079 9.81146 2.00245 10.2429C1.6579 10.5906 1.38786 11.0158 1.18299 11.5466C0.773268 12.6019 0.599445 13.7815 0.633589 15.2621C0.652212 16.0381 1.00296 16.6526 1.6517 17.0344C2.03349 17.261 2.48356 17.3666 3.06401 17.3666C3.70032 17.3666 6.20834 17.3666 6.20834 17.3666H7.67653Z" fill="#AB0000"/>
<path d="M7.35374 8.43973C6.23631 8.43973 5.18095 7.99897 4.37702 7.19814C3.57619 6.39731 3.13232 5.34506 3.13232 4.23383C3.13232 3.10709 3.56378 2.04553 4.35219 1.25091C5.14371 0.453182 6.20216 0.00931195 7.33201 0H7.36616C8.4867 0 9.53895 0.434558 10.3305 1.22607C11.122 2.01759 11.5627 3.07915 11.5721 4.21211C11.5814 5.32023 11.1499 6.37248 10.3584 7.17641C9.55757 7.98965 8.4929 8.43663 7.36616 8.44283L7.35374 8.43973ZM7.35064 0.627005C6.3853 0.630109 5.48204 1.00259 4.80848 1.67926C4.13491 2.35592 3.76554 3.25918 3.76554 4.22452C3.77174 6.20176 5.3734 7.80962 7.34133 7.80962H7.36305C9.3465 7.79721 10.9544 6.18314 10.945 4.21211C10.9388 2.20072 9.36202 0.627005 7.35685 0.627005H7.35064Z" fill="#AB0000"/>
</svg>
