<svg width="18" height="18" viewBox="0 0 18 18" fill="none" xmlns="http://www.w3.org/2000/svg">
<path d="M2.35846 18C1.99846 18 1.68191 17.8852 1.42122 17.6555C1.09536 17.3731 0.940186 16.9945 0.940186 16.501C0.943289 12.9941 0.943289 9.43138 0.943289 5.98345V2.69069C0.943289 2.62552 0.943289 2.56655 0.946392 2.51069C0.98053 1.85276 1.47398 1.30655 2.1257 1.21345C2.27777 1.19172 2.44225 1.18241 2.64398 1.18241C2.7526 1.18241 2.86432 1.18552 2.96984 1.18862C3.07225 1.19172 3.18088 1.19483 3.28329 1.19483C3.34225 1.19483 3.35777 1.18552 3.35777 1.18552C3.35777 1.18552 3.36398 1.17 3.35777 1.12034C3.30501 0.567931 3.53467 0.192414 4.03743 0.00620689L4.05605 0H4.54019L4.5557 0.00620689C4.92812 0.136552 5.14846 0.353793 5.22915 0.673448C5.26639 0.822414 5.26019 0.971379 5.25088 1.11414V1.13586C5.24777 1.1669 5.25088 1.18241 5.25398 1.18862C5.26019 1.19172 5.2757 1.19483 5.31294 1.19483C6.55743 1.19483 7.79881 1.19172 9.04329 1.19172C10.2909 1.19172 11.5385 1.19172 12.786 1.19483C12.8264 1.19483 12.8419 1.19172 12.8481 1.18862C12.8512 1.18241 12.8543 1.17 12.8512 1.13586V1.10793C12.845 0.968276 12.8357 0.822414 12.8729 0.673448C12.9567 0.35069 13.1771 0.133448 13.5464 0.00620689L13.5557 0H14.0398L14.0554 0.00620689C14.4805 0.173793 14.7009 0.446897 14.7319 0.841034C14.7381 0.915517 14.7443 1.02414 14.7319 1.13586C14.7288 1.1669 14.7319 1.18241 14.7319 1.18862C14.7381 1.19172 14.7505 1.19172 14.7754 1.19172H14.7878C14.8964 1.18862 15.0143 1.18552 15.1571 1.18552C15.244 1.18552 15.334 1.18552 15.4209 1.18552C15.4954 1.18552 15.5698 1.18552 15.6443 1.18552C16.5723 1.18862 17.1495 1.76276 17.1526 2.68759C17.1526 7.29 17.1526 11.8955 17.1526 16.4979V16.5072C17.1526 16.6345 17.1526 16.7648 17.1216 16.8983C16.9633 17.5779 16.4109 18 15.6816 18C13.8474 18 12.0102 18 10.176 18H2.35846ZM1.6757 16.7928C1.76881 17.1062 2.0326 17.2924 2.3895 17.2924C3.50053 17.2924 4.61157 17.2924 5.7195 17.2924H15.6598C16.1719 17.2924 16.4419 17.0255 16.4419 16.5197C16.4419 15.7686 16.4419 14.9493 16.4419 14.0121C16.2588 14.1952 16.0726 14.3783 15.8895 14.5645C15.2688 15.1821 14.6264 15.8214 13.9995 16.4576C13.6674 16.7959 13.2702 16.9603 12.7892 16.9603C11.225 16.9572 9.57088 16.9572 7.73363 16.9572C6.00812 16.9572 4.2826 16.9572 2.55708 16.9603H2.55398C2.27777 16.9603 1.96432 16.9448 1.6757 16.7897C1.6757 16.7897 1.6757 16.7897 1.6757 16.7928ZM1.73156 5.62655C1.6695 5.62655 1.65708 5.63586 1.65708 5.63586C1.65708 5.63586 1.64777 5.64828 1.64777 5.71966C1.65088 7.84241 1.65088 9.99931 1.65088 12.0848C1.65088 13.2207 1.65088 14.3597 1.65088 15.4955C1.65088 15.9734 1.92398 16.2497 2.40191 16.2497C4.04053 16.2497 5.68226 16.2497 7.32088 16.2497C9.02157 16.2497 10.7223 16.2497 12.4198 16.2497C12.7985 16.2497 12.9878 16.0541 12.9878 15.6724C12.9878 15.4055 12.9878 15.1386 12.9878 14.8717C12.9878 14.611 12.9878 14.3503 12.9878 14.0897C12.9878 13.3107 13.4936 12.8048 14.2726 12.7986C14.3936 12.7986 14.5116 12.7955 14.6326 12.7955C14.8095 12.7924 14.9833 12.7924 15.1602 12.7924C15.4023 12.7924 15.6009 12.7955 15.7902 12.8048C15.8057 12.8048 15.8181 12.8048 15.8336 12.8048C16.0229 12.8048 16.1781 12.749 16.2836 12.6466C16.3954 12.5348 16.4512 12.3672 16.4481 12.1469C16.4388 10.6448 16.4388 9.11483 16.4419 7.63759C16.4419 7.02 16.4419 6.39931 16.4419 5.78172C16.4419 5.75379 16.4419 5.72586 16.4419 5.70414C16.4419 5.67931 16.4419 5.65448 16.4419 5.63586C16.4326 5.63586 16.4202 5.63586 16.4016 5.63586C16.4016 5.63586 16.3178 5.63586 16.2929 5.63586C13.9374 5.63586 11.5819 5.63586 9.22329 5.63586H5.55812C5.23846 5.63586 5.07088 5.52103 5.06467 5.29138C5.06156 5.19517 5.0926 5.11448 5.15157 5.05552C5.23225 4.97172 5.36881 4.93138 5.56432 4.93138H16.3488C16.3612 4.93138 16.3705 4.93138 16.3829 4.93138C16.3923 4.93138 16.4016 4.93138 16.4109 4.93138C16.4264 4.93138 16.4357 4.93138 16.4419 4.92828C16.445 4.92207 16.4481 4.90965 16.445 4.88172C16.4419 4.4969 16.4419 4.10586 16.4419 3.72724C16.4419 3.35793 16.4419 2.97931 16.4388 2.60379C16.4357 2.20034 16.1533 1.91483 15.7498 1.90862C15.4271 1.90552 15.1105 1.90241 14.8716 1.90241C14.7319 1.90241 14.5954 1.90241 14.4557 1.90241C14.316 1.90241 14.1795 1.90241 14.0398 1.90241C13.8847 1.90241 13.7326 1.90241 13.5774 1.90241C13.5619 1.90241 13.5526 1.90241 13.5495 1.90552C13.5495 1.91172 13.5464 1.92414 13.5464 1.94276C13.5495 2.05448 13.5495 2.16931 13.5495 2.27793C13.5495 2.35862 13.5495 2.43931 13.5495 2.5169C13.5526 2.7 13.5743 2.72483 13.7605 2.76207C13.9716 2.80552 14.0957 2.96069 14.074 3.1531C14.0523 3.33931 13.8971 3.46345 13.6923 3.46345H13.6829C13.2547 3.45724 12.8698 3.08793 12.845 2.65965C12.8357 2.52 12.8388 2.38034 12.8388 2.24379C12.8388 2.17862 12.8388 2.11345 12.8388 2.04828C12.8388 2.02034 12.8388 1.99552 12.8388 1.97379C12.8388 1.94897 12.8388 1.92414 12.8388 1.90552C12.8326 1.90552 12.8233 1.90552 12.8109 1.90552C12.7985 1.90552 12.786 1.90552 12.7705 1.90552C12.7519 1.90552 12.7302 1.90552 12.7054 1.90552C11.104 1.90552 9.5026 1.90552 7.90432 1.90552H4.19881C4.18639 1.90552 4.17398 1.90552 4.16157 1.90552C4.14915 1.90552 4.13363 1.90552 4.12122 1.90552C4.1057 1.90552 4.08708 1.90552 4.07157 1.90241C4.06846 1.90241 4.06846 1.90241 4.06536 1.90241C4.06536 1.90862 4.06536 1.91483 4.06536 1.92414C4.06536 2.01724 4.06536 2.11345 4.06536 2.20655C4.06536 2.31828 4.06536 2.43621 4.06846 2.54793C4.07156 2.68448 4.11501 2.73103 4.26398 2.75897C4.49053 2.79931 4.61777 2.94828 4.59605 3.15C4.57743 3.34241 4.42846 3.46345 4.21432 3.46345C4.20501 3.46345 4.19881 3.46345 4.1895 3.46345C3.7426 3.44483 3.3795 3.0631 3.36088 2.59138C3.35467 2.38345 3.35467 2.17241 3.36088 1.94276C3.36088 1.92414 3.36088 1.91172 3.35777 1.90552C3.35156 1.90552 3.34225 1.90241 3.32053 1.90241H3.31432C3.20881 1.90552 3.10019 1.90552 2.99467 1.90552C2.9295 1.90552 2.6657 1.90552 2.60053 1.90552C2.53225 1.90552 2.46088 1.90552 2.3926 1.90552C1.93019 1.90241 1.65088 2.18172 1.65088 2.64724C1.65088 2.93276 1.65088 3.22138 1.65088 3.5069C1.65088 3.94448 1.65088 4.39448 1.64777 4.83828C1.64777 4.90034 1.65708 4.91276 1.65708 4.91276C1.66019 4.91276 1.6726 4.92207 1.73777 4.92207H1.74398C2.10398 4.91897 2.49191 4.91897 2.96363 4.91897C3.27088 4.91897 3.57501 4.91897 3.88225 4.91897H4.24846C4.32294 4.91897 4.40363 4.91897 4.47812 4.94069C4.63639 4.98414 4.72639 5.10517 4.72639 5.27586C4.72329 5.44655 4.63329 5.56448 4.47191 5.60793C4.40674 5.62345 4.34157 5.62655 4.2795 5.62655H3.77053C3.49743 5.62655 3.22432 5.62655 2.94812 5.62655C2.47639 5.62655 2.08846 5.62655 1.73467 5.62345L1.73156 5.62655ZM14.5364 13.5C14.4495 13.5 14.3626 13.5 14.2726 13.5031C13.8878 13.5093 13.7016 13.6955 13.6985 14.0772C13.6985 14.6545 13.6954 15.179 13.6985 15.7097C13.6985 15.7252 13.6985 15.7407 13.6954 15.7562C14.2788 15.1728 14.8623 14.5893 15.4457 14.0059L15.9547 13.4969C15.7747 13.5031 15.5823 13.5062 15.3464 13.5062C15.2098 13.5062 15.0733 13.5062 14.9367 13.5031C14.8064 13.5031 14.6729 13.5 14.5364 13.5ZM13.7885 0.707586C13.6054 0.707586 13.5557 0.760345 13.5526 0.952759C13.5495 1.05207 13.5495 1.15448 13.5619 1.17621C13.5805 1.18862 13.6798 1.18862 13.776 1.18862C13.8847 1.18862 13.9964 1.18862 14.0181 1.1731C14.0305 1.15448 14.0274 1.05517 14.0274 0.958966C14.0243 0.769655 13.9654 0.707586 13.7885 0.707586L13.7854 0.614483V0.707586H13.7885ZM4.30432 0.707586C4.13053 0.707586 4.07156 0.766552 4.06536 0.943448C4.06225 1.04897 4.05915 1.15448 4.07157 1.17621C4.09019 1.18862 4.1957 1.18862 4.29501 1.18862C4.40053 1.18862 4.50915 1.18862 4.53088 1.1731C4.54639 1.15448 4.54329 1.04276 4.54019 0.937241C4.54019 0.760345 4.48432 0.707586 4.30432 0.707586Z" fill="#AB0000"/>
<path d="M3.34237 12.1592C3.26478 12.1592 3.18409 12.1592 3.10651 12.1561C2.76202 12.1499 2.51996 11.911 2.51064 11.5758C2.50133 11.163 2.50133 10.7348 2.51064 10.3034C2.51685 9.96511 2.75892 9.72614 3.1003 9.71683C3.31133 9.71062 3.52237 9.70752 3.7272 9.70752C3.93823 9.70752 4.15237 9.71062 4.3572 9.71683C4.70478 9.72614 4.94064 9.97131 4.94996 10.3251C4.95927 10.7317 4.95927 11.1413 4.94996 11.5479C4.94064 11.9172 4.68927 12.1561 4.30754 12.1592C4.23306 12.1592 4.16168 12.1592 4.0872 12.1592C4.01892 12.1592 3.71478 12.1592 3.71478 12.1592C3.65271 12.1592 3.59065 12.1592 3.52858 12.1592C3.46961 12.1592 3.40444 12.1592 3.34237 12.1592ZM3.21513 11.4517C3.22133 11.4517 3.22754 11.4548 3.23996 11.4548H3.24616C3.40133 11.4517 3.56271 11.4517 3.72099 11.4517C3.87927 11.4517 4.04065 11.4517 4.20202 11.4548H4.20823C4.22996 11.4548 4.23927 11.4517 4.24547 11.4517C4.24547 11.4455 4.24858 11.4361 4.24547 11.4175C4.23927 11.3058 4.24237 11.191 4.24237 11.0823C4.24237 11.0358 4.24237 10.9892 4.24237 10.9427C4.24237 10.8961 4.24237 10.8496 4.24237 10.803C4.24237 10.6944 4.23927 10.5827 4.24547 10.471C4.24547 10.4399 4.24547 10.4275 4.24237 10.4213C4.23616 10.4213 4.22685 10.4182 4.20513 10.4182H4.19582C4.04996 10.4213 3.90099 10.4244 3.73961 10.4244C3.59064 10.4244 3.42927 10.4213 3.25237 10.4182H3.24616C3.22754 10.4182 3.21513 10.4213 3.21202 10.4213C3.21202 10.4275 3.20892 10.4399 3.20892 10.4617C3.21513 10.7565 3.21513 11.0668 3.20892 11.4175C3.21202 11.4361 3.21513 11.4455 3.21513 11.4517Z" fill="#AB0000"/>
<path d="M10.4397 12.1592C10.3621 12.1592 10.2846 12.1592 10.2039 12.1561C9.86249 12.1499 9.61731 11.9203 9.6049 11.6006C9.58938 11.1661 9.58938 10.7192 9.6049 10.2723C9.61731 9.95269 9.85628 9.72614 10.1852 9.71683C10.3963 9.71062 10.6104 9.70752 10.8246 9.70752C11.0294 9.70752 11.2373 9.71062 11.4421 9.71683C11.7897 9.72614 12.0287 9.96821 12.0349 10.322C12.0442 10.7441 12.0442 11.1599 12.0349 11.5603C12.0287 11.9141 11.7804 12.153 11.4204 12.1592C11.3428 12.1592 11.2652 12.1592 11.1877 12.1592C11.1225 12.1592 11.0573 12.1592 10.9952 12.1592C10.9332 12.1592 10.8711 12.1592 10.8121 12.1592C10.7501 12.1592 10.688 12.1592 10.6259 12.1592C10.5639 12.1592 10.5018 12.1592 10.4397 12.1592ZM10.8277 11.4486C10.989 11.4486 11.1504 11.4486 11.3087 11.4517C11.3211 11.4517 11.3304 11.4517 11.3335 11.4517C11.3335 11.4455 11.3366 11.433 11.3335 11.4144C11.3304 11.3027 11.3304 11.191 11.3304 11.0823C11.3304 11.0358 11.3304 10.9892 11.3304 10.9427C11.3304 10.8961 11.3304 10.8465 11.3304 10.7999C11.3304 10.6882 11.3304 10.5703 11.3335 10.4555C11.3335 10.4368 11.3335 10.4244 11.3304 10.4182C11.3242 10.4182 11.318 10.4151 11.3056 10.4151C11.1349 10.4182 10.9704 10.4182 10.8121 10.4182C10.6477 10.4182 10.4863 10.4182 10.328 10.4151C10.3156 10.4151 10.3094 10.4151 10.3032 10.4151C10.3032 10.4213 10.3001 10.4337 10.3001 10.4555C10.3032 10.8279 10.3032 11.132 10.3001 11.4113C10.3001 11.4299 10.3001 11.4423 10.3032 11.4455C10.3094 11.4455 10.3156 11.4486 10.328 11.4486H10.3342C10.5018 11.4517 10.6663 11.4486 10.8277 11.4486Z" fill="#AB0000"/>
<path d="M6.88013 12.1594C6.80255 12.1594 6.72186 12.1594 6.64427 12.1563C6.31531 12.147 6.07013 11.9173 6.06082 11.6039C6.04841 11.1725 6.04841 10.7256 6.06082 10.2756C6.07013 9.95597 6.306 9.72631 6.63807 9.7139C6.85531 9.70769 7.06944 9.70459 7.27738 9.70459C7.49151 9.70459 7.70565 9.70769 7.91358 9.7139C8.25186 9.72631 8.48772 9.96528 8.49393 10.3129C8.50324 10.7225 8.50324 11.1415 8.49393 11.5511C8.48462 11.9142 8.23945 12.1501 7.86393 12.1532C7.78945 12.1532 7.71186 12.1532 7.63738 12.1532C7.566 12.1532 7.49462 12.1532 7.42324 12.1532H7.25565C7.19358 12.1532 7.13151 12.1532 7.06944 12.1532C7.00738 12.1594 6.9422 12.1594 6.88013 12.1594ZM7.55669 11.4487C7.63427 11.4487 7.69945 11.4487 7.75841 11.4518H7.77082C7.78013 11.4518 7.78944 11.4518 7.79255 11.4518C7.79255 11.4456 7.79565 11.4363 7.79565 11.4208C7.78944 11.1105 7.78944 10.7877 7.79565 10.4649C7.79565 10.4401 7.79565 10.4277 7.79255 10.4215C7.78634 10.4215 7.77703 10.4184 7.76151 10.4184H7.75531C7.60634 10.4215 7.45427 10.4215 7.28979 10.4215C7.13772 10.4215 6.97634 10.4215 6.79634 10.4184H6.79013C6.77462 10.4184 6.76531 10.4184 6.7591 10.4215C6.7591 10.4277 6.756 10.437 6.756 10.4525C6.7591 10.7536 6.7591 11.0701 6.756 11.427C6.756 11.4394 6.756 11.4487 6.756 11.4549C6.7591 11.4549 6.7622 11.4549 6.76841 11.4549H6.77462C6.83358 11.4518 6.89876 11.4518 6.97634 11.4518C7.026 11.4518 7.07565 11.4518 7.12531 11.4518C7.17186 11.4518 7.21841 11.4518 7.26496 11.4518C7.31151 11.4518 7.36117 11.4518 7.40772 11.4518C7.46048 11.4487 7.51014 11.4487 7.55669 11.4487Z" fill="#AB0000"/>
<path d="M3.36086 8.93481C3.27396 8.93481 3.20258 8.93481 3.13431 8.9317C2.74948 8.92239 2.51672 8.68653 2.51051 8.30481C2.50431 7.87964 2.50431 7.4855 2.51051 7.10067C2.51672 6.73757 2.75258 6.4986 3.11258 6.48929C3.31741 6.48308 3.52534 6.47998 3.73017 6.47998C3.9381 6.47998 4.14603 6.48308 4.35086 6.48929C4.70776 6.4986 4.94672 6.74067 4.95293 7.10377C4.96224 7.4917 4.96224 7.89515 4.95293 8.30791C4.94672 8.68343 4.70465 8.91929 4.32293 8.9317C4.24845 8.93481 4.17086 8.93481 4.09638 8.93481C4.03431 8.93481 3.97224 8.93481 3.91017 8.93481C3.8481 8.93481 3.78914 8.93481 3.72707 8.93481C3.665 8.93481 3.60603 8.93481 3.54396 8.93481C3.48189 8.93481 3.41983 8.93481 3.36086 8.93481ZM3.72707 8.22412C3.89155 8.22412 4.05603 8.22412 4.21431 8.22722C4.22983 8.22722 4.24224 8.22722 4.24534 8.22412C4.24534 8.21791 4.24845 8.2086 4.24845 8.18998C4.24534 8.07826 4.24534 7.96343 4.24534 7.85481C4.24534 7.80826 4.24534 7.76171 4.24534 7.71826C4.24534 7.67171 4.24534 7.62205 4.24534 7.5755C4.24534 7.46377 4.24224 7.34584 4.24845 7.22791C4.24845 7.21239 4.24845 7.19998 4.24845 7.19688C4.24224 7.19688 4.23293 7.19377 4.21741 7.19377C4.05603 7.19688 3.89776 7.19688 3.73948 7.19688C3.5781 7.19688 3.41672 7.19688 3.25534 7.19377H3.24914C3.23051 7.19377 3.2212 7.19377 3.215 7.19688C3.215 7.20308 3.21189 7.21239 3.21189 7.22481C3.215 7.51033 3.2181 7.82067 3.21189 8.19929C3.21189 8.2117 3.21189 8.22102 3.21189 8.22722C3.215 8.22722 3.22431 8.22722 3.23362 8.22722C3.4012 8.22412 3.56569 8.22412 3.72707 8.22412Z" fill="#AB0000"/>
<path d="M6.89252 8.93463C6.80562 8.93463 6.73114 8.93463 6.66597 8.93153C6.29666 8.91912 6.0639 8.68946 6.05459 8.32946C6.04528 7.9167 6.04528 7.50084 6.05459 7.09119C6.0639 6.73739 6.29666 6.50153 6.65045 6.49222C6.85528 6.48601 7.06321 6.48291 7.27425 6.48291C7.47597 6.48291 7.6839 6.48601 7.89183 6.49222C8.25183 6.50153 8.48769 6.7405 8.497 7.1036C8.50631 7.51946 8.50631 7.92912 8.497 8.32636C8.48769 8.69257 8.24873 8.92532 7.87321 8.93463C7.80493 8.93774 7.73045 8.93774 7.64045 8.93774C7.57218 8.93774 7.507 8.93774 7.43873 8.93774C7.37976 8.93774 7.31769 8.93774 7.25873 8.93774C7.19666 8.93774 7.13769 8.93774 7.07562 8.93774C7.01666 8.93463 6.95459 8.93463 6.89252 8.93463ZM7.55356 8.22394C7.63114 8.22394 7.69631 8.22394 7.75528 8.22705H7.76459C7.777 8.22705 7.78631 8.22705 7.78942 8.22394C7.78942 8.21774 7.79252 8.20843 7.79252 8.18981C7.78942 7.88257 7.78942 7.56291 7.79252 7.21532C7.79252 7.20291 7.79252 7.1967 7.79252 7.1936C7.78631 7.1936 7.78011 7.1905 7.76769 7.1905C7.60011 7.1936 7.43562 7.1936 7.27114 7.1936C7.10976 7.1936 6.95149 7.1936 6.79011 7.1905C6.77459 7.1905 6.76838 7.1905 6.76218 7.1936C6.76218 7.19981 6.76218 7.20601 6.76218 7.21843C6.76528 7.58463 6.76528 7.90119 6.76218 8.19291C6.76218 8.20843 6.76218 8.21774 6.76528 8.22394C6.76838 8.22394 6.77769 8.22705 6.79011 8.22705H6.79942C6.85528 8.22394 6.91735 8.22394 6.99183 8.22394C7.03838 8.22394 7.08804 8.22394 7.13459 8.22394C7.18114 8.22394 7.22459 8.22394 7.27114 8.22394C7.31769 8.22394 7.36735 8.22394 7.4139 8.22394C7.45735 8.22394 7.507 8.22394 7.55356 8.22394Z" fill="#AB0000"/>
<path d="M14.3781 8.93774C14.1794 8.93774 13.9715 8.93463 13.7605 8.93153C13.4005 8.92532 13.1584 8.69567 13.1491 8.34808C13.1336 7.92912 13.1336 7.50084 13.1491 7.07257C13.1615 6.72808 13.3943 6.50153 13.745 6.49222C13.9591 6.48601 14.167 6.48291 14.3687 6.48291C14.5829 6.48291 14.797 6.48601 15.0018 6.49222C15.3494 6.50153 15.5791 6.7405 15.5884 7.1005C15.5915 7.24325 15.5915 7.38601 15.5915 7.52257C15.5915 7.58463 15.5915 7.6467 15.5915 7.70877C15.5915 7.77084 15.5915 7.83291 15.5915 7.89808C15.5915 8.03774 15.5946 8.1805 15.5884 8.32015C15.5791 8.68325 15.3401 8.92222 14.9832 8.92843C14.7877 8.93463 14.5829 8.93774 14.3781 8.93774ZM13.8474 8.22394C13.8536 8.22394 13.8598 8.22705 13.8753 8.22705C14.0367 8.22394 14.2012 8.22394 14.3656 8.22394C14.5301 8.22394 14.6915 8.22394 14.856 8.22705C14.8684 8.22705 14.8746 8.22705 14.8808 8.22705C14.8808 8.22084 14.8808 8.21463 14.8808 8.20222C14.8777 7.8267 14.8777 7.51636 14.8808 7.22774C14.8808 7.21222 14.8808 7.20291 14.8777 7.19981C14.8715 7.19981 14.8622 7.1967 14.8436 7.1967H14.8374C14.676 7.19981 14.5146 7.19981 14.3532 7.19981C14.195 7.19981 14.0367 7.19981 13.8784 7.1967H13.8753C13.8598 7.1967 13.8505 7.1967 13.8443 7.19981C13.8443 7.20601 13.8412 7.21532 13.8443 7.23084C13.8474 7.34257 13.8474 7.45429 13.8474 7.56291C13.8474 7.60946 13.8474 7.65601 13.8474 7.70257C13.8474 7.74912 13.8474 7.79877 13.8474 7.84532C13.8474 7.95705 13.8505 8.07498 13.8443 8.18981C13.8443 8.20843 13.8474 8.22084 13.8474 8.22394Z" fill="#AB0000"/>
<path d="M14.375 12.2432C14.1733 12.2432 13.9622 12.2401 13.7512 12.237C13.3943 12.2308 13.1584 11.9981 13.146 11.6443C13.1336 11.2222 13.1336 10.8001 13.146 10.3874C13.1584 10.0367 13.3943 9.80702 13.7512 9.79771C13.956 9.7915 14.164 9.7915 14.3688 9.7915C14.5705 9.7915 14.7722 9.79461 14.974 9.79771C15.3526 9.80702 15.5791 10.046 15.5853 10.437C15.5884 10.5736 15.5853 10.7101 15.5853 10.8436C15.5853 10.8994 15.5853 10.9553 15.5853 11.0112C15.5853 11.0732 15.5853 11.1353 15.5853 11.1974C15.5853 11.337 15.5884 11.4798 15.5822 11.6225C15.5729 11.9887 15.3402 12.2308 14.9833 12.237C14.7878 12.2401 14.5829 12.2432 14.375 12.2432ZM13.8505 11.5325C13.8567 11.5325 13.8629 11.5356 13.8784 11.5356C14.0367 11.5325 14.2012 11.5325 14.3657 11.5325C14.5302 11.5325 14.6947 11.5325 14.856 11.5356C14.8684 11.5356 14.8747 11.5356 14.8809 11.5356C14.8809 11.5294 14.8809 11.5232 14.8809 11.5108C14.8778 11.396 14.8778 11.2812 14.8778 11.1725C14.8778 11.1291 14.8778 11.0825 14.8778 11.0391C14.8778 10.9925 14.8778 10.9429 14.8778 10.8963C14.8778 10.7846 14.8747 10.6667 14.8809 10.5487C14.8809 10.5239 14.8809 10.5115 14.8778 10.5053C14.8715 10.5053 14.8622 10.5022 14.8467 10.5022H14.8405C14.6978 10.5053 14.5457 10.5053 14.3812 10.5053C14.2322 10.5053 14.074 10.5053 13.8815 10.5022H13.8784C13.8629 10.5022 13.8536 10.5022 13.8474 10.5053C13.8474 10.5115 13.8443 10.5208 13.8443 10.5394C13.8474 10.8436 13.8474 11.157 13.8443 11.4984C13.8474 11.5139 13.8474 11.5263 13.8505 11.5325Z" fill="#AB0000"/>
<path d="M10.8246 8.93774C10.626 8.93774 10.4211 8.93463 10.2132 8.93153C9.85011 8.92532 9.61115 8.68946 9.60184 8.32946C9.58943 7.9136 9.58943 7.49774 9.60184 7.09119C9.61115 6.73739 9.84701 6.50463 10.2008 6.49222C10.4087 6.48601 10.6198 6.48291 10.8277 6.48291C11.0294 6.48291 11.2374 6.48601 11.4391 6.49222C11.8022 6.50153 12.0349 6.7436 12.0443 7.11912C12.0474 7.26188 12.0474 7.40774 12.0443 7.54739C12.0443 7.60326 12.0443 7.65601 12.0443 7.71188C12.0443 7.77394 12.0443 7.83601 12.0443 7.89808C12.0443 8.03774 12.0474 8.1805 12.0412 8.32326C12.0287 8.68325 11.7898 8.92222 11.4329 8.92843C11.2343 8.93463 11.0294 8.93774 10.8246 8.93774ZM10.3032 8.22705C10.3094 8.22705 10.3156 8.23015 10.328 8.23015C10.4863 8.22705 10.6446 8.22705 10.8122 8.22705C10.9767 8.22705 11.1411 8.22705 11.3056 8.23015C11.318 8.23015 11.3274 8.23015 11.3305 8.23015C11.3305 8.22394 11.3305 8.21774 11.3305 8.20532C11.3274 8.08739 11.3274 7.96636 11.3274 7.85153C11.3274 7.80808 11.3274 7.76153 11.3274 7.71808C11.3274 7.67153 11.3274 7.62498 11.3274 7.57843C11.3274 7.46981 11.3243 7.35808 11.3305 7.24636C11.3305 7.22153 11.3305 7.20601 11.3274 7.19981C11.3211 7.19981 11.3118 7.1967 11.2963 7.1967H11.2901C11.1411 7.19981 10.9922 7.19981 10.8277 7.19981C10.6725 7.19981 10.5111 7.19981 10.3311 7.1967H10.328C10.3125 7.1967 10.3032 7.1967 10.297 7.19981C10.297 7.20601 10.2939 7.21532 10.2939 7.23394C10.297 7.53188 10.297 7.84532 10.2939 8.19291C10.3032 8.20843 10.3032 8.22084 10.3032 8.22705Z" fill="#AB0000"/>
<path d="M3.37327 15.3902C3.29879 15.3902 3.22431 15.3902 3.14672 15.3902C2.7681 15.3871 2.51672 15.145 2.51051 14.7757C2.50431 14.3754 2.50431 13.9657 2.51051 13.5561C2.51672 13.1868 2.75879 12.9478 3.1281 12.9416C3.32672 12.9385 3.52534 12.9385 3.72396 12.9385C3.92258 12.9385 4.12741 12.9385 4.32603 12.9416C4.69224 12.9447 4.94051 13.193 4.94982 13.553C4.95914 13.9626 4.95914 14.3723 4.94982 14.7726C4.94051 15.1419 4.68914 15.384 4.31051 15.3871C4.23914 15.3871 4.16465 15.3871 4.09327 15.3871C4.03431 15.3871 3.79534 15.3871 3.73638 15.3871C3.67741 15.3902 3.43224 15.3902 3.37327 15.3902ZM3.215 14.6857C3.2181 14.6857 3.2212 14.6857 3.22741 14.6857H3.23672C3.29569 14.6826 3.36086 14.6826 3.43845 14.6826C3.485 14.6826 3.53465 14.6826 3.5812 14.6826C3.62776 14.6826 3.67431 14.6826 3.72396 14.6826C3.77672 14.6826 3.82327 14.6826 3.87293 14.6826C3.92258 14.6826 3.97224 14.6826 4.02189 14.6826C4.09327 14.6826 4.16465 14.6826 4.23293 14.6857H4.23914C4.24224 14.6857 4.24534 14.6857 4.24845 14.6857C4.24845 14.6826 4.24845 14.6764 4.24845 14.6702C4.24534 14.3071 4.24534 13.9812 4.24845 13.6771C4.24845 13.6647 4.24845 13.6585 4.24845 13.6523C4.24534 13.6523 4.23603 13.6523 4.22982 13.6523C4.06845 13.6554 3.90396 13.6554 3.73638 13.6554C3.56879 13.6554 3.4012 13.6554 3.23362 13.6523L3.23051 13.5592V13.6523C3.22431 13.6523 3.2212 13.6523 3.2181 13.6523C3.2181 13.6554 3.2181 13.6616 3.2181 13.6678C3.2212 14.0216 3.2212 14.3474 3.2181 14.6609C3.215 14.6702 3.215 14.6795 3.215 14.6857Z" fill="#AB0000"/>
<path d="M6.89868 15.3902C6.8211 15.3902 6.74351 15.3902 6.66593 15.3871C6.31213 15.3809 6.06696 15.145 6.05765 14.8005C6.04524 14.3785 6.04524 13.9502 6.05765 13.5281C6.06696 13.1836 6.31213 12.9478 6.66593 12.9416C6.86765 12.9385 7.07248 12.9385 7.2742 12.9385C7.47593 12.9385 7.68075 12.9385 7.88248 12.9416C8.23317 12.9447 8.48455 13.1868 8.49386 13.5281C8.50627 13.9564 8.50627 14.3847 8.49386 14.8005C8.48455 15.1481 8.23006 15.384 7.86696 15.3871C7.79248 15.3871 7.71799 15.3871 7.64351 15.3871C7.57834 15.3871 7.51317 15.3871 7.448 15.3871C7.38903 15.3871 7.33317 15.3871 7.2742 15.3871C7.21213 15.3871 7.15006 15.3871 7.08799 15.3871C7.02282 15.3902 6.96075 15.3902 6.89868 15.3902ZM7.28351 14.6826C7.4542 14.6826 7.61558 14.6826 7.77075 14.6857C7.78006 14.6857 7.78937 14.6857 7.79248 14.6857C7.79248 14.6795 7.79248 14.6733 7.79248 14.6609C7.78937 14.3474 7.78937 14.0216 7.79248 13.6678C7.79248 13.6616 7.79248 13.6554 7.79248 13.6523C7.78937 13.6523 7.78627 13.6523 7.78317 13.6523H7.77696C7.70868 13.6554 7.64041 13.6554 7.57213 13.6554C7.52248 13.6554 7.47593 13.6554 7.42627 13.6554C7.37972 13.6554 7.33317 13.6554 7.28662 13.6554C7.24006 13.6554 7.19041 13.6554 7.14386 13.6554C7.09731 13.6554 7.04765 13.6554 7.0011 13.6554C6.92351 13.6554 6.85834 13.6554 6.79937 13.6523H6.78386C6.77144 13.6523 6.76524 13.6523 6.75903 13.6523C6.75903 13.6585 6.75903 13.6647 6.75903 13.6771C6.76524 14.0123 6.76213 14.3536 6.75903 14.6702C6.75903 14.6764 6.75903 14.6826 6.75903 14.6857C6.76213 14.6857 6.76834 14.6857 6.77455 14.6857C6.94524 14.6826 7.11282 14.6826 7.28351 14.6826Z" fill="#AB0000"/>
<path d="M10.8246 15.3933C10.6229 15.3933 10.415 15.3933 10.2101 15.3902C9.88428 15.3871 9.6298 15.1543 9.60497 14.8409C9.58945 14.6515 9.67635 14.5119 9.84083 14.4591C9.88428 14.4467 9.92463 14.4374 9.96808 14.4374C10.1046 14.4374 10.2195 14.5181 10.2722 14.6547C10.2846 14.6857 10.2846 14.6857 10.3343 14.6857H10.4522C10.5857 14.6857 10.7222 14.6826 10.8557 14.6826C11.017 14.6826 11.1536 14.6826 11.2839 14.6857H11.2932C11.3181 14.6857 11.3305 14.6826 11.3367 14.6826C11.3367 14.6764 11.3398 14.664 11.3398 14.6391C11.3305 14.3257 11.3305 14.006 11.3398 13.6957C11.3398 13.6709 11.3398 13.6584 11.3367 13.6522C11.3305 13.6522 11.3181 13.6491 11.2932 13.6491H11.2839C11.1164 13.6522 10.9612 13.6522 10.8122 13.6522C10.657 13.6522 10.505 13.6491 10.3591 13.646H10.3498C10.325 13.646 10.3126 13.6491 10.3064 13.6491C10.3064 13.6553 10.3032 13.6678 10.3064 13.6895C10.3126 13.764 10.3126 13.8447 10.3032 13.9347C10.2815 14.1302 10.1512 14.2481 9.95876 14.2512C9.76635 14.2512 9.63601 14.1364 9.61428 13.9564C9.58635 13.7298 9.59256 13.5498 9.6298 13.3884C9.68876 13.1371 9.92152 12.9602 10.207 12.9478C10.2195 12.9478 10.2319 12.9478 10.2443 12.9478H10.837C10.8991 12.9478 10.9581 12.9478 11.0201 12.9478C11.0822 12.9478 11.1412 12.9478 11.2032 12.9478C11.2777 12.9478 11.3553 12.9478 11.4298 12.9509C11.7898 12.9571 12.0381 13.1991 12.0474 13.5498C12.0567 13.9936 12.0567 14.4033 12.0474 14.8067C12.0381 15.1481 11.7898 15.3902 11.4391 15.3964C11.2312 15.3902 11.0264 15.3933 10.8246 15.3933Z" fill="#AB0000"/>
</svg>
