<svg width="17" height="18" viewBox="0 0 17 18" fill="none" xmlns="http://www.w3.org/2000/svg">
<path d="M16.5616 1.82831C16.3071 0.713942 15.3945 0.00310409 14.2087 0C12.2624 0 10.3193 0 8.37611 0C6.47951 0 4.58291 0 2.68631 0C1.19634 0 0.153364 1.04918 0.153364 2.54536C0.153364 4.84549 0.153364 7.14562 0.153364 9.44265C0.153364 11.8049 0.15026 14.1671 0.156468 16.5293C0.156468 17.1501 0.451357 17.6033 1.0132 17.861C1.57504 18.1186 2.09032 18.01 2.54972 17.6033C4.03348 16.2872 5.51724 14.971 7.0041 13.658C7.36107 13.3414 7.62802 13.3383 7.98189 13.6518C9.47186 14.971 10.9618 16.2934 12.4518 17.6126C12.607 17.7492 12.7746 17.8579 12.9702 17.923C13.7369 18.1745 14.5005 17.7399 14.7488 17.0104C14.783 17.026 14.814 17.0384 14.8513 17.0477C15.739 17.3395 16.6237 16.6628 16.6237 15.685C16.6268 11.2585 16.6237 6.82901 16.6268 2.40257C16.6206 2.21011 16.6051 2.01766 16.5616 1.82831ZM13.9355 4.3985V16.2779C13.9355 16.3555 13.9355 16.4331 13.9355 16.5076C13.9324 16.7652 13.8362 16.9732 13.5879 17.0818C13.3458 17.1874 13.144 17.1098 12.9546 16.9421C11.4864 15.6415 10.0151 14.344 8.54683 13.0403C7.85152 12.4226 7.09412 12.4226 6.40191 13.0372C4.94609 14.3285 3.48095 15.6167 2.02513 16.9111C1.82647 17.088 1.6247 17.1998 1.36086 17.0849C1.08459 16.967 1.00699 16.7342 1.00699 16.4517C1.01009 14.2168 1.00699 11.9787 1.00699 9.74375V9.44886C1.00699 7.14873 1.00699 4.8517 1.00699 2.55157C1.00699 1.85004 1.28946 1.32234 1.92891 1.00573C2.1524 0.893979 2.39452 0.859834 2.64285 0.859834C5.85869 0.859834 9.07763 0.85673 12.2935 0.859834C13.2557 0.859834 13.9169 1.5179 13.9324 2.48328C13.9449 3.12272 13.9355 3.75906 13.9355 4.3985ZM15.7701 4.18432V15.4832C15.7701 15.5577 15.7701 15.6291 15.7701 15.7036C15.767 15.9488 15.6738 16.1475 15.441 16.2499C15.2113 16.3524 15.0189 16.2748 14.8388 16.1165C14.8357 16.1134 14.8357 16.1134 14.8326 16.1102C14.8357 11.5814 14.8326 7.05561 14.8357 2.52673C14.8357 2.32186 14.8202 2.1201 14.7736 1.92143C14.6743 1.48997 14.485 1.11747 14.218 0.819481C15.1275 0.825689 15.7545 1.44961 15.7701 2.36222C15.7763 2.97062 15.7701 3.57592 15.7701 4.18432Z" fill="#AB0000"/>
</svg>
