<svg width="19" height="18" viewBox="0 0 19 18" fill="none" xmlns="http://www.w3.org/2000/svg">
<path d="M0.158794 5.59383C0.251881 5.31147 0.326351 5.026 0.515629 4.78397C0.90039 4.29371 1.40617 4.06409 2.02364 4.06409C2.74352 4.06409 3.4634 4.05789 4.18327 4.06099C4.32601 4.06099 4.36014 4.01755 4.35704 3.88102C4.35083 3.40628 4.33842 2.93153 4.36324 2.45989C4.41599 1.46385 5.18241 0.743977 6.18155 0.74708C9.02692 0.750183 11.8723 0.759492 14.7177 0.765698C15.3041 0.765698 15.8906 0.759492 16.4739 0.778109C17.3676 0.809139 18.1371 1.58176 18.1433 2.47851C18.1557 4.63193 18.1557 6.78845 18.1433 8.94187C18.1371 9.87585 17.3458 10.6361 16.3994 10.6609C16.0457 10.6702 16.0488 10.6702 16.0457 11.0239C16.0457 11.8772 16.0457 12.7336 16.0457 13.5869C16.0457 13.739 16.0147 13.8693 15.8626 13.9314C15.6982 13.9996 15.5803 13.9221 15.4748 13.8041C15.0342 13.3201 14.5935 12.8329 14.1498 12.3489C14.1312 12.3272 14.1126 12.3023 14.0909 12.2837C14.0474 12.2496 14.0257 12.1658 13.9637 12.1875C13.9171 12.2061 13.9388 12.2837 13.9326 12.3334C13.8582 13.1711 13.1445 13.8879 12.3036 13.9221C11.5155 13.9531 10.7242 13.9438 9.93297 13.95C9.07346 13.9562 8.21085 13.9562 7.35135 13.9531C7.22723 13.9531 7.14655 13.9903 7.06588 14.0803C6.17845 15.0608 5.28791 16.0413 4.39737 17.0188C4.35083 17.0715 4.30429 17.1274 4.25154 17.1708C4.04364 17.3384 3.79231 17.2391 3.75507 16.9784C3.74576 16.9164 3.74886 16.8512 3.74886 16.786C3.74886 15.9079 3.74576 15.0298 3.75197 14.1517C3.75197 14.0058 3.72714 13.95 3.56269 13.9531C3.0414 13.9655 2.52011 13.9593 1.99882 13.9562C1.06795 13.9531 0.388409 13.4039 0.183617 12.4885C0.177411 12.4606 0.165 12.4327 0.152588 12.4078C0.158794 10.1396 0.158794 7.86516 0.158794 5.59383ZM7.03485 4.64434C7.03485 4.65055 7.03485 4.65985 7.03485 4.66606C5.37169 4.66606 3.70853 4.66296 2.04537 4.66606C1.24792 4.66916 0.757656 5.15632 0.757656 5.94446C0.757656 7.99238 0.757656 10.0434 0.757656 12.0913C0.757656 12.8609 1.25412 13.3573 2.02054 13.3604C2.65354 13.3635 3.28653 13.3604 3.91642 13.3604C4.26395 13.3604 4.35704 13.4473 4.35704 13.7948C4.35704 14.5271 4.35704 15.2594 4.36014 15.9917C4.36014 16.0382 4.32911 16.1065 4.39117 16.1282C4.41289 16.1344 4.45943 16.0755 4.49046 16.0413C5.23826 15.2191 5.98917 14.3968 6.73387 13.5714C6.86729 13.4256 7.01003 13.3604 7.20861 13.3604C8.81903 13.3604 10.4294 13.3511 12.0399 13.3418C12.1795 13.3418 12.3222 13.3418 12.4587 13.3046C13.0421 13.1463 13.3586 12.7057 13.3586 12.0448C13.3586 10.0124 13.3586 7.97997 13.3586 5.95067C13.3586 5.81724 13.3586 5.68071 13.3214 5.55039C13.1693 4.97945 12.7225 4.65055 12.0988 4.64744C10.4046 4.64434 8.71973 4.64434 7.03485 4.64434ZM11.3045 1.36766C11.3045 1.36146 11.3045 1.35525 11.3045 1.34905C11.0997 1.34905 10.8949 1.34905 10.6901 1.34905C9.20689 1.34594 7.7268 1.34284 6.24361 1.34284C5.45236 1.34284 4.9621 1.82689 4.9559 2.62124C4.9528 3.03703 4.96521 3.45282 4.94969 3.86861C4.94349 4.03307 5.00244 4.06099 5.14828 4.05789C5.82782 4.04858 6.50735 4.05168 7.18689 4.05168C8.82523 4.04858 10.4667 4.04858 12.105 4.04548C12.5239 4.04548 12.9025 4.15718 13.2345 4.41162C13.7371 4.79638 13.9512 5.31457 13.9481 5.93825C13.945 7.64796 13.9481 9.35767 13.945 11.0674C13.945 11.1698 13.9575 11.2566 14.035 11.3373C14.4694 11.8059 14.8945 12.2806 15.3258 12.7523C15.3538 12.7833 15.3724 12.8484 15.4282 12.8236C15.4468 12.8143 15.4406 12.7492 15.4406 12.7088C15.4406 11.9703 15.4406 11.2318 15.4406 10.4964C15.4406 10.1582 15.5399 10.062 15.8844 10.062C16.0147 10.062 16.1419 10.062 16.2722 10.062C17.0542 10.0589 17.5444 9.56866 17.5444 8.78983C17.5444 6.75742 17.532 4.72502 17.5506 2.69261C17.5568 1.90136 17.0138 1.35525 16.2319 1.36456C14.5967 1.38318 12.9521 1.36766 11.3045 1.36766Z" fill="#AB0000"/>
<path d="M7.06904 9.44132C5.82167 9.44132 4.5774 9.44132 3.33003 9.44132C3.24936 9.44132 3.16558 9.44132 3.0849 9.4227C2.94217 9.39167 2.8646 9.28928 2.8646 9.14654C2.86149 9.00071 2.93596 8.89831 3.0787 8.86108C3.15006 8.84246 3.22764 8.83936 3.30521 8.83936C5.80305 8.83936 8.3009 8.83936 10.8018 8.83936C11.1028 8.83936 11.2487 8.93555 11.2518 9.13724C11.2549 9.33892 11.109 9.44132 10.8081 9.44132C9.56379 9.44132 8.31641 9.44132 7.06904 9.44132Z" fill="#AB0000"/>
<path d="M7.05655 10.6425C8.29151 10.6425 9.52957 10.6425 10.7645 10.6425C10.8173 10.6425 10.87 10.6394 10.9228 10.6425C11.1245 10.6518 11.2486 10.7635 11.2517 10.9342C11.2548 11.1017 11.1276 11.2196 10.9321 11.2383C10.8855 11.2414 10.839 11.2414 10.7925 11.2414C8.30392 11.2414 5.81228 11.2414 3.32374 11.2414C3.24307 11.2414 3.15929 11.2383 3.08172 11.2196C2.93278 11.1793 2.85831 11.0707 2.87072 10.9187C2.88003 10.7728 2.96381 10.6797 3.10964 10.6549C3.17791 10.6425 3.24927 10.6456 3.32064 10.6456C4.56181 10.6425 5.80918 10.6425 7.05655 10.6425Z" fill="#AB0000"/>
<path d="M5.09559 7.63889C4.475 7.63889 3.85442 7.63889 3.23384 7.63889C3.0911 7.63889 2.96388 7.61407 2.89252 7.47444C2.81494 7.31929 2.88631 7.13002 3.04766 7.06796C3.11903 7.04003 3.1966 7.03693 3.27107 7.04003C4.49362 7.04003 5.71617 7.04003 6.93872 7.04003C6.96354 7.04003 6.98526 7.04003 7.01008 7.04003C7.21798 7.05244 7.3514 7.17346 7.3514 7.34412C7.3483 7.51788 7.21798 7.63579 7.00698 7.63579C6.37088 7.642 5.73479 7.63889 5.09559 7.63889Z" fill="#AB0000"/>
</svg>
