<svg width="40" height="26" viewBox="0 0 40 26" fill="none" xmlns="http://www.w3.org/2000/svg">
<path d="M12.2195 12.6829L0 20.639V4.72683L12.2195 12.6829ZM27.7805 12.6829L40 20.639V4.72683L27.7805 12.6829ZM25.9951 13.8488L20.5317 17.4049C20.3707 17.5073 20.1854 17.561 20 17.561C19.8146 17.561 19.6293 17.5073 19.4683 17.4049L14.0049 13.8488L0.809756 22.439L0.0439025 22.9366C0.282927 24.3122 1.48293 25.3659 2.92683 25.3659H37.0732C38.5171 25.3659 39.7171 24.3171 39.9561 22.9366L39.1854 22.439L25.9951 13.8488ZM20 15.4195L39.1854 2.92683L39.9561 2.42927C39.7171 1.04878 38.5171 0 37.0732 0H2.92683C1.48293 0 0.282927 1.05366 0.0439025 2.42927L0.809756 2.92683L20 15.4195Z" fill="white"/>
</svg>
