<svg width="40" height="40" viewBox="0 0 40 40" fill="none" xmlns="http://www.w3.org/2000/svg">
<path d="M16.2053 9.1731C15.6847 3.18448 9.43709 0.246053 9.17269 0.126118C8.92552 0.00992618 8.64852 -0.0271969 8.37948 0.0198108C1.16697 1.21644 0.0820943 5.4142 0.0384812 5.58865C-0.0208562 5.83176 -0.0114185 6.08657 0.0657393 6.32462C8.66841 33.0158 26.547 37.9632 32.4239 39.5905C32.8764 39.7159 33.2498 39.8167 33.5333 39.9094C33.8568 40.0151 34.2083 39.9946 34.5173 39.8521C34.6972 39.7704 38.944 37.7696 39.9826 31.244C40.0286 30.9591 39.9828 30.667 39.8517 30.4099C39.7591 30.23 37.5375 26.0023 31.3772 24.5085C31.1682 24.4551 30.9493 24.4532 30.7395 24.5031C30.5296 24.5529 30.335 24.653 30.1724 24.7947C28.2289 26.4548 25.5439 28.2238 24.3855 28.4065C16.6196 24.6094 12.2828 17.3233 12.1193 15.9413C12.0239 15.1644 13.8038 12.4359 15.8509 10.2171C15.9796 10.0774 16.0776 9.91241 16.1386 9.7326C16.1997 9.5528 16.2224 9.36221 16.2053 9.1731Z" fill="white"/>
</svg>
