<?xml version="1.0" encoding="UTF-8"?><svg id="Layer_1" xmlns="http://www.w3.org/2000/svg" viewBox="0 0 70 70"><defs><style>.cls-1{fill:#ab0000;}</style></defs><path class="cls-1" d="M19.68,54.29h-2.14c-.41,0-1.06-.4-1.28-.78-.5-.83-1.03-3.87-1.48-4.34-.16-.16-1.2-.55-1.53-.75-.63-.38-1.65-1.25-2.31-1.19-1.79.15-4.08,1.7-5.37.04-.51-.66-2.95-4.81-3.19-5.5-.59-1.76,2.29-3.37,3.01-4.78.08-.41.07-3.76-.03-4.09-.15-.5-2.4-2.44-2.84-3.2-.28-.49-.32-.92-.15-1.46.25-.75,2.64-4.78,3.19-5.5.36-.47.73-.84,1.37-.84,1.07,0,3.49,1.04,4.41.89.56-.09,2.49-1.84,3.37-1.91.88-1.23.94-5.16,2.83-5.16h2.14V5.32c0-1.3,2.24-3.35,3.61-3.32h31.67c4.33,3.97,8.37,8.34,12.61,12.44.33,16.56.04,33.21.15,49.8-.18,1.96-1.8,3.58-3.76,3.76l-41.04-.07c-1.62-.4-2.83-1.66-3.2-3.28l-.04-10.35ZM53.56,4.06h-30.12c-.51,0-1.69,1.18-1.69,1.69v9.94h2.14c1.69,0,1.95,3.77,2.61,4.9.26.45.92.54,1.39.82.41.24,1.93,1.32,2.2,1.35,1.58.2,4.36-1.81,5.64-.2.66.84,2.71,4.39,3.14,5.4.37.86.38,1.17-.17,1.94-.46.64-2.65,2.65-2.78,3.13-.05.19.14,2.25.13,2.77,0,.35-.2.72-.16,1.02.07.53,2.41,2.66,2.87,3.33.5.74.45,1.06.11,1.86-.28.66-2.97,5.3-3.34,5.65-.22.21-.72.44-1.03.44-1.09.02-3.77-1.12-4.64-.81-.39.14-1.48.99-1.97,1.27-.34.2-1.1.42-1.29.63-.49.57-.95,3.27-1.43,4.16-.22.41-.82.93-1.28.93h-2.14v9.94c0,.44.9,1.45,1.39,1.55,13.63.26,27.36.18,41.01.04.53-.09,1.5-1.12,1.5-1.59V16.14h-8.32c-1.5,0-3.76-2.26-3.76-3.76V4.06ZM64.02,13.93l-8.25-8.25v6.85c0,.35,1.05,1.4,1.4,1.4h6.85ZM34.25,24.11c-.2-.15-4,1.07-4.88.84-.35-.09-2.09-1.44-2.66-1.76-.49-.28-1.43-.48-1.79-.86-.6-.65-1.16-4.08-1.55-4.34l-5.37-.08c-.21.06-1.06,3.67-1.41,4.21-.37.57-1.86,1.03-2.55,1.43-.93.53-1.69,1.51-2.81,1.43-.62-.04-3.87-.96-4.05-.86l-2.64,4.63c.03.44,2.79,2.79,2.99,3.45.23.73-.07,1.23-.08,1.85-.03,1.19.09,2.34.14,3.53-.72,1.38-2.15,2.39-3.05,3.69l2.64,4.63c.18.1,3.43-.81,4.05-.86,1.11-.08,1.88.9,2.81,1.43.69.4,2.18.86,2.55,1.43.35.54,1.2,4.15,1.41,4.21l5.37-.08c.39-.26.95-3.69,1.55-4.34.36-.39,1.3-.59,1.79-.86.57-.32,2.31-1.67,2.66-1.76.89-.24,4.68.98,4.88.84l2.51-4.63c0-.35-2.42-2.66-2.8-3.23-.53-.81.02-2.17.01-3.09s-.55-2.14-.01-2.95c.38-.57,2.79-2.89,2.8-3.23l-2.51-4.63Z"/><path class="cls-1" d="M29.95,56.83l27.08-.03c1.31.04,1.45,1.9.15,2.07h-26.97c-1.16.03-1.33-1.79-.26-2.04Z"/><path class="cls-1" d="M41,20.3l16.18-.04c1.3.17,1.16,2.03-.15,2.07h-15.77c-1.16.03-1.33-1.79-.26-2.03Z"/><path class="cls-1" d="M41,47.7l16.03-.03c1.31.04,1.45,1.9.15,2.07h-15.92c-1.16.03-1.33-1.79-.26-2.04Z"/><path class="cls-1" d="M29.95,11.17l15.73-.03c1.35.08,1.33,1.91,0,2.07-4.77.55-10.59-.42-15.47,0-1.16.03-1.33-1.79-.26-2.03Z"/><path class="cls-1" d="M44.68,29.43l12.5-.04c1.21.16,1.27,1.91-.15,2.07-3.74.43-8.27-.33-12.09,0-1.15-.26-1.32-1.48-.26-2.04Z"/><path class="cls-1" d="M44.68,38.56l12.35-.03c1.31.04,1.45,1.9.15,2.07h-12.24c-1.15-.26-1.32-1.48-.26-2.04Z"/><path class="cls-1" d="M19.65,24.73c13.81-1.31,15.34,19.55,1.87,20.58-13.46,1.03-15.16-19.32-1.87-20.58ZM20.54,26.78c-10.68.22-10.52,16.37.1,16.43s10.76-16.66-.1-16.43Z"/><path class="cls-1" d="M24.5,31.93c1.06-.14,1.53,1.06.84,1.88-1.61,1.89-4.41,3.61-6.11,5.53-.4.28-.97.35-1.4.09-.22-.14-2.71-4.08-2.8-4.43-.24-1,.86-1.77,1.7-1.1.41.33,1.79,3,2,3.01l5.78-4.98Z"/></svg>