<?xml version="1.0" encoding="UTF-8"?><svg id="Layer_1" xmlns="http://www.w3.org/2000/svg" viewBox="0 0 70 70"><defs><style>.cls-1{fill:#ab0000;}</style></defs><path class="cls-1" d="M47.12,67.92c-.29,0-.54-.2-.71-.37-.13-.13-.34-.39-.34-.63v-11.62h-6.63l-.02.04c-.36.84-.69,1.63-1.48,2.3-.86.74-1.94,1.14-3.05,1.14-1.59,0-3.04-.82-3.87-2.19-.18-.3-.3-.58-.41-.86-.06-.15-.12-.3-.19-.44h-6.65v8.77c0,.2-.41,1.12-.85,1.12h-2.27v2c0,.31-.48.61-.49.61l-.07.03-17.19.08-.82-.42-.07-24.65c-.03-.14-.01-.35.16-.59.15-.22.52-.57.83-.57h2v-1.73c0-.47.71-.99,1.19-.99.03,0,.07,0,.1,0l12.6.03.05.02c.39.12,3.02,2.89,3.05,2.92l.04.04c1.76,1.91,1.76,2.13,1.76,2.32v8.77h6.61c.7-1.88,1.95-3.08,3.48-3.34v-13.26h-12.03c-1.45,0-2.75-1.89-2.88-3.11-.16-1.46-.18-5.4.01-6.86.1-.77.66-1.46.96-1.83-.18-.19-.33-.35-.41-.49-.22-.38-.5-.96-.56-1.53-.17-1.53-.16-5.37.02-6.85.11-.87.69-1.55.98-1.88-.01-.02-.03-.03-.04-.05-.32-.42-.85-1.12-.94-1.79-.2-1.49-.16-5.33-.02-6.85.15-1.62,1.43-2.97,2.98-3.12h.02s25.92,0,25.92,0c1.61.06,2.85,1.59,3.01,2.98.16,1.44.18,5.58-.01,6.99-.08.6-.44,1.33-.9,1.85.51.53.82,1.12.9,1.73.21,1.51.16,5.34.02,6.86-.08.83-.39,1.56-.92,2.13.52.56.82,1.17.9,1.87.19,1.61.17,5.28.01,6.84-.12,1.23-1.41,3.12-2.88,3.12h-12.03v13.26c1.53.26,2.78,1.46,3.48,3.34h6.61v-10.27c0-.34.5-1.12.98-1.12h2.13v-1.86c0-.2.12-.3.5-.65l.14-.13,13.18-.04.1.07c1.02.73,1.88,1.69,2.72,2.61.55.62,1.13,1.25,1.73,1.81l.08.08.2.82v.06c-.2,3.01-.09,6.23.03,9.35.12,3.4.25,6.92-.03,10.19-.03.3-.1,1.22-.85,1.22h-2.13v1.73c0,.26-.45.8-.62.88l-.08.04-16.92.07s-.08.01-.11.01ZM62.61,65.8v-.61h-12.57c-.35,0-.85-.5-.85-.85v-20.43h-.88v21.89h14.3ZM18.55,65.8v-.61H5.85c-.34,0-.85-.79-.85-.98v-20.3h-.88v21.89h14.43ZM65.72,63.08v-18.41c-.16-.17-.54-.52-.67-.63-.05,0-.15-.02-.35-.02s-.43,0-.64.02c-.18,0-.35.01-.48.01-.16,0-.33,0-.46-.13l-.11-.11v-2c-.14-.16-.47-.49-.63-.63h-11.09v21.89h14.43ZM21.54,63.08v-18.41c-.16-.17-.54-.53-.68-.63-.04,0-.11-.01-.24-.01-.12,0-.24,0-.37.01-.14,0-.28.01-.42.01-.35,0-.7-.04-.89-.3l-.03-.04-.02-.05c-.13-.36-.1-.76-.07-1.11.02-.26.03-.5,0-.68-.1-.13-.46-.52-.63-.68H7.24v21.89h14.3ZM34.96,51.75c-.18,0-.37.02-.56.05-1.41.24-1.95,1.45-1.85,2.55.09,1.12.85,2.25,2.34,2.25h0c.18,0,.36-.02.55-.05,1.41-.24,1.95-1.46,1.86-2.56-.09-1.11-.85-2.24-2.33-2.24ZM47.74,34.22c.28,0,.77-.4.88-.71-.08-.97-.01-2.09.05-3.18.07-1.31.15-2.67-.02-3.74-.05-.33-.41-.67-.74-.82h-25.96c-.32.14-.66.46-.73.78.06,1.01.02,2.09-.02,3.13-.05,1.16-.09,2.36,0,3.45.05.52.26.82.76,1.05l25.79.03ZM47.5,23.51c.47,0,.85-.24,1.09-.67l.05-6.97c-.25-.87-1.28-.97-1.71-.97l-24.48.04c-.56.08-1.17.4-1.25,1.05-.13,1.07-.07,2.31-.01,3.51.05,1.07.1,2.19.03,3.2.09.42.55.66.86.77l25.42.04ZM47.33,12.8c.21,0,.95-.09,1.25-.66l.05-7.1c-.16-.43-.45-.69-.87-.79l-25.57-.03c-.68.19-.94.5-1,1.18-.13,1.36-.17,5.23.01,6.41.07.47.4.81.87.92l25.25.07Z"/><path class="cls-1" d="M7.06,35.9c-.23,0-.58-.09-.88-.49v-.02s-2.63-4.54-2.63-4.54c-.12-.14-.25-.41-.08-.87.01-.03.3-.78.75-.78h1.74c0-.26,0-.53-.02-.8-.02-.45-.03-.92,0-1.36.33-3.75,3.05-7.02,6.62-7.95.57-.15,1.39-.32,2.04-.32.7,0,1.13.21,1.26.62.1.31.05.95-.15,1.24-.13.18-.3.23-1.67.45-.54.09-1.15.18-1.37.26-1.98.65-4.49,3.29-4.49,5.33v2.54h1.73c.22,0,.42.11.56.3.23.31.3.84.17,1.23-.2.6-2.25,4.19-2.61,4.63-.28.34-.63.53-.97.53ZM7.07,32.6l.65-1.16h-1.3l.65,1.16Z"/><path class="cls-1" d="M62.78,35.91c-.42,0-.73-.33-.93-.57-.42-.52-2.43-3.96-2.64-4.6-.13-.39-.06-.92.17-1.23.14-.2.34-.3.56-.3h1.73v-2.54c0-1.93-2.35-4.54-4.19-5.24-.57-.21-1.05-.26-1.57-.31-.33-.03-.67-.06-1.03-.14-.62-.13-1.04-.66-.98-1.22.05-.48.47-.99,1.49-.99.03,0,.07,0,.1,0,3.79.12,8.43,3.92,8.43,8.18v2.27h1.73c.22,0,.42.11.56.3.22.31.3.84.17,1.23-.19.57-2.27,4.14-2.64,4.6-.2.25-.52.57-.93.57ZM62.78,32.6l.65-1.16h-1.3l.65,1.16Z"/><path class="cls-1" d="M61.36,53.39c-1.08,0-2.21-.05-3.3-.1-1.08-.05-2.21-.1-3.27-.1-.75,0-1.41.03-2.01.08-.04,0-.06,0-.09,0-.58,0-1.04-.41-1.1-1.01-.06-.59.28-1.08.84-1.2h.04s11.42-.04,11.42-.04c.74.04,1.15.57,1.16,1.08.02.49-.33,1.07-1.14,1.16-.74.09-1.58.13-2.54.13Z"/><path class="cls-1" d="M61.26,49.19c-1.03,0-2.11-.05-3.15-.11-1.04-.05-2.11-.11-3.12-.11-.73,0-1.36.03-1.94.09h-.02s-.05,0-.08,0c-.6,0-1.11-.32-1.29-.81-.17-.47,0-.98.44-1.35l.1-.09h12.07c.41,0,.7.49.73.94.04.53-.27,1.15-1.23,1.28-.72.1-1.54.15-2.51.15Z"/><path class="cls-1" d="M52.29,57.33h-.05c-.45-.14-.7-.58-.62-1.11.08-.56.52-1.16,1.19-1.16.09,0,.17.01.26.03.57.06,1.19.08,1.91.08,1.01,0,2.08-.05,3.12-.11,1.05-.05,2.13-.11,3.15-.11.97,0,1.79.05,2.51.15.97.13,1.27.75,1.23,1.28-.03.45-.32.94-.73.94h-11.98Z"/><path class="cls-1" d="M52.34,61.39c-.34,0-.61-.3-.69-.78-.09-.5.06-1.12.57-1.3l.06-.02h12.4c.44,0,.76.43.76,1.05s-.31,1.05-.76,1.05h-12.33Z"/><path class="cls-1" d="M53.85,45.05c-.85,0-1.86-.08-2.17-.72-.29-.59.2-1.22.37-1.43l.11-.15h8.86c.4,0,.65.44.71.87.08.58-.16,1.05-.63,1.19-.27.08-.74.12-1.46.12-.59,0-1.26-.03-1.86-.05-.48-.02-.94-.03-1.25-.03h-.11c-.14,0-.29.03-.45.06-.18.04-.39.08-.63.08-.14,0-.3.01-.48.02-.31.01-.65.03-1.01.03Z"/><path class="cls-1" d="M27.23,18.77c-.88,0-1.94-.03-2.32-.09-.67-.1-.98-.62-.99-1.08-.02-.54.34-1,.85-1.11.44-.1,1.85-.1,2.27-.1.75,0,1.68.02,2.03.08.74.12,1.07.65,1.08,1.12,0,.54-.38.99-.93,1.1-.4.07-1.53.08-1.99.08Z"/><path class="cls-1" d="M24.69,21.95c-.34,0-.61-.3-.69-.78-.09-.5.06-1.12.57-1.3l.06-.02h4.81c.41,0,.67.41.67,1.05s-.26,1.05-.67,1.05h-4.74Z"/><path class="cls-1" d="M27.04,8.06c-.76,0-1.72-.02-2.13-.09-.67-.1-.98-.62-.99-1.08-.02-.54.34-1,.85-1.11.46-.1,2.29-.1,2.49-.1.47,0,1.6,0,1.96.07.55.1.94.55.93,1.1,0,.47-.34,1-1.08,1.12-.48.08-1.68.09-2.04.09Z"/><path class="cls-1" d="M26.99,11.31c-.3,0-1.83,0-2.24-.08-.37-.07-.65-.34-.76-.75-.11-.39-.05-.94.28-1.22.1-.09.34-.29,3.11-.29.58,0,1.29.01,1.55.05.83.12,1.21.66,1.22,1.15.01.52-.37.96-.92,1.06-.41.08-1.93.08-2.23.08Z"/><path class="cls-1" d="M17.09,49.17c-1.04,0-2.12-.04-3.17-.09-1.04-.04-2.11-.09-3.14-.09-.72,0-1.35.02-1.93.07-.03,0-.08,0-.13,0-.53,0-1.05-.34-1.25-.82-.17-.4-.08-.83.24-1.15.23-.23.6-.26.86-.28h.08c.75-.07,1.58-.1,2.53-.1,1.08,0,2.19.04,3.26.08,1.07.04,2.17.08,3.24.08.78,0,1.47-.02,2.1-.06h.04s.04,0,.04,0c.64.08,1.08.52,1.08,1.07,0,.51-.43,1.07-1.36,1.17-.73.08-1.55.11-2.48.11Z"/><path class="cls-1" d="M8.53,53.27h-.02c-.61-.07-1.05-.52-1.08-1.08-.02-.46.26-.98.94-1.13h.04s11.26-.04,11.26-.04c.76,0,1.19.55,1.23,1.08.03.49-.28,1.07-1.04,1.17h-.02s-11.29,0-11.29,0h-.02Z"/><path class="cls-1" d="M11.19,57.43c-.95,0-1.78-.03-2.53-.09h-.08c-.27-.03-.63-.05-.86-.28-.32-.32-.41-.75-.24-1.15.2-.48.71-.82,1.25-.82.05,0,.1,0,.15,0,.56.04,1.19.06,1.91.06,1.03,0,2.1-.04,3.14-.09,1.05-.04,2.13-.09,3.17-.09.94,0,1.75.04,2.48.11.93.1,1.36.66,1.36,1.17,0,.55-.44.99-1.08,1.07h-.04s-.04,0-.04,0c-.64-.04-1.32-.06-2.1-.06-1.07,0-2.17.04-3.24.08-1.07.04-2.18.08-3.26.08Z"/><path class="cls-1" d="M8.15,61.39c-.47,0-.69-.59-.69-1.14,0-.15.02-.38.11-.57.12-.25.33-.4.58-.4h12.53l.05.02c.47.14.64.75.56,1.25-.08.51-.39.84-.81.84h-12.33Z"/><path class="cls-1" d="M10,45.06c-.5,0-.94-.02-1.35-.07-.56-.07-1.05-.42-1.21-.88-.13-.38-.03-.77.28-1.08.23-.23.6-.26.86-.28h.08c.53-.05,1.12-.07,1.78-.07.76,0,1.55.03,2.31.06.76.03,1.54.06,2.29.06.56,0,1.04-.02,1.5-.05h.04s.04,0,.04,0c.58.08,1,.49,1.04,1.01.03.5-.3.93-.86,1.08l-.07.02h-.07c-.4-.06-.84-.08-1.33-.08-.86,0-1.78.07-2.66.14-.88.07-1.8.14-2.66.14Z"/><path class="cls-1" d="M27.38,32.83c-2.77,0-3.01-.21-3.11-.29-.32-.28-.38-.83-.28-1.22.11-.41.39-.68.76-.75.4-.08,1.93-.08,2.24-.08s1.83,0,2.23.08c.55.1.93.54.92,1.06-.01.49-.39,1.04-1.22,1.15-.26.04-.97.05-1.55.05Z"/><path class="cls-1" d="M24.69,29.41c-.42,0-.71-.42-.71-1.05s.28-1.05.71-1.05h4.8l.05.02c.47.14.64.75.56,1.25-.08.51-.39.84-.81.84h-4.61Z"/></svg>