<?xml version="1.0" encoding="UTF-8"?><svg id="Layer_1" xmlns="http://www.w3.org/2000/svg" viewBox="0 0 70 70"><defs><style>.cls-1{fill:#ab0000;}</style></defs><path class="cls-1" d="M32.28,53.55c-2.94-.25-3.36-2.38-3.09-4.95.19-1.77,1.44-2.39,3.05-2.62.05-.47.19-2.88-.07-3.05-.14-.09-1-.13-1.36-.26-.88-.34-1.39-1.17-1.59-2.06l-.02-10.75c-10.78-4.67-11.76-19.98-1.4-25.84,14.73-8.33,29.21,11.02,17.45,22.85-1.28,1.29-2.9,2.18-4.43,3.13l-.02,31.98-.17.77c-1.57,1.37-3.2,3.68-4.83,4.89-.59.44-.95.49-1.56.06s-4.3-4.11-4.73-4.72c-.47-.66-.44-3.37-.27-4.2.31-1.52,1.61-2.03,2.99-2.28l.04-2.96ZM38.96,28.34c.28-.25,1.72-.76,2.24-1.07,9.89-5.78,7.16-21-4.15-22.83-13.7-2.22-19.94,16.32-8.08,22.93.7.39,2.25.73,2.38,1.54l.04,11.44c.14.47.77.32,1.16.46,1.17.39,1.83,1.16,1.92,2.4.12,1.59.3,4.05-1.4,4.82-.48.22-1.31.2-1.52.36-.29.23-.27,2.4-.07,2.66.15.18,1.32.3,1.81.62.31.2.81.72.97,1.06.29.65.3,3.2.19,3.97-.11.83-.78,1.66-1.57,1.94-.45.16-.81.09-1.16.19-.67.2-.26,2.13-.36,2.74,1.03,1.34,2.39,2.48,3.59,3.71.26.05,3.35-3.22,3.69-3.71l.04-32.77c.08-.14.16-.36.28-.46Z"/><path class="cls-1" d="M7.28,42.38c.3.28.58.83.81,1.17h17.25c1.27.26,1.34,2,.01,2.16H8.1c-.93,2.45-4.45,2.79-5.68.39-1.59-3.11,2.33-6.05,4.87-3.72ZM5,43.71c-1.15.18-.93,2.09.37,1.87,1.09-.19.89-2.06-.37-1.87Z"/><path class="cls-1" d="M61.98,45.73l-17.33-.02c-1.17-.14-1.3-1.54-.3-2.06,5.82-.23,11.71-.04,17.56-.1,1.04-2.4,4.55-2.77,5.7-.28,1.81,3.93-4.04,6.42-5.63,2.46ZM64.8,43.71c-1.63.14-.73,2.62.58,1.67.81-.59.23-1.74-.58-1.67Z"/><path class="cls-1" d="M17.86,53.13v5.94s.35.07.53.21c3.53,2.68-.2,7.41-3.49,5.12-2.04-1.42-1.48-4.6.81-5.41.18-2.21-.26-4.84,0-7,.09-.82.68-.95,1.41-1.02,1.77-.16,6.4-.22,8.07.04,1.76.27,1.13,2.12.44,2.12h-7.76ZM16.47,60.98c-1.05.22-.74,1.94.34,1.84,1.26-.11,1.03-2.12-.34-1.84Z"/><path class="cls-1" d="M44.38,53.13c-.95-.2-1.07-1.89.44-2.12,1.67-.26,6.3-.2,8.07-.04.73.06,1.32.2,1.41,1.02.25,2.16-.19,4.79-.01,7.01,2.3.79,2.84,3.99.81,5.41-3.29,2.3-7.02-2.44-3.49-5.12.19-.14.53-.18.53-.21v-5.94h-7.76ZM53.06,60.98c-1.02.21-.85,1.93.23,1.87,1.25-.08,1.2-2.15-.23-1.87Z"/><path class="cls-1" d="M17.86,30.18v5.94h7.63c.08,0,.53.36.61.47.49.67.09,1.41-.64,1.66-2.76-.14-5.9.28-8.62.03-.49-.04-.78-.14-1.07-.55l-.09-7.33c-.72-.54-1.26-.7-1.67-1.57-1.51-3.14,2.23-5.91,4.73-3.78,1.71,1.46,1.34,4.49-.87,5.13ZM16.34,26.57c-.7.21-.69,1.49,0,1.7,1.73.51,1.72-2.21,0-1.7Z"/><path class="cls-1" d="M52.15,36.12v-5.94s-.29-.01-.48-.13c-1.79-1.07-1.99-3.65-.4-5,2.49-2.12,6.24.63,4.73,3.78-.41.87-.95,1.03-1.67,1.57l-.09,7.33c-.3.41-.59.5-1.07.55-2.72.25-5.85-.18-8.62-.03-.72-.25-1.13-.99-.64-1.66.08-.11.53-.47.61-.47h7.63ZM52.92,26.57c-.73.22-.73,1.48,0,1.7,1.7.51,1.7-2.21,0-1.7Z"/><path class="cls-1" d="M34.43,8.08c4.96-.78,5.6,7.04.64,7.12-4.34.07-4.89-6.45-.64-7.12ZM36.04,10.65c-1.29-1.46-3.48.81-1.85,2.06,1.39,1.07,2.88-.9,1.85-2.06Z"/></svg>