<?xml version="1.0" encoding="UTF-8"?><svg id="Layer_1" xmlns="http://www.w3.org/2000/svg" viewBox="0 0 70 70"><defs><style>.cls-1{fill:#ab0000;}</style></defs><path class="cls-1" d="M11.18,68c-.19-.03-.34-.12-.44-.28-.13-.2-.16-.48-.09-.75.06-.09.25-.3.37-.4h11.45v-2.86c.12-.12.37-.32.46-.37.07-.01.22-.03.53-.03.37,0,.84.02,1.3.04.47.02.91.04,1.26.04.54,0,.7-.04.82-.12l.11-.07,1.55-4.87H5.11c-.5,0-1.22-.41-1.87-1.08-.73-.75-1.21-1.65-1.2-2.25V21.78s0-.02,0-.02c-.07-.6.33-1.5,1.04-2.29.68-.77,1.48-1.26,2.04-1.26h8.75v-8.29c.11-.12.52-.3.68-.31.45-.04,1.56-.08,2.58-.08s1.72.03,2.01.08c.1.04.35.25.46.37v8.24h1.79V2.39c.11-.12.52-.3.68-.31.45-.04,1.56-.08,2.58-.08s1.72.03,2.01.08c.1.04.35.25.46.37v15.76h1.79V6.69c.11-.12.52-.3.68-.31.45-.04,1.56-.08,2.58-.08s1.72.03,2.01.08c.1.04.35.25.46.37v11.46h14.03l-1.69-2.7c-1.27-3.89-1-7.25.78-9.7,1.63-2.25,4.49-3.6,7.65-3.6s6.02,1.34,7.65,3.6c1.78,2.45,2.05,5.81.78,9.7l-1.69,2.7h2.73c.56,0,1.36.5,2.04,1.26.7.79,1.11,1.69,1.04,2.29v.02s0,33.2,0,33.2c.01.6-.47,1.51-1.2,2.26-.65.67-1.37,1.08-1.87,1.08h-23.39l1.55,4.87.11.07c.12.08.28.12.82.12.35,0,.8-.02,1.26-.04.46-.02.93-.04,1.3-.04.31,0,.46.01.53.03.1.04.35.25.46.37v2.86h11.45c.11.11.31.32.37.4.08.29.04.59-.11.79-.12.16-.3.25-.52.25h0H11.18ZM23.9,66.56h22.21v-1.79h-22.21v1.79ZM30.19,58.34l-1.59,5h12.8l-1.52-4.84-.43-.18-9.25.03ZM63.66,56.9c.07.01.15.02.23.02.55,0,1.2-.27,1.74-.73.57-.48.9-1.07.9-1.6v-2.71H3.48v2.71c0,1.06,1.39,2.32,2.57,2.32.05,0,.1,0,.15,0h57.45ZM5.79,19.64c-.93,0-2.31,1.38-2.31,2.31v28.5h63.04v-28.5c0-1.11-1.32-2.16-2.41-2.29-.46-.05-1.34-.09-2.25-.09-.48,0-1.37.01-1.86.09-.33.05-.71.22-1.11.4-.27.12-.56.25-.79.31-.88.25-1.78.38-2.68.38s-1.73-.12-2.61-.35c-.2-.05-.72-.28-1.1-.45-.63-.28-.69-.3-.8-.3h-16.28v9.31h1.79v-7.19c.12-.12.45-.31.56-.34.32-.04,1.36-.07,2.45-.07s2,.03,2.26.08c.12.02.24.16.37.31v.02s.09,8.13.09,8.13c0,.14-.13.3-.39.48l-34.83.04h-.03s-.02,0-.03,0c-.2,0-.49-.26-.55-.44l.07-8.21s0-.01.01-.02c.13-.15.24-.28.37-.31.26-.05,1.15-.08,2.26-.08s2.13.03,2.46.08c.11.02.44.22.55.34v7.19h1.79v-9.31H5.79ZM37.86,28.95h2.87v-6.09h-2.87v6.09ZM30.34,28.95h2.87V7.82h-2.87v21.13ZM27.12,28.95h1.79v-9.31h-1.79v9.31ZM22.82,28.95h2.87V3.52h-2.87v25.43ZM19.6,28.95h1.79v-9.31h-1.79v9.31ZM15.3,28.95h2.87V11.04h-2.87v17.91ZM7.78,28.95h2.87v-6.09h-2.87v6.09ZM50.44,17.41l.33.25c1.34,1.02,2.93,1.56,4.6,1.56,3.9,0,7.26-2.88,7.79-6.7l.06-.41h-7.48l-5.29,5.3ZM54.29,3.66c-2.75.39-5.03,2.18-6.1,4.79-1.06,2.58-.7,5.42.96,7.6l.25.33,5.3-5.3V3.6l-.41.06ZM56.13,10.68h7.09l-.06-.41c-.5-3.4-3.22-6.12-6.62-6.62l-.41-.06v7.09Z"/><path class="cls-1" d="M26.35,48.67c-1.02,0-2.29-.58-2.78-2.2l-.05-.16-10.96-4.58h-.02c-.08-.03-.16-.04-.23-.04-.44,0-.7.34-.93.64-.12.15-.24.31-.37.4-.5.36-1.11.55-1.77.55-1.27,0-2.66-.75-2.88-2.19-.15-1.02.07-1.92.64-2.58.54-.63,1.38-1,2.23-1,1.34,0,2.4.83,2.82,2.22l.05.16,10.98,4.58h.04c.05.02.11.02.16.02.45,0,.74-.34,1-.64.15-.18.31-.36.49-.47.51-.32,1.05-.48,1.62-.48.92,0,1.83.44,2.51,1.22l.22.25,11.44-8.51.03-.12c.43-1.73,1.86-2.51,3.08-2.51,1.02,0,2.28.58,2.76,2.19l.04.13.12.07c3.3,2.05,7.23,4.43,11.35,6.59l.3.16.17-.3c.48-.83,1.34-1.31,2.35-1.31,1.31,0,2.73.84,2.91,2.46.1.94-.13,1.76-.68,2.37-.54.61-1.35.95-2.21.95-1.05,0-2.34-.57-2.79-2.17l-.04-.13-.12-.07c-3.11-1.93-7.21-4.42-11.35-6.59l-.31-.16-.17.3c-.47.83-1.32,1.3-2.33,1.3-.98,0-1.93-.45-2.54-1.2l-.22-.27-11.45,8.52-.03.12c-.45,1.73-1.87,2.5-3.07,2.5ZM26.42,44.39s-.06,0-.08,0c-.87.05-1.31.75-1.29,1.42.02.68.48,1.37,1.34,1.37h0s.06,0,.08,0c.87-.05,1.31-.75,1.29-1.42-.02-.68-.48-1.37-1.34-1.37ZM60.81,42.24s-.06,0-.08,0c-.87.05-1.31.75-1.29,1.42.02.68.48,1.37,1.34,1.37h0s.06,0,.08,0c.87-.05,1.31-.75,1.29-1.42-.02-.68-.48-1.37-1.34-1.37ZM9.23,39.02s-.06,0-.08,0c-.87.05-1.31.75-1.29,1.42.02.68.48,1.37,1.34,1.37h0s.06,0,.08,0c.87-.05,1.31-.75,1.29-1.42-.02-.68-.48-1.37-1.34-1.37ZM43.61,34.72s-.06,0-.08,0c-.87.05-1.31.75-1.29,1.42.02.68.48,1.37,1.34,1.37h0s.06,0,.08,0c.87-.05,1.31-.75,1.29-1.42-.02-.68-.48-1.37-1.34-1.37Z"/><path class="cls-1" d="M46.79,28.26c-.24,0-.45-.1-.58-.28-.15-.21-.17-.49-.08-.8l4.69-4.65,10.24-.02c.38.15.49.52.47.8-.02.27-.18.58-.56.64l-9.5.02-4.24,4.2c-.15.06-.3.1-.44.1Z"/><path class="cls-1" d="M6.8,33.6c-.29-.12-.47-.36-.49-.66-.02-.24.08-.55.4-.75l12.44-.02c.38.15.5.52.47.8-.02.27-.18.58-.56.64H6.8Z"/><path class="cls-1" d="M44.41,48.65c-.29-.12-.47-.36-.49-.66-.02-.24.08-.55.4-.75l8.14-.02c.36.15.49.47.49.71,0,.25-.13.56-.49.71h-8.05Z"/><path class="cls-1" d="M50.75,45.47c-1.16,0-1.99-.03-2.13-.06-.26-.08-.38-.41-.38-.7s.12-.62.39-.7c.11-.02.85-.05,1.95-.05s1.84.03,1.96.05c.28.08.39.44.38.74-.01.28-.14.62-.47.68-.11.02-.75.04-1.71.04Z"/><path class="cls-1" d="M22.81,33.64c-.61,0-1.02-.05-1.11-.08-.25-.1-.35-.44-.33-.72.02-.27.14-.58.39-.65.06-.02.31-.04.75-.04.58,0,.98.04,1.06.07.27.11.36.47.33.76-.03.27-.16.58-.46.63-.08.01-.3.03-.63.03Z"/><path class="cls-1" d="M6.8,55.09c-.29-.12-.47-.36-.49-.66-.02-.24.08-.55.4-.75l7.06-.02c.36.15.49.47.49.71,0,.25-.13.56-.49.71h-6.98Z"/><path class="cls-1" d="M17.44,55.13c-.61,0-1.02-.05-1.11-.08-.25-.1-.35-.44-.33-.72.02-.27.14-.58.39-.65.06-.02.31-.04.75-.04.59,0,.98.04,1.06.07.27.11.36.47.33.76-.03.27-.16.58-.47.63-.08.01-.3.03-.63.03Z"/></svg>