<?xml version="1.0" encoding="UTF-8"?><svg id="Layer_1" xmlns="http://www.w3.org/2000/svg" viewBox="0 0 70 70"><defs><style>.cls-1{fill:#ab0000;}</style></defs><path class="cls-1" d="M38.97,29.21c.05-.24.45-.68.75-.62,2.51.23,5.48-.28,7.94,0,.64.07.9.37.89,1.02v15.02c.02.15.81.27,1.08.44.44.27,1.16,1.35,1.51,1.5.05.02,1.03-.36,1.1-.41.29-.24.06-1.78.17-2.29.09-.41.5-.68.52-1.12l.02-26.09c.14-.29.38-.52.72-.51,2.53.17,5.31-.21,7.8,0,.84.07.93.34,1.03,1.16l-.02,27.47c.33.14.52.19.83.42.49.37,2.32,2.24,2.43,2.77.33,1.63-1.54,2.13-1.73,2.87-.03.11.36,1.22.41,1.25.57.37,3.01-.68,3.47,1.11.14.55.15,3.01.06,3.62-.32,2.06-3.29.99-3.56,1.39-.06.09-.4,1.09-.38,1.19.18.7,1.96,1.22,1.75,2.75-.08.61-1.91,2.48-2.45,2.89-1.83,1.36-2.36-.58-3.49-1.32-.14-.09-1.38.38-1.42.44-.42.65.82,3.27-1.45,3.54-.75.09-3.27.1-3.83-.28-1.25-.83-.46-3-.89-3.35-.07-.05-1.04-.44-1.1-.41-.34.15-1.07,1.22-1.51,1.5-1.75,1.13-2.84-1.18-4.03-2.11-4.88,5.52-13.22,6.22-19,1.63l-1.92-1.78c-1.01.52-2.11,2.55-3.29,2.6s-2.3-1.94-2.66-1.85c-.09.02-.99.44-1.02.48-.37.55.45,2.45-.81,3.29-.56.37-3.09.37-3.83.28-2.27-.27-1.03-2.89-1.45-3.54-.04-.06-1.15-.44-1.25-.41-.86.22-1.67,2.69-3.58,1.35-.54-.38-2.44-2.35-2.52-2.95-.21-1.53,1.85-2.28,1.75-2.96,0-.06-.36-1.01-.41-1.04-.64-.42-3.27.82-3.54-1.45-.08-.64-.09-2.79.03-3.39.39-1.92,2.93-.84,3.5-1.21.06-.04.44-1.15.41-1.25-.18-.7-1.96-1.22-1.75-2.75.08-.57,2.08-2.69,2.6-3.01s1.07-.4,1.64-.14c.51.24,1.66,1.66,1.84,1.67.17.01,1-.48,1.28-.53l.19-10.88h9.09c.54,1.14-.16,9.19.18,9.53.04.04.79.1,1.14.3.31.18,1.29,1.35,1.39,1.34l1.36-1.78.07-21.26c.06-.71.12-1.07.89-1.16,1.72-.2,5.9-.17,7.66,0,.34.03,1.02.2,1.02.62v17.29c1.47-.12,2.94.07,4.37.41v-11.28ZM60.7,17.93h-6.01v24.6h2.53s.61.34.69.41c.92.87.19,2.63.5,3.13.04.06,1.21.54,1.28.53s1.02-.92,1.02-.99v-27.68ZM32.82,23.95h-6.01v18.86c1.84-1.24,3.81-2.21,6.01-2.6v-16.27ZM46.76,30.37h-6.01v10.73c1.68.84,3.25,1.88,4.58,3.21l1.43,1.78v-15.72ZM19.42,36.66h-6.15v5.88h3.08s.67.38.76.47c.97.92.26,2.58.6,3.09.03.05,1.04.51,1.1.5s.61-.54.61-.58v-9.36ZM34.57,41.76c-9.65.57-14.76,11.63-8.97,19.42,5.52,7.42,17.32,5.89,20.82-2.64s-2.95-17.29-11.85-16.77ZM15.87,44.32h-2.6v2.39c0,.66-2.35,1.68-2.94,1.68-1.26,0-1.67-1.32-2.39-1.69-.2-.1-.2-.03-.34.07-.51.35-1.04,1.18-1.57,1.58.53.64,1.64,1.33,1.77,2.2.11.76-.58,2.55-1.23,2.99-.1.07-.69.35-.75.35h-2.12v2.46h2.12c1.14,0,2.09,2.39,1.97,3.34s-1.22,1.51-1.76,2.2c.32.24,1.57,1.74,1.82,1.7.71-.59,1.46-1.7,2.48-1.7.6,0,2.94.96,2.94,1.64v2.39h2.6v-2.26c0-.77,2.31-1.78,2.96-1.8,1.23-.04,2.17,1.79,2.56,1.72l2.25-2.24c-2.6-3.83-2.92-9.1-.96-13.29.02-.19-1.21-1.43-1.39-1.4-.77.6-1.47,1.87-2.58,1.74-.22-.03-1.85-.68-2.07-.82s-.77-.81-.77-1.01v-2.26ZM56.74,44.32h-2.6v2.26c0,.88-2.57,1.92-3.28,1.79-.88-.17-1.44-1.2-2.13-1.71-.14-.02-1.03.83-1.08.94s.81,2.05.93,2.5c1.1,4.02.43,8.03-1.81,11.52,0,.31,1.57,1.63,1.87,1.97.39.07,1.33-1.76,2.56-1.72.27,0,1.93.64,2.19.79.22.13.77.82.77,1.01v2.26h2.6v-2.39c0-.65,2.27-1.63,2.82-1.67,1.34-.08,1.77,1.29,2.51,1.67.2.1.2.03.34-.07.51-.35,1.04-1.18,1.57-1.58-.55-.69-1.65-1.28-1.76-2.2-.1-.78.56-2.54,1.22-2.99.1-.07.69-.35.75-.35h2.12v-2.46h-2.12c-1.12,0-2.11-2.4-1.97-3.34.13-.87,1.24-1.55,1.77-2.2-.52-.4-1.06-1.23-1.57-1.58-.14-.1-.15-.17-.34-.07-.73.37-1.14,1.69-2.39,1.69-.58,0-2.94-1.02-2.94-1.68v-2.39Z"/><path class="cls-1" d="M57.69,5.36l-15.03,14.84-.34.06c-4.1-2.61-8-5.59-11.98-8.41l-.3-.05-20.89,15.89c-.92.83-2.16-.25-1.31-1.24L29.64,9.9l.52-.16c4.16,2.6,8.04,5.72,12.14,8.45l14.03-14.07h-4.72c-.65,0-1.23-1.49-.11-1.75,2.2.16,4.96-.31,7.09-.04.63.08.82.6.88,1.17.14,1.21.17,5.39-.03,6.53-.25,1.43-1.74.67-1.74.31v-4.99Z"/><path class="cls-1" d="M39.2,47.76c2.94-.6,4.84,2.44,2.91,4.82-1.2,1.48-5.38,5.72-6.85,6.82-1.03.76-2.21.85-3.34.22-.6-.34-3.71-3.47-4-4.06-1.04-2.11.57-4.51,2.91-4.28,1.18.11,1.84,1,2.71,1.63.32-.06,3.87-4.01,4.59-4.57.25-.19.77-.52,1.06-.58ZM39.89,49.4c-.22.02-.48.16-.65.31l-5.36,5.3c-1.27.57-2.2-1.84-3.17-1.96-1.09-.12-1.6.77-1.2,1.75.09.21,2.9,3.06,3.18,3.24.43.27.86.3,1.33.11l6.99-6.95c.5-.79-.2-1.89-1.11-1.8Z"/><path class="cls-1" d="M13.51,49.55c9.13-1.24,8.63,12.62,0,11.14-6.19-1.06-5.84-10.35,0-11.14ZM14.34,51.18c-5.1.4-4.57,7.91.23,7.9,5.36,0,5.03-8.32-.23-7.9Z"/><path class="cls-1" d="M54.24,49.54c8.43-1.31,9.13,11.17,1.2,11.24-7.08.06-7.48-10.26-1.2-11.24ZM55.07,51.18c-5.61.44-4.02,9.45,1.53,7.69,4.41-1.4,3.09-8.05-1.53-7.69Z"/></svg>