<?xml version="1.0" encoding="UTF-8"?><svg id="Layer_1" xmlns="http://www.w3.org/2000/svg" viewBox="0 0 70 70"><defs><style>.cls-1{fill:#ab0000;}</style></defs><path class="cls-1" d="M13.44,27.39v5.15c0,.18.84,1.03,1.03,1.03h19.69v-6.18h-7.62c-.09,0-.69-.34-.8-.43-.67-.53-.84-1.29-.91-2.11-.44-5.36.32-11.31.01-16.73.04-.26.12-.48.26-.7.34-.52,2.17-2.32,2.74-2.88.45-.45,1.99-2.03,2.4-2.27.18-.11.33-.17.55-.14,3.91.34,8.53-.43,12.36,0,1.05.12,1.82.92,1.86,1.98v21.42c.07.66-.99,1.85-1.58,1.85h-7.62v6.18h19.56c.3,0,1.17-.86,1.17-1.17v-5.01h-7.62c-.51,0-1.65-1.24-1.58-1.85V7.7c1.59-1.92,3.56-3.59,5.28-5.43,4.31-.3,8.71-.04,13.05-.13,1.24.21,1.75,1.24,1.85,2.4.56,6.57-.43,13.94,0,20.59.09.7-.9,2.27-1.58,2.27h-7.75v5.15c0,.98-1.7,2.68-2.68,2.68h-19.69v4.67h2.13c.12,0,1.36-1.41,1.65-1.64,1.48-1.19,3.72-2.07,5.62-2.2,8.8-.64,14.27,8.77,9.74,16.2.52.38,1.01,1.17,1.51,1.51,3.1,2.16,7.21,5.84,9.96,8.57,3.18,3.16-.05,7.23-3.71,5.08l-9.06-9.88c-.25-.98-1.19-1.53-1.85-2.25l-1.59.9-3.78,8.95c-.58.94-1.45,1.6-2.52,1.87l-26.43.07c-1.13-.03-1.96-.85-1.99-1.99v-25.95c.42-4.86,6.92-2.56,10.09-3.08.78.32,5.02,3.84,5.36,3.84h3.23v-4.67H14.33c-.82,0-2.54-1.73-2.54-2.54v-5.28h-7.75c-.6,0-1.65-1.47-1.58-2.13.38-5.52-.51-11.72,0-17.16.02-.23.01-.46.16-.66,1.8-1.76,3.47-3.73,5.43-5.27l12.6-.04c.74,0,1.56.67,1.82,1.34.38,7.27.06,14.63.17,21.93.13.63-1.08,1.99-1.58,1.99h-7.62ZM4.1,8.73v16.67c0,.18.78.59,1.02.49,4.81-.31,10.08.39,14.83,0,.34-.03.68-.06.96-.27V3.92c-.04-.06-.38-.27-.42-.27h-11.32v2.81c0,.77-1.04,2.26-1.85,2.26h-3.23ZM26.47,8.73v16.54c0,.31.69.72,1.02.62,4.82-.34,10.22.43,14.97,0,.7-.06,1.02-.25,1.03-1.03V4.67c.1-.34-.31-1.02-.62-1.02h-11.32v3.23c0,.61-1.24,1.85-1.85,1.85h-3.23ZM48.98,8.73v16.81c0,.22.69.33.89.35,4.75.44,10.15-.34,14.97,0,.37.01.72-.12.95-.42l.08-21.07c.1-.27-.46-.75-.62-.75h-11.32v3.36c0,.08-.55.98-.68,1.1-.16.15-1.03.61-1.17.61h-3.09ZM5.34,7.08c2.19.18,2.35-.01,2.19-2.19l-2.19,2.19ZM27.71,7.08c2.23.16,2.36.03,2.19-2.19l-2.19,2.19ZM50.08,7.08c2.07.12,2.39.15,2.19-2.06-.72.69-1.59,1.25-2.19,2.06ZM36.77,41.53h-6.24c-.59,0-4.75-3.81-5.63-3.98s-5.22-.12-6.16,0c-.46.06-1.59.68-1.59,1.15v21.75l.75-1.51c2.01-4.08,3.33-9.12,5.44-13.09.64-1.2,1.69-2.13,3.07-2.28h9.59s.77-2.06.77-2.06ZM54.88,54.7c.16-.22-1.1-1.23-1.29-1.52-.85-1.27.01-1.65.45-2.68,4.66-10.85-9.75-17.71-15.41-8.82-4.48,7.03,2.16,15.69,10.14,13.29.87-.26,2.42-1.33,3.04-1.36,1.21-.05,1.71,1.4,2.32,1.64.24.09.25-.26.4-.42.1-.11.34-.12.35-.13ZM35.67,45.23h-9.4c-.37,0-1.34.87-1.46,1.28l-7.59,18.21-.07.69h26.56c.26,0,1.2-.82,1.33-1.14l3.13-7.51c-6.9,1.52-13.41-4.56-12.49-11.53ZM56.35,55.54c-.35.05-1.29.96-1.04,1.4.56.99,1.79-.51,1.57-1-.05-.12-.37-.42-.53-.4ZM56.8,58.55l6.86,7.61c1.33,1,3.19-.68,2.19-2.06l-7.62-6.93c-.36.53-.83,1.14-1.44,1.37Z"/><path class="cls-1" d="M29.32,13.97l11.09-.03c1.18.08,1.18,1.57,0,1.65-3.43-.3-7.5.39-10.85,0-1.18-.14-1.2-1.41-.24-1.62Z"/><path class="cls-1" d="M29.18,21.93l8.88-.02c1.02.16.95,1.49-.4,1.64-1.61.18-6.52.21-8.08-.01-1.02-.15-1.28-1.07-.4-1.6Z"/><path class="cls-1" d="M41.12,6.29c.46.49.1,1.26-.57,1.34-2.24.29-5.11-.23-7.42,0-1.03-.43-.63-1.53.41-1.65,1.45-.17,5.28-.16,6.73,0,.21.02.72.17.85.31Z"/><path class="cls-1" d="M29.18,17.95l6.14-.03c.93.28.8,1.49-.14,1.63s-4.83.14-5.75,0-1.07-1.22-.25-1.61Z"/><path class="cls-1" d="M36.04,9.99c.52-.11,4.1-.12,4.61,0,.89.2.79,1.47.03,1.61-.52.1-4.28.09-4.77-.03-.95-.22-.72-1.4.14-1.59Z"/><path class="cls-1" d="M29.32,9.99c.48-.11,3.31-.11,3.78,0,.86.2.87,1.46.03,1.61-.49.09-3.35.09-3.84,0-.81-.15-.91-1.41.03-1.61Z"/><path class="cls-1" d="M38.1,17.95c.35-.08,2.37-.09,2.69,0,.62.18.68,1.13.15,1.47-.35.22-2.37.23-2.81.09-.79-.25-.93-1.35-.03-1.56Z"/><path class="cls-1" d="M15.36,12.3l-8.09,4.61c-.8.27-1.5-.93-.74-1.43l8.01-4.55c-.11-.32-.5-.24-.76-.4-.73-.47-.33-1.6.65-1.49.32.04,2.68.72,2.85.87.51.45.02,1.8-.17,2.43-.18.59-.24,1.45-.99,1.49-1.27.08-.68-1.44-.76-1.52Z"/><path class="cls-1" d="M18.17,13.04c.49,0,.75.36.76.83-.24,3.45.31,7.31,0,10.71-.13,1.43-1.52,1.21-1.66,0,.23-3.37-.3-7.12,0-10.44.05-.56.25-1.1.9-1.1Z"/><path class="cls-1" d="M15.05,25.3c-.6.63-1.38.09-1.48-.72-.31-2.63.24-5.82,0-8.51.1-1.16,1.51-1.23,1.65,0,.23,1.96.18,6.51,0,8.52-.02.22-.02.55-.18.71Z"/><path class="cls-1" d="M11.34,25.3c-.55.57-1.35.14-1.47-.59.16-2.04-.24-4.46-.01-6.45.13-1.11,1.25-1.26,1.65-.27-.13,2.13.19,4.49,0,6.59-.02.22-.02.55-.18.71Z"/><path class="cls-1" d="M7.64,25.3c-.55.57-1.35.14-1.47-.59s-.12-3.64,0-4.38c.16-1.02,1.46-1.24,1.63-.14.14.9.1,3.42.01,4.39-.02.22-.02.55-.18.71Z"/><path class="cls-1" d="M60.97,24.46l-3.34-4.14c-2.02.56-3.79.61-5.61-.55-3.45-2.22-3.29-7.55.22-9.64,4.89-2.9,10.38,2.12,8.2,7.25,1.19,1.36,4.82,3.07,4.86,5.02.05,2.18-2.68,3.54-4.33,2.07ZM54.58,10.96c-4.93.66-4.34,8.25.64,8.2,5.67-.05,5.2-8.99-.64-8.2ZM59.48,18.78c-.18.01-.64.56-.41.79l2.95,3.64c.84.74,2.13-.4,1.44-1.31-.53-.33-3.72-3.14-3.98-3.12Z"/><path class="cls-1" d="M51.27,51.64c-7.11,7.1-17.54-4.31-9.84-10.73,7.09-5.91,16.25,4.32,9.84,10.73ZM45.38,40.88c-4.39.51-6.46,5.8-3.67,9.22,2.36,2.9,7.09,2.65,9.11-.49,2.63-4.07-.67-9.29-5.44-8.73Z"/><path class="cls-1" d="M54.57,12.05c1.4-.24,3.03.54,3.47,1.95.17.54.25,1.35-.5,1.45-1.36.19-.69-2.1-2.73-1.78-.43.07-.63.47-1.11.14-1.01-.68-.02-1.61.86-1.76Z"/></svg>