<?xml version="1.0" encoding="UTF-8"?><svg id="Layer_1" xmlns="http://www.w3.org/2000/svg" viewBox="0 0 70 70"><defs><style>.cls-1{fill:#ab0000;}</style></defs><path class="cls-1" d="M53.7,53.2c.04.07.9.03,1.07.78.11.48.1,3.59-.03,4.01-.2.65-1.01.63-1.04.76-.22,1.35.39,4.92-.16,5.98s-2.57.2-3.1.53c-.09.05-.18.6-.33.76-.93.3-2.62,1.79-3.46,1.95-1.24.23-2.07-1.94-3-2.54l-3.37.02c-.45.17-1.53,1.95-2.04,2.33-.4.3-.76.26-1.2.09-.4-.16-2.8-1.56-3.1-1.83-.33-.3-.27-.47-.45-.81l-28.52-.05c-.29-.11-.5-.33-.62-.62l-.07-61.51c0-.55.27-1.09.89-1.03h47.49c.42-.14,1.02.41,1.02.76v18.4h2.39c.72,0,.86,3.37,1.11,3.57.23.18,1.02.43,1.38.65.27.16,1.29.94,1.37.96.73.19,2.67-1.41,3.65-.79.27.17,2.11,3.42,2.1,3.73-.04.81-1.99,1.9-2.49,2.56v3.22c.44.77,2.55,1.82,2.5,2.71-.02.3-1.93,3.61-2.15,3.71-.88.43-2.7-.87-3.49-.84-.31.01-2.25,1.62-2.91,1.62-.11.54-.45,3.53-1.05,3.53h-2.39c.17.94-.23,7.06,0,7.39ZM51.92,3.67H6.09v59.79h28.19c.07,0,.37-1.24.36-1.3-.01-.12-.62-.76-.75-.98-.25-.41-.72-1.6-.92-1.82-.64-.73-3.58-.16-3.77-1.57-.1-.72-.08-2.83,0-3.57.18-1.59,2.76-.92,3.64-1.56.45-.33,1.05-2.44,1.77-2.88,0-1.09-1.63-3.14-.66-3.95.27-.23,2.9-1.76,3.2-1.86.16-.05.3-.12.47-.09,1.14.34,1.72,1.83,2.68,2.55,1.1-.09,2.23-.16,3.32.04,1-.61,1.81-2.85,3.11-2.52.3.08,2.84,1.55,3.14,1.79.36.3.58.52.5,1.02-.1.64-1.07,2.52-1.01,2.92.02.12.91,1.33,1.08,1.64.43.77.36,1.7,1.48,1.46v-7.11s-.32.03-.48-.41c-.24-.63-.34-2.76-.76-3.08-.25-.19-.95-.38-1.32-.6-.3-.18-1.2-.92-1.37-.95-.77-.12-2.59,1.37-3.54.8-.37-.22-2.18-3.46-2.12-3.9.09-.65,2.31-1.92,2.44-2.36.12-.38-.12-1.36-.12-1.9,0-.47.19-.89.15-1.36-.37-.68-2.47-1.85-2.48-2.6,0-.4,1.86-3.67,2.2-3.83.83-.38,2.81.96,3.46.85.19-.03,1.32-.9,1.64-1.09s.91-.29,1.13-.51c.32-.32.43-2.39.67-3.02.16-.44.48-.37.48-.41V3.67ZM55.05,22.98c-.09-.08-1.75-.02-2.05.04-.23.16-.29,2.45-.73,2.96-.22.25-1.57.7-2.04.97-.63.36-1.55,1.37-2.18,1.31-.58-.05-2.25-.97-2.61-.9-.48.4-.75,1.13-1.05,1.69.34.65,2.2,1.63,2.3,2.35.05.37-.23,1.24-.25,1.74-.03.68.32,2.19.23,2.54-.16.59-1.79,1.67-2.28,2.14.11.39.77,1.81,1.15,1.8.59,0,2.17-.94,2.74-.9.4.03,1.3.93,1.78,1.22.62.37,1.49.57,2,.88.76.46.57,2.21.86,2.97.13.35,2.06.29,2.15.22.1-.09.34-2.18.49-2.59.28-.74,1.51-.94,2.21-1.34.52-.29,1.53-1.27,1.95-1.34.64-.1,2.2.82,2.93.89.13-.04,1.02-1.57,1.01-1.7-.02-.28-1.73-1.44-2.02-1.77-.58-.68,0-1.82,0-2.61,0-.67-.42-1.8-.22-2.4.17-.5,2.2-1.74,2.23-2.11.01-.13-.89-1.7-1.1-1.69-.64.04-2.29,1-2.87.91-.24-.04-1.7-1.25-2.19-1.51-.46-.24-1.32-.41-1.64-.65-.54-.42-.61-2.98-.8-3.14ZM53.01,54.85c-.66-.17-2.99-.36-3.34-.83-.27-.75-.59-1.61-1.01-2.28-.3-.47-1.13-1.24-1.2-1.68-.1-.63,1.01-2.63.89-3.06-.05-.16-1.56-1.05-1.7-1.05-.49,0-1.67,2.05-2.25,2.27-1.12.02-2.24-.1-3.37-.08-.67.01-1.1.4-1.78-.13-.41-.32-1.52-2.04-1.91-2.05-.36,0-1.38.89-1.85.96-.08.11.85,2.17.92,2.55.21,1.12-.79,1.66-1.31,2.59-.32.58-.62,1.79-1.05,2.1-.56.4-2.92.52-3.07.69l-.02,2.09c.07.29,2.59.44,3.09.77.29.19,1.09,2.2,1.46,2.79.19.31.75.78.86,1.06.38.93-.68,2.34-.83,3.27-.05.32,1.53.91,1.8,1.22.28,0,1.73-2.21,2.25-2.38.62-.2,1.69.23,2.4.23.63,0,1.66-.37,2.18-.29s1.92,1.97,2.33,2.46c.34-.28,1.74-.83,1.83-1.19.12-.47-.95-2.39-.9-2.96.03-.34,1.29-1.82,1.58-2.37.23-.43.47-1.44.7-1.73.35-.43,3.14-.59,3.27-.8v-2.16ZM51.92,59.08c-1.11-.22-1.16.93-1.62,1.73-.21.37-.82,1.01-.91,1.28-.05.13.27,1.36.34,1.36h2.19v-4.38Z"/><path class="cls-1" d="M35.61,8.76c.15.15.16.5.17.71.13,1.56.17,5.87-.31,7.23-.74,2.1-3.91,5.08-6.03,5.74-.76.23-1.56-.31-2.24-.69-2.39-1.34-4.82-3.81-5.09-6.68-.13-1.36-.17-4.27-.02-5.6.03-.29.1-.56.34-.75.31-.25,1.91-.49,2.53-.75.57-.24,1.61-1.08,1.99-1.15.54-.1,3.83-.07,4.27.1.62.23,1.39.95,2.19,1.23.47.17,1.97.39,2.19.61ZM34.13,10.11c-.59-.05-1.23-.26-1.77-.49-.51-.21-1.53-.96-1.86-1.02-.5-.09-2.18-.07-2.74-.02-1.05.1-2.59,1.59-3.88,1.53.13,2.42-.53,4.78.75,6.95.58.99,3.37,3.73,4.49,3.57.38-.05,1.83-1.07,2.2-1.37.94-.78,2.04-1.99,2.47-3.14.67-1.84.21-4.08.34-6.01Z"/><path class="cls-1" d="M9.74,23.81l8.05-.03c.71.08.83.36.89,1.02.17,1.88.17,5.66,0,7.54-.07.78-.24.95-1.03,1.03-2.44.22-5.2-.18-7.68,0-.54-.04-.83-.54-.89-1.03-.18-1.55-.18-5.98,0-7.53.05-.44.25-.78.65-.99ZM16.89,25.56h-6.02v6.02h6.02v-6.02Z"/><path class="cls-1" d="M9.88,51.59c2.49.16,5.48-.31,7.91-.03.71.08.83.36.89,1.02.17,1.88.17,5.66,0,7.54-.07.78-.24.95-1.03,1.03-2.44.22-5.2-.18-7.68,0-.54-.04-.83-.54-.89-1.03-.19-1.56-.18-5.97,0-7.53.06-.51.28-.84.78-.99ZM16.89,53.34h-6.02v6.02h6.02v-6.02Z"/><path class="cls-1" d="M9.6,37.76l8.33-.03c.41.01.74.35.75.75-.2,2.51.24,5.35,0,7.81-.06.64-.23.83-.89.89-2.51.24-5.4-.2-7.95,0-.5,0-.7-.44-.75-.89-.2-1.71-.16-5.78,0-7.53.04-.41.09-.79.51-.99ZM16.89,39.38h-6.02v6.16h6.02v-6.16Z"/><path class="cls-1" d="M24.25,29.7l15.7-.03c1.27-.01,1.69,1.62.28,1.78l-16.35-.07c-.72-.46-.51-1.6.37-1.67Z"/><path class="cls-1" d="M42.03,27.17c-.18.19-.71.29-.98.32-3.43.31-7.33-.25-10.82,0-1.2.05-1.47-1.64-.28-1.79h11.51c.72-.01,1,1.03.57,1.48Z"/><path class="cls-1" d="M42.03,39.83c.54.58.09,1.38-.71,1.47-3.51.41-7.78-.32-11.37,0-1.19-.15-.92-1.83.28-1.79,3.49.25,7.38-.31,10.82,0,.27.02.81.13.98.32Z"/><path class="cls-1" d="M24.11,43.65c2.68.24,6.28-.42,8.86-.02,1.11.17,1.02,1.62-.26,1.77-2.57-.3-6.02.39-8.48-.01-1.05-.17-1.05-1.54-.12-1.74Z"/><path class="cls-1" d="M23.63,57.75c.45-.46,4.16-.44,4.69-.04.57.43.34,1.38-.43,1.5-.58.09-3.27.11-3.82,0-.63-.12-.84-1.08-.45-1.47Z"/><path class="cls-1" d="M23.97,25.73c.29-.08,3.09-.09,3.37,0,.77.23.68,1.58-.39,1.74-.51.08-2.45.07-2.91-.08-.8-.26-.75-1.46-.06-1.66Z"/><path class="cls-1" d="M24.25,39.55c.5-.09,2.46-.11,2.92.03.7.21.96,1.16.32,1.57-.32.2-3.1.24-3.51.12-.74-.21-.77-1.52.28-1.72Z"/><path class="cls-1" d="M23.97,53.5c.34-.1,2.85-.09,3.23,0,.98.22.82,1.57-.25,1.74-.51.08-2.45.07-2.91-.08-.8-.26-.75-1.46-.06-1.66Z"/><path class="cls-1" d="M45.04,6.16c.42-.09,2.54-.09,2.92.03.88.29.65,1.55-.36,1.71-.44.07-2.29.07-2.67-.05-.73-.24-.8-1.49.11-1.69Z"/><path class="cls-1" d="M40.94,9.86c.42-.09,2.26-.09,2.68,0,1.04.23.91,1.58.03,1.75-.34.06-2.55.06-2.84-.02-.8-.23-.78-1.52.14-1.72Z"/><path class="cls-1" d="M40.8,6.16c.58-.17,1.78-.12,1.93.62.32,1.5-2.7,1.54-2.54.12.02-.23.39-.68.61-.74Z"/><path class="cls-1" d="M46.68,9.86c2.28-.52,2.59,2.24-.03,1.74-.85-.16-.96-1.52.03-1.74Z"/><path class="cls-1" d="M41.63,49.68c8.14-.44,8.98,11.93.78,12.55s-9.1-12.1-.78-12.55ZM41.49,51.46c-5.85.62-4.98,9.65,1.04,8.98,5.79-.65,4.87-9.6-1.04-8.98Z"/><path class="cls-1" d="M58.3,37.83c-5.58,5.58-14.22-2.9-8.64-8.58,5.64-5.74,14.34,2.88,8.64,8.58ZM53.12,29.29c-4.92.71-4.32,8.77,1.04,8.57,5.77-.21,5.52-9.53-1.04-8.57Z"/><path class="cls-1" d="M29.89,13.25h2.26c.17,0,.72.52.76.76.04.28-.26,1.02-.48,1.02h-2.53v2.39c0,.28-.61.7-.91.72-.24.01-.87-.46-.87-.58v-2.53h-2.53c-.53,0-.83-1.78.27-1.78h2.26v-2.39c0-.35.66-.67,1.02-.62.25.03.76.58.76.76v2.26Z"/></svg>